<svg width="91" height="91" viewBox="0 0 91 91" fill="none" xmlns="http://www.w3.org/2000/svg">
<path d="M44.0426 16.4049C42.9939 16.707 41.9275 17.4002 41.3588 18.1645C40.8078 18.8932 14.6986 64.091 14.1121 65.3174C13.7922 65.9928 13.6855 66.5082 13.6855 67.4502C13.6855 69.6363 14.8764 71.4848 16.867 72.409L17.6846 72.7822H45.5H73.3154L74.133 72.409C75.3771 71.8225 76.3191 70.8805 76.8701 69.6541C77.2967 68.6766 77.35 68.3922 77.2789 67.1836C77.2078 66.0994 77.0834 65.6195 76.6391 64.802C74.5773 60.9807 49.9256 18.5021 49.4457 17.9512C48.2904 16.5826 45.8732 15.8895 44.0426 16.4049ZM47.2773 33.3252C47.9705 33.6807 48.6459 34.5516 48.8769 35.3336C49.1258 36.2578 49.108 50.6898 48.8592 51.6318C48.4859 52.9471 46.9752 54.0312 45.5 54.0312C44.0248 54.0312 42.5141 52.9471 42.1408 51.6318C41.892 50.6898 41.8742 36.2578 42.123 35.3336C42.3363 34.6049 43.0117 33.6984 43.616 33.3785C44.5936 32.8453 46.2998 32.8275 47.2773 33.3252ZM46.7086 58.9367C48.0949 59.5055 48.9303 60.6963 48.9303 62.1182C48.948 63.5756 48.1838 64.7664 46.8686 65.3174C45.6955 65.815 44.0426 65.5484 43.1361 64.7309C42.1408 63.8422 41.7498 61.8338 42.3541 60.6963C43.2072 59.0434 45.1268 58.2613 46.7086 58.9367Z" fill="#E42E30"/>
</svg>
