<svg width="15" height="14" viewBox="0 0 15 14" fill="none" xmlns="http://www.w3.org/2000/svg">
<path d="M6.39099e-05 11.8818C6.39023e-05 12.0551 0.140688 12.1957 0.313958 12.1957L5.47517 12.1957C5.64844 12.1957 5.78906 12.0551 5.78906 11.8818C5.78906 11.7085 5.64844 11.5679 5.47517 11.5679L0.313958 11.5679C0.140688 11.5679 6.39175e-05 11.7084 6.39099e-05 11.8818Z" fill="#00186D"/>
<path d="M4.80957 2.52937C4.80957 2.70264 4.9502 2.84326 5.12347 2.84326L13.8116 2.84326C13.9849 2.84326 14.1255 2.70264 14.1255 2.52937C14.1255 2.3561 13.9849 2.21547 13.8116 2.21547L5.12347 2.21547C4.95004 2.21547 4.80957 2.3561 4.80957 2.52937Z" fill="#00186D"/>
<path d="M0.000263228 7.20551C0.00026322 7.37878 0.140888 7.51941 0.314158 7.51941L9.74323 7.51941C9.9165 7.51941 10.0571 7.37878 10.0571 7.20551C10.0571 7.03224 9.9165 6.89162 9.74323 6.89162L0.314158 6.89162C0.140888 6.89162 0.000263235 7.03224 0.000263228 7.20551Z" fill="#00186D"/>
<path d="M9.42935 7.20552C9.42935 8.06308 10.127 8.76086 10.9847 8.76086C11.8424 8.76086 12.54 8.06323 12.54 7.20552C12.54 6.3478 11.8424 5.65017 10.9847 5.65017C10.127 5.65017 9.42935 6.3478 9.42935 7.20552ZM11.9121 7.20552C11.9121 7.71701 11.496 8.13308 10.9845 8.13308C10.473 8.13308 10.057 7.71701 10.057 7.20552C10.057 6.69403 10.473 6.27796 10.9845 6.27796C11.496 6.27796 11.9121 6.69403 11.9121 7.20552Z" fill="#00186D"/>
<path d="M5.16128 11.8818C5.16128 12.7393 5.85891 13.4371 6.71662 13.4371C7.57418 13.4371 8.27197 12.7395 8.27197 11.8818C8.27197 11.0241 7.57434 10.3264 6.71663 10.3264C5.85891 10.3264 5.16128 11.0242 5.16128 11.8818ZM7.64418 11.8818C7.64418 12.3933 7.22812 12.8093 6.71663 12.8093C6.20513 12.8093 5.78907 12.3933 5.78907 11.8818C5.78907 11.3703 6.20513 10.9542 6.71663 10.9542C7.22812 10.9542 7.64418 11.3703 7.64418 11.8818Z" fill="#00186D"/>
<path d="M2.32647 2.5294C2.32647 3.38696 3.02411 4.08459 3.88182 4.08459C4.73938 4.08459 5.43701 3.38696 5.43701 2.52941C5.43701 1.67169 4.73938 0.974057 3.88182 0.974057C3.02426 0.974057 2.32647 1.67169 2.32647 2.5294ZM4.80938 2.52941C4.80938 3.0409 4.39347 3.45681 3.88198 3.45681C3.37049 3.45681 2.95442 3.0409 2.95442 2.52941C2.95442 2.01791 3.37049 1.60185 3.88198 1.60185C4.39347 1.60185 4.80938 2.01791 4.80938 2.52941Z" fill="#00186D"/>
<path d="M7.64435 11.8818C7.64435 12.0551 7.78498 12.1957 7.95825 12.1957L13.8116 12.1957C13.9849 12.1957 14.1255 12.0551 14.1255 11.8818C14.1255 11.7085 13.9849 11.5679 13.8116 11.5679L7.95825 11.5679C7.78482 11.5679 7.64435 11.7084 7.64435 11.8818Z" fill="#00186D"/>
<path d="M11.9121 7.20551C11.9121 7.37878 12.0527 7.51941 12.226 7.51941L13.8116 7.51941C13.9849 7.51941 14.1255 7.37878 14.1255 7.20551C14.1255 7.03224 13.9849 6.89162 13.8116 6.89162L12.226 6.89162C12.0527 6.89162 11.9121 7.03224 11.9121 7.20551Z" fill="#00186D"/>
<path d="M0.000372424 2.52937C0.000372416 2.70264 0.140997 2.84326 0.314267 2.84326L2.6407 2.84326C2.81397 2.84326 2.95459 2.70264 2.95459 2.52937C2.95459 2.3561 2.81397 2.21547 2.6407 2.21547L0.314267 2.21547C0.140997 2.21547 0.000372431 2.3561 0.000372424 2.52937Z" fill="#00186D"/>
</svg>
