<svg width="150" height="100" viewBox="0 0 150 100" fill="none" xmlns="http://www.w3.org/2000/svg">
<path d="M6.47235 91.9363H7.85425L4.612 99.2624H3.25112L-0.00146484 91.9363H1.49729L3.97395 97.588L6.47235 91.9363ZM11.031 99.2624V91.9363H12.4129V99.2624H11.031ZM19.1243 99.367C17.9654 99.367 16.8069 99.0113 16.1902 98.488L16.6686 97.4308C17.2639 97.9019 18.2098 98.2368 19.1243 98.2368C20.2828 98.2368 20.772 97.8286 20.772 97.2842C20.772 95.7041 16.3498 96.7402 16.3498 94.0191C16.3498 92.8363 17.3063 91.8318 19.3473 91.8318C20.2404 91.8318 21.1756 92.0619 21.8243 92.4807L21.3883 93.5375C20.7185 93.1503 19.9854 92.9619 19.3366 92.9619C18.1888 92.9619 17.721 93.4014 17.721 93.9563C17.721 95.5157 22.1325 94.5003 22.1325 97.1902C22.1325 98.3624 21.1653 99.367 19.1243 99.367ZM27.3003 99.2624V93.0875H24.8339V91.9363H31.1482V93.0875H28.6822V99.2624H27.3003ZM37.9494 99.367C35.6426 99.367 33.9419 97.7658 33.9419 95.5992C33.9419 93.433 35.6426 91.8318 37.9494 91.8318C40.2561 91.8318 41.9568 93.4224 41.9568 95.5992C41.9568 97.7763 40.2561 99.367 37.9494 99.367ZM37.9494 98.1741C39.4481 98.1741 40.5643 97.0958 40.5643 95.5992C40.5643 94.1029 39.4481 93.0247 37.9494 93.0247C36.4506 93.0247 35.3345 94.1029 35.3345 95.5992C35.3345 97.0958 36.4506 98.1741 37.9494 98.1741ZM52.1702 99.2624H50.6822L49.162 97.1169C49.0662 97.1274 48.9707 97.1274 48.8749 97.1274H47.1955V99.2624H45.8133V91.9363H48.8749C50.8307 91.9363 52.0427 92.9202 52.0427 94.5424C52.0427 95.6518 51.4688 96.468 50.4588 96.8552L52.1702 99.2624ZM50.6501 94.5424C50.6501 93.6213 50.0231 93.0875 48.8111 93.0875H47.1955V96.0075H48.8111C50.0231 96.0075 50.6501 95.4635 50.6501 94.5424ZM55.9807 99.2624V91.9363H57.3626V99.2624H55.9807ZM67.337 99.2624L66.5928 97.5669H62.8724L62.1389 99.2624H60.7146L64.063 91.9363H65.4235L68.7826 99.2624H67.337ZM63.3402 96.4996H66.1357L64.7328 93.2969L63.3402 96.4996ZM82.8717 91.9363H84.2536L81.0114 99.2624H79.6508L76.3979 91.9363H77.897L80.3737 97.588L82.8717 91.9363ZM88.8126 98.1218H93.0113V99.2624H87.4307V91.9363H92.8624V93.0769H88.8126V94.9819H92.4054V96.1018H88.8126V98.1218ZM96.9437 99.2624V91.9363H98.3256V99.2624H96.9437ZM106.174 99.367C103.899 99.367 102.198 97.7868 102.198 95.5992C102.198 93.4119 103.899 91.8318 106.185 91.8318C107.397 91.8318 108.438 92.2608 109.129 93.0563L108.236 93.883C107.694 93.3074 107.025 93.0247 106.249 93.0247C104.707 93.0247 103.591 94.0924 103.591 95.5992C103.591 97.1064 104.707 98.1741 106.249 98.1741C107.025 98.1741 107.694 97.8914 108.236 97.3052L109.129 98.1425C108.438 98.938 107.397 99.367 106.174 99.367ZM115.993 99.367C113.952 99.367 112.73 98.2053 112.73 96.0702V91.9363H114.111V96.018C114.111 97.5252 114.803 98.1741 116.004 98.1741C117.205 98.1741 117.885 97.5252 117.885 96.018V91.9363H119.246V96.0702C119.246 98.2053 118.023 99.367 115.993 99.367ZM123.573 99.2624V91.9363H124.955V98.1113H128.845V99.2624H123.573ZM137.95 99.2624L137.206 97.5669H133.486L132.752 99.2624H131.328L134.676 91.9363H136.037L139.396 99.2624H137.95ZM133.953 96.4996H136.749L135.346 93.2969L133.953 96.4996ZM149.091 99.2624H147.603L146.083 97.1169C145.987 97.1274 145.891 97.1274 145.795 97.1274H144.116V99.2624H142.734V91.9363H145.795C147.751 91.9363 148.963 92.9202 148.963 94.5424C148.963 95.6518 148.389 96.468 147.379 96.8552L149.091 99.2624ZM147.571 94.5424C147.571 93.6213 146.944 93.0875 145.732 93.0875H144.116V96.0075H145.732C146.944 96.0075 147.571 95.4635 147.571 94.5424Z" fill="#F8F8F8"/>
<path d="M11.3837 28.3882V71.3944H37.5779V78.5679H4.09766V28.3882H11.3837ZM90.0022 71.3944C90.0022 72.374 89.8126 73.3074 89.4336 74.1937C89.0545 75.0569 88.5333 75.8152 87.8697 76.4683C87.2063 77.1214 86.4243 77.6349 85.5241 78.0081C84.6473 78.3813 83.7115 78.5679 82.7161 78.5679H53.6074C52.6121 78.5679 51.6645 78.3813 50.7642 78.0081C49.8875 77.6349 49.1172 77.1214 48.4539 76.4683C47.7906 75.8152 47.269 75.0569 46.89 74.1937C46.5109 73.3074 46.3214 72.374 46.3214 71.3944V35.5617C46.3214 34.5817 46.5109 33.6603 46.89 32.7971C47.269 31.9108 47.7906 31.1524 48.4539 30.5225C49.1172 29.8694 49.8875 29.3562 50.7642 28.9831C51.6645 28.5864 52.6121 28.3882 53.6074 28.3882H82.7161C83.7115 28.3882 84.6473 28.5864 85.5241 28.9831C86.4243 29.3562 87.2063 29.8694 87.8697 30.5225C88.5333 31.1524 89.0545 31.9108 89.4336 32.7971C89.8126 33.6603 90.0022 34.5817 90.0022 35.5617V71.3944ZM53.6074 35.5617V71.3944H82.7161V35.5617H53.6074ZM103.117 35.5617C103.117 34.5817 103.307 33.6603 103.686 32.7971C104.065 31.9108 104.586 31.1524 105.25 30.5225C105.913 29.8694 106.683 29.3562 107.56 28.9831C108.46 28.5864 109.408 28.3882 110.403 28.3882H138.055C139.05 28.3882 139.986 28.5864 140.863 28.9831C141.763 29.3562 142.545 29.8694 143.208 30.5225C143.872 31.1524 144.393 31.9108 144.772 32.7971C145.151 33.6603 145.341 34.5817 145.341 35.5617V42.0352H138.055V35.5617H110.403V71.3944H138.055V59.2167H124.229V52.0431H145.341V71.3944C145.341 72.374 145.151 73.3074 144.772 74.1937C144.393 75.0569 143.872 75.8152 143.208 76.4683C142.545 77.1214 141.763 77.6349 140.863 78.0081C139.986 78.3813 139.05 78.5679 138.055 78.5679H110.403C109.408 78.5679 108.46 78.3813 107.56 78.0081C106.683 77.6349 105.913 77.1214 105.25 76.4683C104.586 75.8152 104.065 75.0569 103.686 74.1937C103.307 73.3074 103.117 72.374 103.117 71.3944V35.5617Z" fill="#F8F8F8"/>
<path d="M55.8812 36.0238C52.6076 31.4771 44.9461 35.8323 48.2375 40.4142C53.8819 48.271 58.6237 56.5284 62.2336 65.4655C63.7199 69.1063 69.7181 70.0821 70.7797 65.4655C75.7872 43.5152 85.3066 18.1328 107.371 7.97645C112.52 5.60713 108.044 -1.90139 102.912 0.450396C82.6878 9.77053 71.629 30.6931 65.3476 51.4067C62.5763 46.0592 59.4124 40.9179 55.8812 36.0238Z" fill="#50D05D"/>
</svg>
