<svg width="13" height="12" viewBox="0 0 13 12" fill="none" xmlns="http://www.w3.org/2000/svg">
<g clip-path="url(#clip0_842_2227)">
<path fill-rule="evenodd" clip-rule="evenodd" d="M6.5 0.375C3.54545 0.375 1.02227 2.7075 0 6C1.02227 9.2925 3.54545 11.625 6.5 11.625C9.45455 11.625 11.9777 9.2925 13 6C11.9777 2.7075 9.45455 0.375 6.5 0.375ZM6.5 9.75C4.86909 9.75 3.54545 8.07 3.54545 6C3.54545 3.93 4.86909 2.25 6.5 2.25C8.13091 2.25 9.45455 3.93 9.45455 6C9.45455 8.07 8.13091 9.75 6.5 9.75ZM6.5 3.75C5.51909 3.75 4.72727 4.755 4.72727 6C4.72727 7.245 5.51909 8.25 6.5 8.25C7.48091 8.25 8.27273 7.245 8.27273 6C8.27273 4.755 7.48091 3.75 6.5 3.75Z" fill="#266BF0"/>
</g>
<defs>
<clipPath id="clip0_842_2227">
<rect width="13" height="12" fill="white"/>
</clipPath>
</defs>
</svg>
