<svg width="22" height="23" viewBox="0 0 22 23" fill="none" xmlns="http://www.w3.org/2000/svg">
<g id="Group 564">
<g id="Group">
<g id="Group_2">
<path id="Vector" d="M0.610602 22.5296H20.6527C20.8891 22.5296 21.0917 22.3534 21.0917 22.148V5.2252C21.0917 5.12246 21.0411 5.01971 20.9567 4.94633L15.3847 0.264354C15.3678 0.249677 15.334 0.235001 15.3171 0.220324C15.3003 0.205647 15.2665 0.190927 15.2496 0.17625C15.199 0.161573 15.1314 0.146912 15.0808 0.146912H0.627503C0.391118 0.146912 0.188485 0.323052 0.188485 0.528532V22.1333C0.1716 22.3535 0.374216 22.5296 0.610602 22.5296ZM15.5029 1.43851L19.5552 4.82893H15.5029V1.43851ZM1.04962 0.924799H14.6249V5.2252C14.6249 5.43068 14.8275 5.60682 15.0639 5.60682H20.2137V21.7517H1.04962V0.924799Z" fill="#20332F"/>
<path id="Vector_2" d="M20.6499 22.6615H0.607823C0.27013 22.6615 0 22.4267 0 22.1332V0.528401C0 0.234858 0.27013 0 0.607823 0H15.0611C15.1455 0 15.2131 0.0146754 15.2975 0.0440297C15.3313 0.0587068 15.365 0.0733822 15.3819 0.0880594C15.4326 0.117414 15.4494 0.132103 15.4832 0.146781L21.072 4.8288C21.1902 4.93154 21.2578 5.06365 21.2578 5.21042V22.1332C21.2578 22.4267 20.9876 22.6615 20.6499 22.6615ZM0.607823 0.293561C0.455861 0.293561 0.337663 0.396307 0.337663 0.528401V22.1332C0.337663 22.2653 0.455861 22.368 0.607823 22.368H20.6499C20.8019 22.368 20.9201 22.2653 20.9201 22.1332V5.21042C20.9201 5.15171 20.8863 5.07833 20.8357 5.0343L15.2469 0.352282L15.1962 0.322899L15.1456 0.293561C15.1118 0.278884 15.078 0.27887 15.0442 0.27887H0.607823V0.293561ZM20.211 21.8983H1.04684C0.962418 21.8983 0.877984 21.8396 0.877984 21.7516V0.924668C0.877984 0.851282 0.945533 0.777888 1.04684 0.777888H14.6221C14.7066 0.777888 14.7909 0.836605 14.7909 0.924668V5.22506C14.7909 5.35716 14.9091 5.4599 15.0611 5.4599H20.211C20.2954 5.4599 20.3798 5.51862 20.3798 5.60668V21.7516C20.3798 21.8396 20.2954 21.8983 20.211 21.8983ZM1.2157 21.6048H20.0421V5.73877H15.0611C14.7234 5.73877 14.4533 5.50396 14.4533 5.21042V1.05676H1.2157V21.6048ZM19.5524 4.97558H15.5001C15.4157 4.97558 15.3313 4.91686 15.3313 4.8288V1.43838C15.3313 1.37967 15.365 1.32097 15.4326 1.30629C15.5001 1.27693 15.5677 1.2916 15.6183 1.33563L19.6706 4.72605C19.7213 4.77008 19.7382 4.82881 19.7044 4.88752C19.6875 4.94623 19.62 4.97558 19.5524 4.97558ZM15.669 4.69671H19.1472L15.669 1.79061V4.69671Z" fill="#20332F"/>
</g>
</g>
<g id="Group_3">
<path id="Vector_3" d="M17.1074 8.96762H3.93559C3.71788 8.96762 3.53125 9.14376 3.53125 9.34924C3.53125 9.55472 3.71788 9.73082 3.93559 9.73082H17.1074C17.3251 9.73082 17.5117 9.55472 17.5117 9.34924C17.5273 9.14376 17.3407 8.96762 17.1074 8.96762Z" fill="#20332F"/>
<path id="Vector_4" d="M17.1066 9.87753H3.93482C3.62379 9.87753 3.375 9.64271 3.375 9.34917C3.375 9.05563 3.62379 8.82077 3.93482 8.82077H17.1066C17.4176 8.82077 17.6664 9.05563 17.6664 9.34917C17.682 9.64271 17.4176 9.87753 17.1066 9.87753ZM3.93482 9.11433C3.79486 9.11433 3.68599 9.21708 3.68599 9.34917C3.68599 9.48127 3.79486 9.58401 3.93482 9.58401H17.1066C17.2466 9.58401 17.3554 9.48127 17.3554 9.34917C17.3554 9.21708 17.2466 9.11433 17.1066 9.11433H3.93482Z" fill="#20332F"/>
</g>
<g id="Group_4">
<path id="Vector_5" d="M3.93559 13.3854H17.3873C17.605 13.3854 17.7916 13.2092 17.7916 13.0038C17.7916 12.7983 17.605 12.6221 17.3873 12.6221H3.93559C3.71788 12.6221 3.53125 12.7983 3.53125 13.0038C3.53125 13.2239 3.71788 13.3854 3.93559 13.3854Z" fill="#20332F"/>
<path id="Vector_6" d="M17.3866 13.5323H3.93486C3.62384 13.5323 3.375 13.2974 3.375 13.0039C3.375 12.7103 3.62384 12.4755 3.93486 12.4755H17.3866C17.6976 12.4755 17.9464 12.7103 17.9464 13.0039C17.9464 13.2974 17.6976 13.5323 17.3866 13.5323ZM3.93486 12.769C3.7949 12.769 3.68604 12.8718 3.68604 13.0039C3.68604 13.136 3.7949 13.2387 3.93486 13.2387H17.3866C17.5265 13.2387 17.6354 13.136 17.6354 13.0039C17.6354 12.8718 17.5265 12.769 17.3866 12.769H3.93486Z" fill="#20332F"/>
</g>
<g id="Group_5">
<path id="Vector_7" d="M3.91997 17.0403H17.0918C17.3095 17.0403 17.4961 16.8641 17.4961 16.6586C17.4961 16.4532 17.3095 16.2771 17.0918 16.2771H3.91997C3.70225 16.2771 3.51562 16.4532 3.51562 16.6586C3.51562 16.8788 3.70225 17.0403 3.91997 17.0403Z" fill="#20332F"/>
<path id="Vector_8" d="M17.1067 17.1869H3.93486C3.62384 17.1869 3.375 16.9521 3.375 16.6585C3.375 16.365 3.62384 16.1302 3.93486 16.1302H17.1067C17.4177 16.1302 17.6665 16.365 17.6665 16.6585C17.6665 16.9521 17.4021 17.1869 17.1067 17.1869ZM3.9193 16.4237C3.77934 16.4237 3.67047 16.5264 3.67047 16.6585C3.67047 16.7906 3.77934 16.8934 3.9193 16.8934H17.0911C17.231 16.8934 17.3399 16.7906 17.3399 16.6585C17.3399 16.5264 17.231 16.4237 17.0911 16.4237H3.9193Z" fill="#20332F"/>
</g>
</g>
</svg>
