<svg width="19" height="16" viewBox="0 0 19 16" fill="none" xmlns="http://www.w3.org/2000/svg">
<g id="Group">
<g id="Group_2">
<g id="Vector">
<mask id="path-1-inside-1_3508_15326" fill="white">
<path d="M18.5575 15.8412H0.351562C0.212737 15.8412 0.09375 15.7424 0.09375 15.627V8.03183C0.09375 7.9165 0.212737 7.81769 0.351562 7.81769C0.490387 7.81769 0.609389 7.9165 0.609389 8.03183V15.4046H18.2996V8.03183C18.2996 7.9165 18.4186 7.81769 18.5575 7.81769C18.6963 7.81769 18.8153 7.9165 18.8153 8.03183V15.627C18.8153 15.7424 18.6963 15.8412 18.5575 15.8412Z"/>
</mask>
<path d="M18.5575 15.8412H0.351562C0.212737 15.8412 0.09375 15.7424 0.09375 15.627V8.03183C0.09375 7.9165 0.212737 7.81769 0.351562 7.81769C0.490387 7.81769 0.609389 7.9165 0.609389 8.03183V15.4046H18.2996V8.03183C18.2996 7.9165 18.4186 7.81769 18.5575 7.81769C18.6963 7.81769 18.8153 7.9165 18.8153 8.03183V15.627C18.8153 15.7424 18.6963 15.8412 18.5575 15.8412Z" fill="#41EFC9"/>
<path d="M0.609389 15.4046H-0.390611V16.4046H0.609389V15.4046ZM18.2996 15.4046V16.4046H19.2996V15.4046H18.2996ZM18.8153 15.627H17.8153H18.8153ZM18.5575 14.8412H0.351562V16.8412H18.5575V14.8412ZM0.351562 14.8412C0.515137 14.8412 0.676856 14.8979 0.809636 15.0082C0.940347 15.1168 1.09375 15.3271 1.09375 15.627H-0.90625C-0.90625 16.4602 -0.158034 16.8412 0.351562 16.8412V14.8412ZM1.09375 15.627V8.03183H-0.90625V15.627H1.09375ZM1.09375 8.03183C1.09375 8.33186 0.940294 8.54217 0.809514 8.65078C0.67669 8.7611 0.515002 8.81769 0.351562 8.81769V6.81769C-0.15771 6.81769 -0.90625 7.19843 -0.90625 8.03183H1.09375ZM0.351562 8.81769C0.188128 8.81769 0.026458 8.76111 -0.106352 8.65081C-0.237115 8.54221 -0.390611 8.33191 -0.390611 8.03183H1.60939C1.60939 7.19836 0.860753 6.81769 0.351562 6.81769V8.81769ZM-0.390611 8.03183V15.4046H1.60939V8.03183H-0.390611ZM0.609389 16.4046H18.2996V14.4046H0.609389V16.4046ZM19.2996 15.4046V8.03183H17.2996V15.4046H19.2996ZM19.2996 8.03183C19.2996 8.33186 19.1462 8.54217 19.0154 8.65078C18.8826 8.7611 18.7209 8.81769 18.5575 8.81769V6.81769C18.0482 6.81769 17.2996 7.19843 17.2996 8.03183H19.2996ZM18.5575 8.81769C18.394 8.81769 18.2323 8.7611 18.0995 8.65078C17.9687 8.54217 17.8153 8.33186 17.8153 8.03183H19.8153C19.8153 7.19843 19.0667 6.81769 18.5575 6.81769V8.81769ZM17.8153 8.03183V15.627H19.8153V8.03183H17.8153ZM17.8153 15.627C17.8153 15.3271 17.9687 15.1168 18.0994 15.0082C18.2322 14.8979 18.3939 14.8412 18.5575 14.8412V16.8412C19.067 16.8412 19.8153 16.4602 19.8153 15.627H17.8153Z" fill="#12D1A7" mask="url(#path-1-inside-1_3508_15326)"/>
</g>
</g>
<g id="Group 592">
<g id="Group 591">
<g id="Vector_2">
<mask id="path-3-inside-2_3508_15326" fill="white">
<path d="M18.5629 15.9235H0.356979C0.158658 15.9235 0 15.7917 0 15.6269V8.03171C0 7.86696 0.158658 7.73517 0.356979 7.73517C0.5553 7.73517 0.713958 7.86696 0.713958 8.03171V15.3304H18.2059V8.03171C18.2059 7.86696 18.3645 7.73517 18.5629 7.73517C18.7612 7.73517 18.9198 7.86696 18.9198 8.03171V15.6269C18.9198 15.7834 18.7612 15.9235 18.5629 15.9235ZM0.356979 7.89993C0.267734 7.89993 0.198318 7.95757 0.198318 8.03171V15.6269C0.198318 15.7011 0.267734 15.7587 0.356979 15.7587H18.5629C18.6521 15.7587 18.7215 15.7011 18.7215 15.6269V8.03171C18.7215 7.95757 18.6521 7.89993 18.5629 7.89993C18.4736 7.89993 18.4042 7.95757 18.4042 8.03171V15.4045C18.4042 15.4457 18.3646 15.4869 18.3051 15.4869H0.614806C0.565226 15.4869 0.515639 15.4539 0.515639 15.4045V8.03171C0.515639 7.95757 0.446223 7.89993 0.356979 7.89993Z"/>
</mask>
<path d="M18.5629 15.9235H0.356979C0.158658 15.9235 0 15.7917 0 15.6269V8.03171C0 7.86696 0.158658 7.73517 0.356979 7.73517C0.5553 7.73517 0.713958 7.86696 0.713958 8.03171V15.3304H18.2059V8.03171C18.2059 7.86696 18.3645 7.73517 18.5629 7.73517C18.7612 7.73517 18.9198 7.86696 18.9198 8.03171V15.6269C18.9198 15.7834 18.7612 15.9235 18.5629 15.9235ZM0.356979 7.89993C0.267734 7.89993 0.198318 7.95757 0.198318 8.03171V15.6269C0.198318 15.7011 0.267734 15.7587 0.356979 15.7587H18.5629C18.6521 15.7587 18.7215 15.7011 18.7215 15.6269V8.03171C18.7215 7.95757 18.6521 7.89993 18.5629 7.89993C18.4736 7.89993 18.4042 7.95757 18.4042 8.03171V15.4045C18.4042 15.4457 18.3646 15.4869 18.3051 15.4869H0.614806C0.565226 15.4869 0.515639 15.4539 0.515639 15.4045V8.03171C0.515639 7.95757 0.446223 7.89993 0.356979 7.89993Z" fill="#41EFC9"/>
<path d="M0.713958 15.3304H-0.286042V16.3304H0.713958V15.3304ZM18.2059 15.3304V16.3304H19.2059V15.3304H18.2059ZM18.9198 15.6269H19.9198H18.9198ZM0.515639 8.03171H1.51564H0.515639ZM18.5629 14.9235H0.356979V16.9235H18.5629V14.9235ZM0.356979 14.9235C0.475836 14.9235 0.616536 14.9626 0.743106 15.0678C0.872797 15.1755 1 15.3698 1 15.6269H-1C-1 16.5096 -0.211973 16.9235 0.356979 16.9235V14.9235ZM1 15.6269V8.03171H-1V15.6269H1ZM1 8.03171C1 8.28885 0.872797 8.48314 0.743106 8.59088C0.616536 8.69602 0.475836 8.73517 0.356979 8.73517V6.73517C-0.211973 6.73517 -1 7.14905 -1 8.03171H1ZM0.356979 8.73517C0.238121 8.73517 0.0974216 8.69602 -0.029148 8.59088C-0.15884 8.48314 -0.286042 8.28885 -0.286042 8.03171H1.71396C1.71396 7.14905 0.925931 6.73517 0.356979 6.73517V8.73517ZM-0.286042 8.03171V15.3304H1.71396V8.03171H-0.286042ZM0.713958 16.3304H18.2059V14.3304H0.713958V16.3304ZM19.2059 15.3304V8.03171H17.2059V15.3304H19.2059ZM19.2059 8.03171C19.2059 8.28885 19.0787 8.48314 18.949 8.59088C18.8224 8.69602 18.6817 8.73517 18.5629 8.73517V6.73517C17.9939 6.73517 17.2059 7.14905 17.2059 8.03171H19.2059ZM18.5629 8.73517C18.444 8.73517 18.3033 8.69602 18.1767 8.59088C18.047 8.48314 17.9198 8.28885 17.9198 8.03171H19.9198C19.9198 7.14905 19.1318 6.73517 18.5629 6.73517V8.73517ZM17.9198 8.03171V15.6269H19.9198V8.03171H17.9198ZM17.9198 15.6269C17.9198 15.3567 18.0548 15.1679 18.1696 15.0707C18.2879 14.9705 18.4283 14.9235 18.5629 14.9235V16.9235C19.151 16.9235 19.9198 16.4853 19.9198 15.6269H17.9198ZM0.356979 6.89993C-0.102688 6.89993 -0.801682 7.23949 -0.801682 8.03171H1.19832C1.19832 8.67566 0.638157 8.89993 0.356979 8.89993V6.89993ZM-0.801682 8.03171V15.6269H1.19832V8.03171H-0.801682ZM-0.801682 15.6269C-0.801682 16.4191 -0.102688 16.7587 0.356979 16.7587V14.7587C0.638157 14.7587 1.19832 14.983 1.19832 15.6269H-0.801682ZM0.356979 16.7587H18.5629V14.7587H0.356979V16.7587ZM18.5629 16.7587C19.0225 16.7587 19.7215 16.4191 19.7215 15.6269H17.7215C17.7215 14.983 18.2817 14.7587 18.5629 14.7587V16.7587ZM19.7215 15.6269V8.03171H17.7215V15.6269H19.7215ZM19.7215 8.03171C19.7215 7.23949 19.0225 6.89993 18.5629 6.89993V8.89993C18.2817 8.89993 17.7215 8.67566 17.7215 8.03171H19.7215ZM18.5629 6.89993C18.1032 6.89993 17.4042 7.23949 17.4042 8.03171H19.4042C19.4042 8.67566 18.844 8.89993 18.5629 8.89993V6.89993ZM17.4042 8.03171V15.4045H19.4042V8.03171H17.4042ZM17.4042 15.4045C17.4042 14.7876 17.9243 14.4869 18.3051 14.4869V16.4869C18.8048 16.4869 19.4042 16.1037 19.4042 15.4045H17.4042ZM18.3051 14.4869H0.614806V16.4869H18.3051V14.4869ZM0.614806 14.4869C0.799312 14.4869 0.993055 14.5449 1.15955 14.6741C1.33677 14.8115 1.51564 15.0637 1.51564 15.4045H-0.484361C-0.484361 15.7947 -0.280696 16.0881 -0.0662894 16.2544C0.137394 16.4124 0.380719 16.4869 0.614806 16.4869V14.4869ZM1.51564 15.4045V8.03171H-0.484361V15.4045H1.51564ZM1.51564 8.03171C1.51564 7.23949 0.816646 6.89993 0.356979 6.89993V8.89993C0.0758008 8.89993 -0.484361 8.67566 -0.484361 8.03171H1.51564Z" fill="#12D1A7" mask="url(#path-3-inside-2_3508_15326)"/>
</g>
</g>
<g id="Group_3">
<g id="Group_4">
<g id="Vector_3">
<mask id="path-5-inside-3_3508_15326" fill="white">
<path d="M9.46095 12.1672C9.32213 12.1672 9.20312 12.0683 9.20312 11.953V0.296647C9.20312 0.181319 9.32213 0.0824585 9.46095 0.0824585C9.59978 0.0824585 9.71876 0.181319 9.71876 0.296647V11.953C9.71876 12.0766 9.59978 12.1672 9.46095 12.1672Z"/>
</mask>
<path d="M9.46095 12.1672C9.32213 12.1672 9.20312 12.0683 9.20312 11.953V0.296647C9.20312 0.181319 9.32213 0.0824585 9.46095 0.0824585C9.59978 0.0824585 9.71876 0.181319 9.71876 0.296647V11.953C9.71876 12.0766 9.59978 12.1672 9.46095 12.1672Z" fill="#41EFC9"/>
<path d="M9.46095 11.1672C9.62452 11.1672 9.78622 11.2238 9.91899 11.3341C10.0497 11.4427 10.2031 11.653 10.2031 11.953H8.20312C8.20312 12.7862 8.95144 13.1672 9.46095 13.1672V11.1672ZM10.2031 11.953V0.296647H8.20312V11.953H10.2031ZM10.2031 0.296647C10.2031 0.596672 10.0497 0.806931 9.91899 0.915504C9.78622 1.0258 9.62452 1.08246 9.46095 1.08246V-0.917542C8.95144 -0.917542 8.20312 -0.536546 8.20312 0.296647H10.2031ZM9.46095 1.08246C9.29738 1.08246 9.13566 1.02579 9.00288 0.915479C8.87217 0.806882 8.71876 0.596626 8.71876 0.296647H10.7188C10.7188 -0.536479 9.97055 -0.917542 9.46095 -0.917542V1.08246ZM8.71876 0.296647V11.953H10.7188V0.296647H8.71876ZM8.71876 11.953C8.71876 11.6696 8.86125 11.4517 9.01299 11.329C9.15733 11.2122 9.31936 11.1672 9.46095 11.1672V13.1672C9.94359 13.1672 10.7188 12.8165 10.7188 11.953H8.71876Z" fill="#12D1A7" mask="url(#path-5-inside-3_3508_15326)"/>
</g>
<g id="Vector_4">
<mask id="path-7-inside-4_3508_15326" fill="white">
<path d="M9.45854 12.2496C9.26022 12.2496 9.10156 12.1178 9.10156 11.953V0.296657C9.10156 0.131903 9.26022 6.10352e-05 9.45854 6.10352e-05C9.65686 6.10352e-05 9.81552 0.131903 9.81552 0.296657V11.953C9.81552 12.1178 9.64695 12.2496 9.45854 12.2496ZM9.45854 0.164826C9.3693 0.164826 9.29988 0.222518 9.29988 0.296657V11.953C9.29988 12.0271 9.3693 12.0848 9.45854 12.0848C9.54779 12.0848 9.61719 12.0271 9.61719 11.953V0.296657C9.61719 0.222518 9.54779 0.164826 9.45854 0.164826Z"/>
</mask>
<path d="M9.45854 12.2496C9.26022 12.2496 9.10156 12.1178 9.10156 11.953V0.296657C9.10156 0.131903 9.26022 6.10352e-05 9.45854 6.10352e-05C9.65686 6.10352e-05 9.81552 0.131903 9.81552 0.296657V11.953C9.81552 12.1178 9.64695 12.2496 9.45854 12.2496ZM9.45854 0.164826C9.3693 0.164826 9.29988 0.222518 9.29988 0.296657V11.953C9.29988 12.0271 9.3693 12.0848 9.45854 12.0848C9.54779 12.0848 9.61719 12.0271 9.61719 11.953V0.296657C9.61719 0.222518 9.54779 0.164826 9.45854 0.164826Z" fill="#41EFC9"/>
<path d="M9.81552 11.953H10.8155H9.81552ZM9.45854 11.2496C9.5775 11.2496 9.71822 11.2888 9.84476 11.3939C9.97439 11.5017 10.1016 11.6959 10.1016 11.953H8.10156C8.10156 12.8355 8.88935 13.2496 9.45854 13.2496V11.2496ZM10.1016 11.953V0.296657H8.10156V11.953H10.1016ZM10.1016 0.296657C10.1016 0.553754 9.97439 0.748005 9.84476 0.85572C9.71822 0.960861 9.5775 1.00006 9.45854 1.00006V-0.999939C8.88935 -0.999939 8.10156 -0.585815 8.10156 0.296657H10.1016ZM9.45854 1.00006C9.33959 1.00006 9.19886 0.960861 9.07233 0.85572C8.94269 0.748005 8.81552 0.553754 8.81552 0.296657H10.8155C10.8155 -0.585815 10.0277 -0.999939 9.45854 -0.999939V1.00006ZM8.81552 0.296657V11.953H10.8155V0.296657H8.81552ZM8.81552 11.953C8.81552 11.6754 8.95887 11.4833 9.07582 11.388C9.19138 11.2938 9.32615 11.2496 9.45854 11.2496V13.2496C9.99857 13.2496 10.8155 12.8513 10.8155 11.953H8.81552ZM9.45854 -0.835175C8.99834 -0.835175 8.29988 -0.495125 8.29988 0.296657H10.2999C10.2999 0.94016 9.74025 1.16483 9.45854 1.16483V-0.835175ZM8.29988 0.296657V11.953H10.2999V0.296657H8.29988ZM8.29988 11.953C8.29988 12.7448 8.99834 13.0848 9.45854 13.0848V11.0848C9.74025 11.0848 10.2999 11.3095 10.2999 11.953H8.29988ZM9.45854 13.0848C9.91888 13.0848 10.6172 12.7447 10.6172 11.953H8.61719C8.61719 11.3096 9.17669 11.0848 9.45854 11.0848V13.0848ZM10.6172 11.953V0.296657H8.61719V11.953H10.6172ZM10.6172 0.296657C10.6172 -0.495014 9.91888 -0.835175 9.45854 -0.835175V1.16483C9.17669 1.16483 8.61719 0.940049 8.61719 0.296657H10.6172Z" fill="#12D1A7" mask="url(#path-7-inside-4_3508_15326)"/>
</g>
</g>
<g id="Group_5">
<g id="Vector_5">
<mask id="path-9-inside-5_3508_15326" fill="white">
<path d="M9.46081 12.4967C9.38148 12.4967 9.30215 12.4637 9.25257 12.406L7.32885 10.1572C7.24952 10.0583 7.26935 9.92651 7.38834 9.85237C7.50733 9.78647 7.666 9.80295 7.75525 9.9018L9.47072 11.9036L11.1862 9.9018C11.2655 9.80295 11.4341 9.77823 11.5531 9.85237C11.6721 9.91828 11.7018 10.0583 11.6126 10.1572L9.68888 12.406C9.61946 12.4637 9.54014 12.4967 9.46081 12.4967Z"/>
</mask>
<path d="M9.46081 12.4967C9.38148 12.4967 9.30215 12.4637 9.25257 12.406L7.32885 10.1572C7.24952 10.0583 7.26935 9.92651 7.38834 9.85237C7.50733 9.78647 7.666 9.80295 7.75525 9.9018L9.47072 11.9036L11.1862 9.9018C11.2655 9.80295 11.4341 9.77823 11.5531 9.85237C11.6721 9.91828 11.7018 10.0583 11.6126 10.1572L9.68888 12.406C9.61946 12.4637 9.54014 12.4967 9.46081 12.4967Z" fill="#41EFC9"/>
<path d="M9.25257 12.406L8.49266 13.0561L8.49431 13.058L9.25257 12.406ZM7.32885 10.1572L6.54893 10.783L6.55875 10.7953L6.56894 10.8072L7.32885 10.1572ZM7.38834 9.85237L6.90385 8.97758L6.88136 8.99004L6.85953 9.00364L7.38834 9.85237ZM7.75525 9.9018L8.51456 9.25108L8.50616 9.24127L8.4975 9.23168L7.75525 9.9018ZM9.47072 11.9036L8.7114 12.5543L9.47072 13.4403L10.23 12.5543L9.47072 11.9036ZM11.1862 9.9018L11.9455 10.5525L11.956 10.5403L11.9661 10.5277L11.1862 9.9018ZM11.5531 9.85237L11.0243 10.7011L11.0461 10.7147L11.0686 10.7272L11.5531 9.85237ZM11.6126 10.1572L10.8703 9.48705L10.8614 9.49697L10.8527 9.50713L11.6126 10.1572ZM9.68888 12.406L10.3279 13.1752L10.3934 13.1208L10.4488 13.0561L9.68888 12.406ZM9.46081 11.4967C9.63633 11.4967 9.84783 11.5645 10.0108 11.7541L8.49431 13.058C8.75646 13.3629 9.12663 13.4967 9.46081 13.4967V11.4967ZM10.0125 11.756L8.08875 9.50713L6.56894 10.8072L8.49266 13.0561L10.0125 11.756ZM8.10877 9.53129C8.23492 9.68849 8.31428 9.92019 8.26812 10.1743C8.22178 10.4293 8.06791 10.6072 7.91716 10.7011L6.85953 9.00364C6.58979 9.1717 6.3665 9.45258 6.30033 9.81674C6.23434 10.18 6.34344 10.527 6.54893 10.783L8.10877 9.53129ZM7.87283 10.7272C7.7403 10.8006 7.59547 10.8247 7.45854 10.8075C7.32 10.7902 7.15041 10.7241 7.01299 10.5719L8.4975 9.23168C8.05155 8.73771 7.36762 8.72073 6.90385 8.97758L7.87283 10.7272ZM6.99593 10.5525L8.7114 12.5543L10.23 11.2528L8.51456 9.25108L6.99593 10.5525ZM10.23 12.5543L11.9455 10.5525L10.4269 9.25108L8.7114 11.2528L10.23 12.5543ZM11.9661 10.5277C11.8163 10.7144 11.6267 10.7841 11.4919 10.8028C11.3528 10.822 11.1843 10.8008 11.0243 10.7011L12.0819 9.00364C11.581 8.69156 10.8366 8.73969 10.4063 9.27592L11.9661 10.5277ZM11.0686 10.7272C10.8929 10.6299 10.7318 10.4449 10.6805 10.1891C10.6275 9.92516 10.7092 9.66553 10.8703 9.48705L12.3549 10.8273C12.6052 10.55 12.7167 10.1709 12.6414 9.79572C12.5678 9.42876 12.3322 9.14077 12.0376 8.97758L11.0686 10.7272ZM10.8527 9.50713L8.92897 11.756L10.4488 13.0561L12.3725 10.8072L10.8527 9.50713ZM9.04987 11.6368C9.119 11.5794 9.25847 11.4967 9.46081 11.4967V13.4967C9.82181 13.4967 10.1199 13.348 10.3279 13.1752L9.04987 11.6368Z" fill="#12D1A7" mask="url(#path-9-inside-5_3508_15326)"/>
</g>
<g id="Vector_6">
<mask id="path-11-inside-6_3508_15326" fill="white">
<path d="M9.45791 12.5791C9.33892 12.5791 9.22983 12.5297 9.17034 12.4555L7.24662 10.2066C7.18712 10.1407 7.16729 10.0666 7.18712 9.98422C7.20696 9.90184 7.25655 9.8359 7.33587 9.79472C7.49453 9.7041 7.7226 9.72883 7.83168 9.86063L9.46782 11.7635L11.104 9.86063C11.223 9.72883 11.4411 9.69586 11.5998 9.79472C11.6791 9.84414 11.7287 9.91008 11.7485 9.98422C11.7684 10.0584 11.7386 10.1407 11.689 10.2066L9.76531 12.4555C9.67606 12.5297 9.56699 12.5791 9.45791 12.5791ZM7.52427 9.90181C7.49452 9.90181 7.45486 9.91007 7.42512 9.92655C7.38545 9.95126 7.36561 9.97596 7.3557 10.0172C7.34578 10.0501 7.35569 10.0913 7.38544 10.116L9.30916 12.3649C9.36866 12.439 9.5174 12.439 9.5769 12.3649L11.5006 10.116C11.5304 10.083 11.5403 10.0501 11.5304 10.0172C11.5204 9.9842 11.5006 9.95126 11.4609 9.92655C11.3915 9.88536 11.2825 9.89358 11.2329 9.95948L9.51741 11.9612C9.47774 12.0024 9.39841 12.0024 9.35874 11.9612L7.64327 9.95948C7.62344 9.91829 7.57385 9.90181 7.52427 9.90181Z"/>
</mask>
<path d="M9.45791 12.5791C9.33892 12.5791 9.22983 12.5297 9.17034 12.4555L7.24662 10.2066C7.18712 10.1407 7.16729 10.0666 7.18712 9.98422C7.20696 9.90184 7.25655 9.8359 7.33587 9.79472C7.49453 9.7041 7.7226 9.72883 7.83168 9.86063L9.46782 11.7635L11.104 9.86063C11.223 9.72883 11.4411 9.69586 11.5998 9.79472C11.6791 9.84414 11.7287 9.91008 11.7485 9.98422C11.7684 10.0584 11.7386 10.1407 11.689 10.2066L9.76531 12.4555C9.67606 12.5297 9.56699 12.5791 9.45791 12.5791ZM7.52427 9.90181C7.49452 9.90181 7.45486 9.91007 7.42512 9.92655C7.38545 9.95126 7.36561 9.97596 7.3557 10.0172C7.34578 10.0501 7.35569 10.0913 7.38544 10.116L9.30916 12.3649C9.36866 12.439 9.5174 12.439 9.5769 12.3649L11.5006 10.116C11.5304 10.083 11.5403 10.0501 11.5304 10.0172C11.5204 9.9842 11.5006 9.95126 11.4609 9.92655C11.3915 9.88536 11.2825 9.89358 11.2329 9.95948L9.51741 11.9612C9.47774 12.0024 9.39841 12.0024 9.35874 11.9612L7.64327 9.95948C7.62344 9.91829 7.57385 9.90181 7.52427 9.90181Z" fill="#41EFC9"/>
<path d="M9.17034 12.4555L9.95026 11.8297L9.94044 11.8174L9.93025 11.8055L9.17034 12.4555ZM7.24662 10.2066L8.00653 9.55658L7.99784 9.54642L7.98888 9.53649L7.24662 10.2066ZM7.33587 9.79472L7.79668 10.6822L7.81444 10.673L7.83182 10.6631L7.33587 9.79472ZM7.83168 9.86063L7.06128 10.4982L7.06728 10.5054L7.07342 10.5126L7.83168 9.86063ZM9.46782 11.7635L8.70957 12.4155L9.46782 13.2974L10.2261 12.4155L9.46782 11.7635ZM11.104 9.86063L10.3617 9.19052L10.3536 9.1995L10.3457 9.20868L11.104 9.86063ZM11.689 10.2066L12.4489 10.8566L12.4693 10.8328L12.4881 10.8078L11.689 10.2066ZM9.76531 12.4555L10.4043 13.2247L10.4698 13.1703L10.5252 13.1056L9.76531 12.4555ZM7.42512 9.92655L6.94063 9.05175L6.91813 9.06421L6.8963 9.07781L7.42512 9.92655ZM7.3557 10.0172L8.31328 10.3053L8.32136 10.2785L8.32792 10.2512L7.3557 10.0172ZM7.38544 10.116L8.14535 9.46597L8.08998 9.40123L8.02445 9.3468L7.38544 10.116ZM9.30916 12.3649L10.0891 11.739L10.0793 11.7268L10.0691 11.7148L9.30916 12.3649ZM9.5769 12.3649L8.81699 11.7148L8.8068 11.7268L8.79698 11.739L9.5769 12.3649ZM11.5006 10.116L10.7584 9.44589L10.7494 9.45581L10.7407 9.46597L11.5006 10.116ZM11.4609 9.92655L11.9898 9.07781L11.9806 9.07208L11.9713 9.06656L11.4609 9.92655ZM11.2329 9.95948L11.9922 10.6102L12.0129 10.5861L12.032 10.5607L11.2329 9.95948ZM9.51741 11.9612L10.2377 12.6549L10.2578 12.634L10.2767 12.612L9.51741 11.9612ZM9.35874 11.9612L8.59943 12.612L8.61831 12.634L8.63843 12.6549L9.35874 11.9612ZM7.64327 9.95948L6.74227 10.3933L6.79895 10.511L6.88395 10.6102L7.64327 9.95948ZM9.45791 11.5791C9.53473 11.5791 9.61386 11.5946 9.69145 11.6284C9.7665 11.6612 9.86356 11.7216 9.95026 11.8297L8.39042 13.0814C8.6719 13.4322 9.09112 13.5791 9.45791 13.5791V11.5791ZM9.93025 11.8055L8.00653 9.55658L6.48671 10.8566L8.41042 13.1056L9.93025 11.8055ZM7.98888 9.53649C8.04853 9.60256 8.11613 9.70476 8.15315 9.84314C8.1907 9.98348 8.1843 10.1146 8.15935 10.2183L6.2149 9.75016C6.11351 10.1713 6.23634 10.5798 6.50436 10.8767L7.98888 9.53649ZM8.15935 10.2183C8.13858 10.3045 8.09763 10.399 8.02904 10.4873C7.96014 10.576 7.87762 10.6402 7.79668 10.6822L6.87507 8.90721C6.5337 9.08446 6.3012 9.39168 6.2149 9.75016L8.15935 10.2183ZM7.83182 10.6631C7.70542 10.7353 7.581 10.7494 7.47812 10.7365C7.37836 10.724 7.20521 10.6721 7.06128 10.4982L8.60208 9.22307C8.34906 8.91734 8.00735 8.78717 7.72662 8.75202C7.44277 8.71647 7.12498 8.76356 6.83993 8.92636L7.83182 10.6631ZM7.07342 10.5126L8.70957 12.4155L10.2261 11.1116L8.58993 9.20868L7.07342 10.5126ZM10.2261 12.4155L11.8622 10.5126L10.3457 9.20868L8.70957 11.1116L10.2261 12.4155ZM11.8462 10.5307C11.731 10.6584 11.5916 10.7155 11.4742 10.7317C11.3548 10.7483 11.2092 10.7296 11.071 10.6435L12.1286 8.94598C11.5618 8.59286 10.8076 8.69667 10.3617 9.19052L11.8462 10.5307ZM11.071 10.6435C10.9634 10.5764 10.8364 10.4442 10.7825 10.2426L12.7146 9.72581C12.621 9.37596 12.3948 9.11185 12.1286 8.94598L11.071 10.6435ZM10.7825 10.2426C10.7353 10.0664 10.7565 9.91524 10.7851 9.81745C10.8133 9.72104 10.8553 9.65144 10.8899 9.60541L12.4881 10.8078C12.6317 10.6169 12.846 10.2173 12.7146 9.72581L10.7825 10.2426ZM10.9291 9.55658L9.00539 11.8055L10.5252 13.1056L12.4489 10.8566L10.9291 9.55658ZM9.1263 11.6863C9.15009 11.6666 9.18546 11.6424 9.23556 11.6216C9.28585 11.6007 9.36153 11.5791 9.45791 11.5791V13.5791C9.86262 13.5791 10.1901 13.4027 10.4043 13.2247L9.1263 11.6863ZM7.52427 8.90181C7.35287 8.90181 7.14124 8.94064 6.94063 9.05175L7.9096 10.8013C7.82758 10.8468 7.75547 10.8691 7.70598 10.8809C7.65564 10.8929 7.59518 10.9018 7.52427 10.9018V8.90181ZM6.8963 9.07781C6.81534 9.12826 6.69613 9.21449 6.5885 9.35353C6.4752 9.49989 6.41498 9.65222 6.38347 9.78309L8.32792 10.2512C8.30633 10.3409 8.26098 10.4603 8.17 10.5778C8.08468 10.688 7.99523 10.7496 7.95393 10.7753L6.8963 9.07781ZM6.39812 9.72898C6.28027 10.1206 6.38766 10.5872 6.74643 10.8852L8.02445 9.3468C8.32373 9.59542 8.41129 9.97961 8.31328 10.3053L6.39812 9.72898ZM6.62554 10.766L8.54925 13.0149L10.0691 11.7148L8.14535 9.46597L6.62554 10.766ZM8.52924 12.9908C8.80709 13.337 9.19505 13.4205 9.44303 13.4205C9.69101 13.4205 10.079 13.337 10.3568 12.9908L8.79698 11.739C9.01533 11.4669 9.29917 11.4205 9.44303 11.4205C9.58689 11.4205 9.87073 11.4669 10.0891 11.739L8.52924 12.9908ZM10.3368 13.0149L12.2605 10.766L10.7407 9.46597L8.81699 11.7148L10.3368 13.0149ZM12.2429 10.7861C12.4294 10.5795 12.6281 10.1948 12.4879 9.72898L10.5728 10.3053C10.5212 10.1339 10.5212 9.9499 10.5728 9.77841C10.621 9.61832 10.7018 9.50853 10.7584 9.44589L12.2429 10.7861ZM12.4879 9.72898C12.4196 9.50185 12.2675 9.25088 11.9898 9.07781L10.9321 10.7753C10.8428 10.7196 10.7617 10.645 10.6962 10.5544C10.6321 10.4656 10.5946 10.3777 10.5728 10.3053L12.4879 9.72898ZM11.9713 9.06656C11.7263 8.92121 11.4553 8.88129 11.2183 8.91022C10.9808 8.93921 10.6621 9.05474 10.4338 9.35829L12.032 10.5607C11.8532 10.7983 11.6138 10.8768 11.4606 10.8955C11.3079 10.9141 11.1262 10.8907 10.9506 10.7865L11.9713 9.06656ZM10.4736 9.30876L8.75809 11.3105L10.2767 12.612L11.9922 10.6102L10.4736 9.30876ZM8.79709 11.2676C9.00504 11.0516 9.25844 10.9921 9.43807 10.9921C9.61771 10.9921 9.87111 11.0516 10.0791 11.2676L8.63843 12.6549C8.88605 12.912 9.19894 12.9921 9.43807 12.9921C9.67721 12.9921 9.9901 12.912 10.2377 12.6549L8.79709 11.2676ZM10.1181 11.3105L8.40259 9.30876L6.88395 10.6102L8.59943 12.612L10.1181 11.3105ZM8.54427 9.52565C8.26961 8.95524 7.70095 8.90181 7.52427 8.90181V10.9018C7.44767 10.9018 7.32828 10.8904 7.19232 10.8306C7.04866 10.7674 6.85858 10.6349 6.74227 10.3933L8.54427 9.52565Z" fill="#12D1A7" mask="url(#path-11-inside-6_3508_15326)"/>
</g>
</g>
</g>
</g>
</g>
</svg>
