<svg width="12" height="17" viewBox="0 0 12 17" fill="none" xmlns="http://www.w3.org/2000/svg">
<g id="Vector" filter="url(#filter0_d_2820_4789)">
<path d="M3 14.1964C3 13.9849 3.09278 13.7735 3.27354 13.6228L8.9844 8.86952L3.27355 4.11622C2.94081 3.8393 2.90722 3.35849 3.19836 3.04201C3.4895 2.72553 3.995 2.69358 4.32773 2.9705L10.7265 8.2959C10.8992 8.44045 11 8.6489 11 8.868C11 9.0871 10.9008 9.29555 10.7265 9.4401L4.32773 14.7655C3.995 15.0424 3.4895 15.0105 3.19836 14.694C3.06559 14.5494 3 14.3714 3 14.1934L3 14.1964Z" fill="white"/>
</g>
<defs>
<filter id="filter0_d_2820_4789" x="0" y="0.782043" width="12" height="16.1719" filterUnits="userSpaceOnUse" color-interpolation-filters="sRGB">
<feFlood flood-opacity="0" result="BackgroundImageFix"/>
<feColorMatrix in="SourceAlpha" type="matrix" values="0 0 0 0 0 0 0 0 0 0 0 0 0 0 0 0 0 0 127 0" result="hardAlpha"/>
<feOffset dx="-1"/>
<feGaussianBlur stdDeviation="1"/>
<feComposite in2="hardAlpha" operator="out"/>
<feColorMatrix type="matrix" values="0 0 0 0 0 0 0 0 0 0 0 0 0 0 0 0 0 0 0.25 0"/>
<feBlend mode="normal" in2="BackgroundImageFix" result="effect1_dropShadow_2820_4789"/>
<feBlend mode="normal" in="SourceGraphic" in2="effect1_dropShadow_2820_4789" result="shape"/>
</filter>
</defs>
</svg>
