<svg width="38" height="26" viewBox="0 0 38 26" fill="none" xmlns="http://www.w3.org/2000/svg">
<path d="M18.3286 15.3746C13.3399 15.3746 8.21252 15.3746 3.22375 15.3746C2.80802 15.3746 1.97656 15.642 1.97656 14.8397C1.97656 14.1711 2.80802 14.3049 3.22375 14.3049C13.2013 14.3049 23.3174 14.3049 33.2949 14.3049C33.8492 14.3049 34.6807 14.1711 34.6807 14.8397C34.6807 15.5083 33.8492 15.3746 33.4335 15.3746C28.4447 15.3746 23.456 15.3746 18.3286 15.3746Z" fill="#3F504C"/>
<path d="M29.2764 8.42254C29.2764 6.95196 29.2764 5.48137 29.2764 4.01078C29.2764 3.07495 29.8307 3.07495 30.5236 3.07495C31.2164 3.07495 31.7707 3.07495 31.7707 4.01078C31.7707 6.95196 31.7707 9.89313 31.7707 12.8343C31.7707 13.6364 31.2164 13.7701 30.5236 13.7701C29.8307 13.7701 29.2764 13.6364 29.2764 12.8343C29.2764 11.3637 29.2764 9.89313 29.2764 8.42254Z" fill="#3F504C"/>
<path d="M5.16406 8.42254C5.16406 6.95196 5.16406 5.48137 5.16406 4.01078C5.16406 3.07495 5.71837 3.07495 6.41125 3.07495C7.10414 3.07495 7.65844 3.07495 7.65844 4.01078C7.65844 6.95196 7.65844 9.89313 7.65844 12.8343C7.65844 13.7701 7.10414 13.7701 6.41125 13.7701C5.71837 13.7701 5.16406 13.6364 5.16406 12.8343C5.16406 11.3637 5.16406 9.89313 5.16406 8.42254Z" fill="#3F504C"/>
<path d="M26.7822 8.42254C26.7822 6.95196 26.7822 5.48137 26.7822 4.01078C26.7822 3.47602 26.9208 3.07495 27.6137 3.07495C28.3066 3.07495 28.5837 3.34233 28.5837 4.01078C28.5837 6.95196 28.5837 9.89313 28.5837 12.8343C28.5837 13.5028 28.3066 13.6364 27.6137 13.6364C26.9208 13.6364 26.7822 13.2354 26.7822 12.7006C26.7822 11.3637 26.7822 9.89313 26.7822 8.42254Z" fill="#3F504C"/>
<path d="M9.87581 8.55624C9.87581 10.0268 9.87581 11.4974 9.87581 12.968C9.87581 13.5028 9.73723 13.9038 9.04435 13.9038C8.35147 13.7701 8.21289 13.5028 8.21289 12.8343C8.21289 9.89313 8.21289 6.95196 8.21289 4.01078C8.21289 3.47602 8.35147 3.07495 9.04435 3.07495C9.73723 3.07495 9.87581 3.47602 9.87581 4.01078C9.87581 5.48137 9.87581 7.08565 9.87581 8.55624Z" fill="#3F504C"/>
<path d="M21.1004 8.42254C21.1004 9.89313 21.1004 11.3637 21.1004 12.8343C21.1004 13.3691 20.9618 13.7701 20.269 13.7701C19.5761 13.7701 19.4375 13.3691 19.4375 12.8343C19.4375 9.89313 19.4375 6.95196 19.4375 4.01078C19.4375 3.47602 19.5761 3.07495 20.1304 3.07495C20.8233 3.07495 20.9618 3.34233 20.9618 4.01078C21.1004 5.48137 21.1004 6.95196 21.1004 8.42254Z" fill="#3F504C"/>
<path d="M15.6962 8.42254C15.6962 6.95196 15.6962 5.48137 15.6962 4.01078C15.6962 3.47602 15.6962 3.07495 16.3891 3.07495C17.082 3.07495 17.2205 3.34233 17.2205 4.01078C17.2205 6.95196 17.2205 9.89313 17.2205 12.8343C17.2205 13.3691 17.082 13.7701 16.3891 13.7701C15.6962 13.7701 15.5576 13.3691 15.5576 12.8343C15.6962 11.3637 15.6962 9.89313 15.6962 8.42254Z" fill="#3F504C"/>
<path d="M3.22438 0.133667C4.05584 0.133667 4.74872 0.133667 5.58018 0.133667C5.99591 0.133667 6.41164 0.267357 6.41164 0.802116C6.27306 1.33688 5.99591 1.47057 5.4416 1.47057C4.74872 1.47057 4.05584 1.47057 3.36295 1.47057C1.14572 1.47057 1.42288 1.20319 1.2843 3.47591C1.2843 4.14436 1.2843 4.81281 1.2843 5.48126C1.2843 5.88233 1.14572 6.2834 0.591416 6.2834C0.0371094 6.2834 0.0371094 5.88233 0.0371094 5.48126C0.0371094 4.01067 0.0371094 2.54008 0.0371094 1.0695C0.0371094 0.401047 0.314263 0.133667 1.00715 0.133667C1.70003 0.133667 2.39291 0.133667 3.22438 0.133667Z" fill="#3F504C"/>
<path d="M37.0367 3.20856C37.0367 4.01069 37.0367 4.81283 37.0367 5.48128C37.0367 5.88235 36.8982 6.28342 36.3439 6.14973C35.7895 6.14973 35.651 5.88235 35.651 5.34759C35.651 4.27807 35.651 3.20856 35.651 2.13904C35.651 1.47059 35.3738 1.20321 34.8195 1.3369C33.7109 1.3369 32.7409 1.3369 31.6322 1.3369C31.0779 1.3369 30.8008 1.20321 30.8008 0.668449C30.8008 0 31.2165 0 31.7708 0C33.2952 0 34.6809 0 36.2053 0C36.7596 0 37.1753 0.26738 37.1753 0.935829C36.8982 1.73797 37.0367 2.54011 37.0367 3.20856Z" fill="#3F504C"/>
<path d="M0.0366484 21.9251C0.0366484 21.2567 0.0366484 20.7219 0.0366484 20.0535C0.0366484 19.6524 -0.240505 18.8503 0.729532 18.984C1.56099 18.984 1.28384 19.6524 1.42242 20.1872C1.42242 20.9893 1.42242 21.9251 1.42242 22.7273C1.42242 23.5294 1.69957 23.7968 2.53103 23.7968C3.50107 23.7968 4.47111 23.7968 5.57972 23.7968C6.13403 23.7968 6.41118 23.9305 6.41118 24.4653C6.41118 25 5.99545 25.1337 5.57972 25.1337C4.05537 25.1337 2.53103 25.1337 1.00669 25.1337C0.313802 25.1337 0.0366484 24.8663 0.0366484 24.1979C0.0366484 23.3957 0.0366484 22.7273 0.0366484 21.9251Z" fill="#3F504C"/>
<path d="M37.0367 22.0589C37.0367 22.861 37.0367 23.6631 37.0367 24.3316C37.0367 24.8663 36.7596 25.1337 36.3439 25.1337C34.6809 25.1337 33.1566 25.1337 31.4937 25.1337C31.0779 25.1337 30.8008 24.8663 30.8008 24.4653C30.8008 23.9305 31.0779 23.7968 31.4937 23.7968C32.6023 23.7968 33.5723 23.7968 34.6809 23.7968C35.3738 23.7968 35.7895 23.5294 35.7895 22.861C35.7895 21.9252 35.7895 20.9893 35.7895 20.1872C35.7895 19.7861 35.651 19.1177 36.4824 19.1177C37.3139 19.1177 37.0367 19.7861 37.0367 20.1872C37.0367 20.722 37.0367 21.3904 37.0367 22.0589Z" fill="#3F504C"/>
<path d="M7.51987 19.1177C7.51987 19.9198 7.51987 20.5883 7.51987 21.3904C7.51987 22.3263 6.82698 22.1926 6.27268 22.1926C5.71837 22.1926 5.16406 22.1926 5.16406 21.3904C5.16406 19.9198 5.16406 18.4493 5.16406 16.9787C5.16406 16.0428 5.71837 16.1765 6.41125 16.1765C7.10414 16.1765 7.65844 16.1765 7.51987 16.9787C7.51987 17.5134 7.51987 18.3156 7.51987 19.1177Z" fill="#3F504C"/>
<path d="M31.6322 19.1176C31.6322 19.9198 31.6322 20.5882 31.6322 21.3903C31.6322 22.3262 30.9393 22.0588 30.385 22.0588C29.8307 22.0588 29.2764 22.0588 29.2764 21.2567C29.2764 19.7861 29.2764 18.1818 29.2764 16.7112C29.2764 15.7754 29.9693 15.9091 30.5236 15.9091C31.0779 15.9091 31.6322 15.9091 31.6322 16.7112C31.6322 17.5133 31.6322 18.3155 31.6322 19.1176Z" fill="#3F504C"/>
<path d="M18.883 8.55621C18.883 10.0268 18.883 11.4974 18.883 12.968C18.883 13.369 18.883 13.7701 18.3287 13.7701C17.7744 13.7701 17.7744 13.369 17.7744 12.968C17.7744 10.0268 17.7744 6.95193 17.7744 4.01076C17.7744 3.60969 17.7744 3.20862 18.3287 3.20862C18.883 3.20862 18.883 3.60969 18.883 4.01076C18.883 5.48135 18.883 7.08562 18.883 8.55621Z" fill="#3F504C"/>
<path d="M13.4787 8.55621C13.4787 10.0268 13.4787 11.4974 13.4787 12.968C13.4787 13.369 13.4787 13.7701 12.9244 13.7701C12.3701 13.7701 12.3701 13.369 12.3701 12.968C12.3701 10.0268 12.3701 6.95193 12.3701 4.01076C12.3701 3.60969 12.3701 3.20862 12.9244 3.20862C13.6173 3.20862 13.4787 3.74338 13.4787 4.01076C13.4787 5.61504 13.4787 7.08562 13.4787 8.55621Z" fill="#3F504C"/>
<path d="M24.426 8.55613C24.426 10.0267 24.426 11.4973 24.426 12.9679C24.426 13.369 24.426 13.9037 23.8717 13.9037C23.3174 13.9037 23.3174 13.369 23.3174 12.9679C23.3174 10.0267 23.3174 7.08554 23.3174 4.14437C23.3174 3.7433 23.3174 3.20854 23.8717 3.34223C24.426 3.34223 24.426 3.87699 24.426 4.27806C24.426 5.61495 24.426 7.08554 24.426 8.55613Z" fill="#3F504C"/>
<path d="M11.677 8.55619C11.677 10.0268 11.677 11.4974 11.677 12.968C11.677 13.369 11.677 13.9038 11.1227 13.9038C10.5684 13.9038 10.5684 13.369 10.5684 12.968C10.5684 10.0268 10.5684 7.21929 10.5684 4.27811C10.5684 4.14442 10.5684 4.14442 10.5684 4.01073C10.5684 3.60966 10.7069 3.34229 11.1227 3.34229C11.5384 3.34229 11.5384 3.74335 11.5384 4.01073C11.677 5.48132 11.677 6.95191 11.677 8.55619Z" fill="#3F504C"/>
<path d="M26.2278 8.42252C26.2278 9.89311 26.2278 11.3637 26.2278 12.8343C26.2278 13.2354 26.2278 13.7701 25.6734 13.7701C25.1191 13.7701 25.1191 13.2354 25.1191 12.8343C25.1191 9.89311 25.1191 7.08562 25.1191 4.14445C25.1191 4.01076 25.1191 4.01076 25.1191 3.87707C25.1191 3.476 25.2577 3.20862 25.6734 3.20862C26.0892 3.20862 26.0892 3.60969 26.0892 3.87707C26.2278 5.34766 26.2278 6.95193 26.2278 8.42252Z" fill="#3F504C"/>
<path d="M26.7822 18.984C26.7822 18.3156 26.7822 17.5134 26.7822 16.845C26.7822 16.3102 27.0594 16.0428 27.6137 16.0428C28.168 16.0428 28.5837 16.1765 28.5837 16.845C28.5837 18.3156 28.5837 19.9199 28.5837 21.3904C28.5837 21.9252 28.3066 22.1926 27.6137 22.1926C27.0594 22.1926 26.7822 21.9252 26.7822 21.3904C26.9208 20.4546 26.7822 19.6525 26.7822 18.984Z" fill="#3F504C"/>
<path d="M9.87581 19.1177C9.87581 19.9199 9.87581 20.5883 9.87581 21.3904C9.87581 21.9252 9.59866 22.1926 9.04435 22.1926C8.49004 22.1926 8.21289 22.0589 8.21289 21.3904C8.21289 19.7862 8.21289 18.3156 8.21289 16.7113C8.21289 16.1765 8.49004 16.0428 9.04435 16.0428C9.59866 16.0428 9.87581 16.1765 9.87581 16.7113C9.87581 17.5134 9.87581 18.3156 9.87581 19.1177Z" fill="#3F504C"/>
<path d="M17.2206 19.1177C17.2206 19.9198 17.2206 20.5883 17.2206 21.3904C17.2206 21.9252 16.9435 22.1926 16.3892 22.1926C15.8349 22.1926 15.6963 21.9252 15.6963 21.3904C15.6963 19.9198 15.6963 18.4492 15.6963 16.9787C15.6963 16.4439 15.8349 16.1765 16.3892 16.1765C16.9435 16.1765 17.2206 16.4439 17.2206 16.9787C17.2206 17.5134 17.2206 18.3156 17.2206 19.1177Z" fill="#3F504C"/>
<path d="M19.5762 18.984C19.5762 18.1819 19.5762 17.5134 19.5762 16.7113C19.5762 16.1765 19.8533 16.0428 20.4076 16.0428C20.8234 16.0428 21.2391 16.1765 21.2391 16.7113C21.2391 18.3156 21.2391 19.9199 21.2391 21.5241C21.2391 22.0589 20.8234 22.1926 20.4076 22.1926C19.8533 22.1926 19.5762 22.0589 19.5762 21.5241C19.5762 20.5883 19.5762 19.7862 19.5762 18.984Z" fill="#3F504C"/>
<path d="M33.0181 8.55619C33.0181 10.0268 33.0181 11.4974 33.0181 12.968C33.0181 13.2353 33.0181 13.6364 32.7409 13.6364C32.3252 13.6364 32.3252 13.2353 32.3252 12.968C32.3252 10.0268 32.3252 6.95191 32.3252 4.01073C32.3252 3.74335 32.3252 3.34229 32.6023 3.34229C33.0181 3.34229 33.0181 3.74335 33.0181 4.01073C33.0181 5.48132 33.0181 6.95191 33.0181 8.55619Z" fill="#3F504C"/>
<path d="M3.77803 8.42252C3.77803 6.95193 3.77803 5.48135 3.77803 4.01076C3.77803 3.74338 3.63945 3.20862 4.05519 3.20862C4.60949 3.20862 4.47092 3.74338 4.47092 4.01076C4.47092 6.95193 4.47092 9.89311 4.47092 12.8343C4.47092 13.1017 4.47092 13.5027 4.19376 13.5027C3.63945 13.5027 3.77803 13.1017 3.77803 12.8343C3.77803 11.4974 3.77803 9.89311 3.77803 8.42252Z" fill="#3F504C"/>
<path d="M18.883 18.984C18.883 19.7861 18.883 20.4546 18.883 21.2567C18.883 21.6578 18.883 22.0589 18.3287 22.0589C17.7744 22.0589 17.7744 21.6578 17.7744 21.3904C17.7744 19.9198 17.7744 18.3156 17.7744 16.845C17.7744 16.4439 17.913 16.1765 18.3287 16.1765C18.883 16.1765 18.883 16.5776 18.883 16.845C18.883 17.5134 18.883 18.3156 18.883 18.984Z" fill="#3F504C"/>
<path d="M24.426 18.984C24.426 19.7862 24.426 20.4546 24.426 21.2568C24.426 21.6578 24.2874 21.9252 23.8717 21.9252C23.3174 21.9252 23.3174 21.5241 23.3174 21.2568C23.3174 19.7862 23.3174 18.1819 23.3174 16.7113C23.3174 16.3102 23.456 16.0428 23.8717 16.0428C24.426 16.0428 24.426 16.4439 24.426 16.7113C24.426 17.5134 24.426 18.3156 24.426 18.984Z" fill="#3F504C"/>
<path d="M11.677 18.9839C11.677 19.7861 11.677 20.5882 11.677 21.2567C11.677 21.524 11.677 21.9251 11.1227 21.9251C10.5684 21.9251 10.5684 21.6577 10.5684 21.2567C10.5684 19.6524 10.5684 18.1818 10.5684 16.5775C10.5684 16.1764 10.7069 15.9091 11.1227 15.9091C11.5384 15.9091 11.5384 16.3101 11.5384 16.5775C11.677 17.5133 11.677 18.3155 11.677 18.9839Z" fill="#3F504C"/>
<path d="M13.4787 18.984C13.4787 19.7862 13.4787 20.4546 13.4787 21.2568C13.4787 21.6578 13.4787 21.9252 12.9244 22.0589C12.3701 22.0589 12.3701 21.6578 12.3701 21.2568C12.3701 19.7862 12.3701 18.1819 12.3701 16.7113C12.3701 16.3102 12.5087 16.0428 12.9244 16.0428C13.4787 16.0428 13.4787 16.4439 13.4787 16.7113C13.4787 17.5134 13.4787 18.3156 13.4787 18.984Z" fill="#3F504C"/>
<path d="M26.2278 18.9839C26.2278 19.7861 26.2278 20.4545 26.2278 21.2567C26.2278 21.524 26.2278 21.9251 25.8121 21.9251C25.2578 21.9251 25.2578 21.6577 25.2578 21.2567C25.2578 19.6524 25.2578 18.1818 25.2578 16.5775C25.2578 16.3101 25.3964 15.9091 25.8121 15.9091C26.3664 15.9091 26.3664 16.3101 26.3664 16.5775C26.2278 17.5133 26.2278 18.3155 26.2278 18.9839Z" fill="#3F504C"/>
<path d="M14.8646 8.4225C14.8646 9.89309 14.8646 11.4974 14.8646 12.968C14.8646 13.2353 15.0031 13.5027 14.5874 13.6364C14.1717 13.6364 14.3103 13.2353 14.3103 13.1016C14.3103 10.0268 14.3103 6.95191 14.3103 4.01073C14.3103 3.74335 14.3103 3.34229 14.5874 3.34229C15.0031 3.34229 14.8646 3.74335 14.8646 4.01073C14.8646 5.48132 14.8646 6.95191 14.8646 8.4225Z" fill="#3F504C"/>
<path d="M22.4859 8.42252C22.4859 9.89311 22.4859 11.4974 22.4859 12.968C22.4859 13.2354 22.6244 13.6364 22.2087 13.6364C21.793 13.6364 21.793 13.2354 21.793 12.968C21.793 9.89311 21.793 6.95193 21.793 3.87707C21.793 3.60969 21.793 3.20862 22.0701 3.20862C22.4859 3.20862 22.3473 3.60969 22.3473 3.87707C22.4859 5.48135 22.4859 6.95193 22.4859 8.42252Z" fill="#3F504C"/>
<path d="M33.0181 18.984C33.0181 19.7861 33.0181 20.5883 33.0181 21.3904C33.0181 21.6578 33.0181 21.9252 32.7409 21.9252C32.3252 21.9252 32.3252 21.6578 32.3252 21.3904C32.3252 19.7861 32.3252 18.3156 32.3252 16.7113C32.3252 16.4439 32.3252 16.1765 32.6023 16.1765C33.0181 16.1765 33.0181 16.5776 33.0181 16.845C33.0181 17.5134 33.0181 18.1819 33.0181 18.984Z" fill="#3F504C"/>
<path d="M4.4712 19.1177C4.4712 19.9199 4.4712 20.722 4.4712 21.3904C4.4712 21.6578 4.4712 21.9252 4.05547 21.9252C3.77832 21.9252 3.77832 21.6578 3.77832 21.3904C3.77832 19.7862 3.77832 18.1819 3.77832 16.5776C3.77832 16.3102 3.77832 16.0428 4.05547 16.0428C4.33263 16.0428 4.4712 16.3102 4.4712 16.5776C4.4712 17.3797 4.4712 18.1819 4.4712 19.1177Z" fill="#3F504C"/>
<path d="M14.8639 19.1177C14.8639 19.9198 14.8639 20.722 14.8639 21.3904C14.8639 21.6578 14.8639 21.9252 14.5867 21.9252C14.3096 21.9252 14.3096 21.6578 14.3096 21.3904C14.3096 19.7861 14.3096 18.3156 14.3096 16.7113C14.3096 16.4439 14.3096 16.1765 14.5867 16.1765C15.0025 16.1765 14.8639 16.5776 14.8639 16.7113C14.8639 17.5134 14.8639 18.3156 14.8639 19.1177Z" fill="#3F504C"/>
<path d="M22.4859 18.984C22.4859 19.7861 22.4859 20.5883 22.4859 21.5241C22.4859 21.6578 22.4859 21.9252 22.2088 21.9252C21.9316 21.9252 21.9316 21.6578 21.9316 21.5241C21.9316 19.9198 21.9316 18.3156 21.9316 16.7113C21.9316 16.4439 21.9316 16.1765 22.3474 16.1765C22.6245 16.1765 22.6245 16.4439 22.6245 16.7113C22.4859 17.3797 22.4859 18.1819 22.4859 18.984Z" fill="#3F504C"/>
</svg>
