<?xml version="1.0" encoding="UTF-8" standalone="no"?>
<svg
   width="37.175301"
   height="25.133699"
   viewBox="0 0 37.175301 25.133699"
   fill="none"
   version="1.1"
   id="svg72"
   sodipodi:docname="dc95349c453c6b4a279f24e1b950d39b.svg"
   xmlns:inkscape="http://www.inkscape.org/namespaces/inkscape"
   xmlns:sodipodi="http://sodipodi.sourceforge.net/DTD/sodipodi-0.dtd"
   xmlns="http://www.w3.org/2000/svg"
   xmlns:svg="http://www.w3.org/2000/svg">
  <defs
     id="defs76" />
  <sodipodi:namedview
     id="namedview74"
     pagecolor="#ffffff"
     bordercolor="#666666"
     borderopacity="1.0"
     inkscape:pageshadow="2"
     inkscape:pageopacity="0.0"
     inkscape:pagecheckerboard="0" />
  <path
     d="m 18.3286,15.3746 c -4.9887,0 -10.11608,0 -15.10485,0 -0.41573,0 -1.24719,0.2674 -1.24719,-0.5349 0,-0.6686 0.83146,-0.5348 1.24719,-0.5348 9.97755,0 20.09365,0 30.07115,0 0.5543,0 1.3858,-0.1338 1.3858,0.5348 0,0.6686 -0.8315,0.5349 -1.2472,0.5349 -4.9888,0 -9.9775,0 -15.1049,0 z"
     fill="#3f504c"
     id="path2" />
  <path
     d="m 29.2764,8.42254 c 0,-1.47058 0,-2.94117 0,-4.41176 0,-0.93583 0.5543,-0.93583 1.2472,-0.93583 0.6928,0 1.2471,0 1.2471,0.93583 0,2.94118 0,5.88235 0,8.82352 0,0.8021 -0.5543,0.9358 -1.2471,0.9358 -0.6929,0 -1.2472,-0.1337 -1.2472,-0.9358 0,-1.4706 0,-2.94117 0,-4.41176 z"
     fill="#3f504c"
     id="path4" />
  <path
     d="m 5.16406,8.42254 c 0,-1.47058 0,-2.94117 0,-4.41176 0,-0.93583 0.55431,-0.93583 1.24719,-0.93583 0.69289,0 1.24719,0 1.24719,0.93583 0,2.94118 0,5.88235 0,8.82352 0,0.9358 -0.5543,0.9358 -1.24719,0.9358 -0.69288,0 -1.24719,-0.1337 -1.24719,-0.9358 0,-1.4706 0,-2.94117 0,-4.41176 z"
     fill="#3f504c"
     id="path6" />
  <path
     d="m 26.7822,8.42254 c 0,-1.47058 0,-2.94117 0,-4.41176 0,-0.53476 0.1386,-0.93583 0.8315,-0.93583 0.6929,0 0.97,0.26738 0.97,0.93583 0,2.94118 0,5.88235 0,8.82352 0,0.6685 -0.2771,0.8021 -0.97,0.8021 -0.6929,0 -0.8315,-0.401 -0.8315,-0.9358 0,-1.3369 0,-2.80747 0,-4.27806 z"
     fill="#3f504c"
     id="path8" />
  <path
     d="m 9.87581,8.55624 c 0,1.47056 0,2.94116 0,4.41176 0,0.5348 -0.13858,0.9358 -0.83146,0.9358 -0.69288,-0.1337 -0.83146,-0.401 -0.83146,-1.0695 0,-2.94117 0,-5.88234 0,-8.82352 0,-0.53476 0.13858,-0.93583 0.83146,-0.93583 0.69288,0 0.83146,0.40107 0.83146,0.93583 0,1.47059 0,3.07487 0,4.54546 z"
     fill="#3f504c"
     id="path10" />
  <path
     d="m 21.1004,8.42254 c 0,1.47059 0,2.94116 0,4.41176 0,0.5348 -0.1386,0.9358 -0.8314,0.9358 -0.6929,0 -0.8315,-0.401 -0.8315,-0.9358 0,-2.94117 0,-5.88234 0,-8.82352 0,-0.53476 0.1386,-0.93583 0.6929,-0.93583 0.6929,0 0.8314,0.26738 0.8314,0.93583 0.1386,1.47059 0.1386,2.94118 0.1386,4.41176 z"
     fill="#3f504c"
     id="path12" />
  <path
     d="m 15.6962,8.42254 c 0,-1.47058 0,-2.94117 0,-4.41176 0,-0.53476 0,-0.93583 0.6929,-0.93583 0.6929,0 0.8314,0.26738 0.8314,0.93583 0,2.94118 0,5.88235 0,8.82352 0,0.5348 -0.1385,0.9358 -0.8314,0.9358 -0.6929,0 -0.8315,-0.401 -0.8315,-0.9358 0.1386,-1.4706 0.1386,-2.94117 0.1386,-4.41176 z"
     fill="#3f504c"
     id="path14" />
  <path
     d="m 3.22438,0.133667 c 0.83146,0 1.52434,0 2.3558,0 0.41573,0 0.83146,0.13369 0.83146,0.668449 C 6.27306,1.33688 5.99591,1.47057 5.4416,1.47057 c -0.69288,0 -1.38576,0 -2.07865,0 -2.21723,0 -1.94007,-0.26738 -2.07865,2.00534 0,0.66845 0,1.3369 0,2.00535 0,0.40107 -0.13858,0.80214 -0.69288402,0.80214 -0.5543066,0 -0.5543066,-0.40107 -0.5543066,-0.80214 0,-1.47059 0,-2.94118 0,-4.41176 0,-0.668453 0.2771536,-0.935833 0.97004062,-0.935833 0.69288,0 1.38576,0 2.21723,0 z"
     fill="#3f504c"
     id="path16" />
  <path
     d="m 37.0367,3.20856 c 0,0.80213 0,1.60427 0,2.27272 0,0.40107 -0.1385,0.80214 -0.6928,0.66845 -0.5544,0 -0.6929,-0.26738 -0.6929,-0.80214 0,-1.06952 0,-2.13903 0,-3.20855 0,-0.66845 -0.2772,-0.93583 -0.8315,-0.80214 -1.1086,0 -2.0786,0 -3.1873,0 -0.5543,0 -0.8314,-0.13369 -0.8314,-0.668451 C 30.8008,0 31.2165,0 31.7708,0 c 1.5244,0 2.9101,0 4.4345,0 0.5543,0 0.97,0.26738 0.97,0.935829 C 36.8982,1.73797 37.0367,2.54011 37.0367,3.20856 Z"
     fill="#3f504c"
     id="path18" />
  <path
     d="m 0.03664838,21.9251 c 0,-0.6684 0,-1.2032 0,-1.8716 0,-0.4011 -0.2771534,-1.2032 0.6928836,-1.0695 0.83145802,0 0.55430802,0.6684 0.69288802,1.2032 0,0.8021 0,1.7379 0,2.5401 0,0.8021 0.27715,1.0695 1.10861,1.0695 0.97004,0 1.94008,0 3.04869,0 0.55431,0 0.83146,0.1337 0.83146,0.6685 0,0.5347 -0.41573,0.6684 -0.83146,0.6684 -1.52435,0 -3.04869,0 -4.57303,0 -0.69288802,0 -0.97004162,-0.2674 -0.97004162,-0.9358 0,-0.8022 0,-1.4706 0,-2.2728 z"
     fill="#3f504c"
     id="path20" />
  <path
     d="m 37.0367,22.0589 c 0,0.8021 0,1.6042 0,2.2727 0,0.5347 -0.2771,0.8021 -0.6928,0.8021 -1.663,0 -3.1873,0 -4.8502,0 -0.4158,0 -0.6929,-0.2674 -0.6929,-0.6684 0,-0.5348 0.2771,-0.6685 0.6929,-0.6685 1.1086,0 2.0786,0 3.1872,0 0.6929,0 1.1086,-0.2674 1.1086,-0.9358 0,-0.9358 0,-1.8717 0,-2.6738 0,-0.4011 -0.1385,-1.0695 0.6929,-1.0695 0.8315,0 0.5543,0.6684 0.5543,1.0695 0,0.5348 0,1.2032 0,1.8717 z"
     fill="#3f504c"
     id="path22" />
  <path
     d="m 7.51987,19.1177 c 0,0.8021 0,1.4706 0,2.2727 0,0.9359 -0.69289,0.8022 -1.24719,0.8022 -0.55431,0 -1.10862,0 -1.10862,-0.8022 0,-1.4706 0,-2.9411 0,-4.4117 0,-0.9359 0.55431,-0.8022 1.24719,-0.8022 0.69289,0 1.24719,0 1.10862,0.8022 0,0.5347 0,1.3369 0,2.139 z"
     fill="#3f504c"
     id="path24" />
  <path
     d="m 31.6322,19.1176 c 0,0.8022 0,1.4706 0,2.2727 0,0.9359 -0.6929,0.6685 -1.2472,0.6685 -0.5543,0 -1.1086,0 -1.1086,-0.8021 0,-1.4706 0,-3.0749 0,-4.5455 0,-0.9358 0.6929,-0.8021 1.2472,-0.8021 0.5543,0 1.1086,0 1.1086,0.8021 0,0.8021 0,1.6043 0,2.4064 z"
     fill="#3f504c"
     id="path26" />
  <path
     d="m 18.883,8.55621 c 0,1.47059 0,2.94119 0,4.41179 0,0.401 0,0.8021 -0.5543,0.8021 -0.5543,0 -0.5543,-0.4011 -0.5543,-0.8021 0,-2.9412 0,-6.01607 0,-8.95724 0,-0.40107 0,-0.80214 0.5543,-0.80214 0.5543,0 0.5543,0.40107 0.5543,0.80214 0,1.47059 0,3.07486 0,4.54545 z"
     fill="#3f504c"
     id="path28" />
  <path
     d="m 13.4787,8.55621 c 0,1.47059 0,2.94119 0,4.41179 0,0.401 0,0.8021 -0.5543,0.8021 -0.5543,0 -0.5543,-0.4011 -0.5543,-0.8021 0,-2.9412 0,-6.01607 0,-8.95724 0,-0.40107 0,-0.80214 0.5543,-0.80214 0.6929,0 0.5543,0.53476 0.5543,0.80214 0,1.60428 0,3.07486 0,4.54545 z"
     fill="#3f504c"
     id="path30" />
  <path
     d="m 24.426,8.55613 c 0,1.47057 0,2.94117 0,4.41177 0,0.4011 0,0.9358 -0.5543,0.9358 -0.5543,0 -0.5543,-0.5347 -0.5543,-0.9358 0,-2.9412 0,-5.88236 0,-8.82353 0,-0.40107 0,-0.93583 0.5543,-0.80214 0.5543,0 0.5543,0.53476 0.5543,0.93583 0,1.33689 0,2.80748 0,4.27807 z"
     fill="#3f504c"
     id="path32" />
  <path
     d="m 11.677,8.55619 c 0,1.47061 0,2.94121 0,4.41181 0,0.401 0,0.9358 -0.5543,0.9358 -0.5543,0 -0.5543,-0.5348 -0.5543,-0.9358 0,-2.9412 0,-5.74871 0,-8.68989 0,-0.13369 0,-0.13369 0,-0.26738 0,-0.40107 0.1385,-0.66844 0.5543,-0.66844 0.4157,0 0.4157,0.40106 0.4157,0.66844 0.1386,1.47059 0.1386,2.94118 0.1386,4.54546 z"
     fill="#3f504c"
     id="path34" />
  <path
     d="m 26.2278,8.42252 c 0,1.47059 0,2.94118 0,4.41178 0,0.4011 0,0.9358 -0.5544,0.9358 -0.5543,0 -0.5543,-0.5347 -0.5543,-0.9358 0,-2.94119 0,-5.74868 0,-8.68985 0,-0.13369 0,-0.13369 0,-0.26738 0,-0.40107 0.1386,-0.66845 0.5543,-0.66845 0.4158,0 0.4158,0.40107 0.4158,0.66845 0.1386,1.47059 0.1386,3.07486 0.1386,4.54545 z"
     fill="#3f504c"
     id="path36" />
  <path
     d="m 26.7822,18.984 c 0,-0.6684 0,-1.4706 0,-2.139 0,-0.5348 0.2772,-0.8022 0.8315,-0.8022 0.5543,0 0.97,0.1337 0.97,0.8022 0,1.4706 0,3.0749 0,4.5454 0,0.5348 -0.2771,0.8022 -0.97,0.8022 -0.5543,0 -0.8315,-0.2674 -0.8315,-0.8022 0.1386,-0.9358 0,-1.7379 0,-2.4064 z"
     fill="#3f504c"
     id="path38" />
  <path
     d="m 9.87581,19.1177 c 0,0.8022 0,1.4706 0,2.2727 0,0.5348 -0.27715,0.8022 -0.83146,0.8022 -0.55431,0 -0.83146,-0.1337 -0.83146,-0.8022 0,-1.6042 0,-3.0748 0,-4.6791 0,-0.5348 0.27715,-0.6685 0.83146,-0.6685 0.55431,0 0.83146,0.1337 0.83146,0.6685 0,0.8021 0,1.6043 0,2.4064 z"
     fill="#3f504c"
     id="path40" />
  <path
     d="m 17.2206,19.1177 c 0,0.8021 0,1.4706 0,2.2727 0,0.5348 -0.2771,0.8022 -0.8314,0.8022 -0.5543,0 -0.6929,-0.2674 -0.6929,-0.8022 0,-1.4706 0,-2.9412 0,-4.4117 0,-0.5348 0.1386,-0.8022 0.6929,-0.8022 0.5543,0 0.8314,0.2674 0.8314,0.8022 0,0.5347 0,1.3369 0,2.139 z"
     fill="#3f504c"
     id="path42" />
  <path
     d="m 19.5762,18.984 c 0,-0.8021 0,-1.4706 0,-2.2727 0,-0.5348 0.2771,-0.6685 0.8314,-0.6685 0.4158,0 0.8315,0.1337 0.8315,0.6685 0,1.6043 0,3.2086 0,4.8128 0,0.5348 -0.4157,0.6685 -0.8315,0.6685 -0.5543,0 -0.8314,-0.1337 -0.8314,-0.6685 0,-0.9358 0,-1.7379 0,-2.5401 z"
     fill="#3f504c"
     id="path44" />
  <path
     d="m 33.0181,8.55619 c 0,1.47061 0,2.94121 0,4.41181 0,0.2673 0,0.6684 -0.2772,0.6684 -0.4157,0 -0.4157,-0.4011 -0.4157,-0.6684 0,-2.9412 0,-6.01609 0,-8.95727 0,-0.26738 0,-0.66844 0.2771,-0.66844 0.4158,0 0.4158,0.40106 0.4158,0.66844 0,1.47059 0,2.94118 0,4.54546 z"
     fill="#3f504c"
     id="path46" />
  <path
     d="m 3.77803,8.42252 c 0,-1.47059 0,-2.94117 0,-4.41176 0,-0.26738 -0.13858,-0.80214 0.27716,-0.80214 0.5543,0 0.41573,0.53476 0.41573,0.80214 0,2.94117 0,5.88235 0,8.82354 0,0.2674 0,0.6684 -0.27716,0.6684 -0.55431,0 -0.41573,-0.401 -0.41573,-0.6684 0,-1.3369 0,-2.94119 0,-4.41178 z"
     fill="#3f504c"
     id="path48" />
  <path
     d="m 18.883,18.984 c 0,0.8021 0,1.4706 0,2.2727 0,0.4011 0,0.8022 -0.5543,0.8022 -0.5543,0 -0.5543,-0.4011 -0.5543,-0.6685 0,-1.4706 0,-3.0748 0,-4.5454 0,-0.4011 0.1386,-0.6685 0.5543,-0.6685 0.5543,0 0.5543,0.4011 0.5543,0.6685 0,0.6684 0,1.4706 0,2.139 z"
     fill="#3f504c"
     id="path50" />
  <path
     d="m 24.426,18.984 c 0,0.8022 0,1.4706 0,2.2728 0,0.401 -0.1386,0.6684 -0.5543,0.6684 -0.5543,0 -0.5543,-0.4011 -0.5543,-0.6684 0,-1.4706 0,-3.0749 0,-4.5455 0,-0.4011 0.1386,-0.6685 0.5543,-0.6685 0.5543,0 0.5543,0.4011 0.5543,0.6685 0,0.8021 0,1.6043 0,2.2727 z"
     fill="#3f504c"
     id="path52" />
  <path
     d="m 11.677,18.9839 c 0,0.8022 0,1.6043 0,2.2728 0,0.2673 0,0.6684 -0.5543,0.6684 -0.5543,0 -0.5543,-0.2674 -0.5543,-0.6684 0,-1.6043 0,-3.0749 0,-4.6792 0,-0.4011 0.1385,-0.6684 0.5543,-0.6684 0.4157,0 0.4157,0.401 0.4157,0.6684 0.1386,0.9358 0.1386,1.738 0.1386,2.4064 z"
     fill="#3f504c"
     id="path54" />
  <path
     d="m 13.4787,18.984 c 0,0.8022 0,1.4706 0,2.2728 0,0.401 0,0.6684 -0.5543,0.8021 -0.5543,0 -0.5543,-0.4011 -0.5543,-0.8021 0,-1.4706 0,-3.0749 0,-4.5455 0,-0.4011 0.1386,-0.6685 0.5543,-0.6685 0.5543,0 0.5543,0.4011 0.5543,0.6685 0,0.8021 0,1.6043 0,2.2727 z"
     fill="#3f504c"
     id="path56" />
  <path
     d="m 26.2278,18.9839 c 0,0.8022 0,1.4706 0,2.2728 0,0.2673 0,0.6684 -0.4157,0.6684 -0.5543,0 -0.5543,-0.2674 -0.5543,-0.6684 0,-1.6043 0,-3.0749 0,-4.6792 0,-0.2674 0.1386,-0.6684 0.5543,-0.6684 0.5543,0 0.5543,0.401 0.5543,0.6684 -0.1386,0.9358 -0.1386,1.738 -0.1386,2.4064 z"
     fill="#3f504c"
     id="path58" />
  <path
     d="m 14.8646,8.4225 c 0,1.47059 0,3.0749 0,4.5455 0,0.2673 0.1385,0.5347 -0.2772,0.6684 -0.4157,0 -0.2771,-0.4011 -0.2771,-0.5348 0,-3.0748 0,-6.14969 0,-9.09087 0,-0.26738 0,-0.66844 0.2771,-0.66844 0.4157,0 0.2772,0.40106 0.2772,0.66844 0,1.47059 0,2.94118 0,4.41177 z"
     fill="#3f504c"
     id="path60" />
  <path
     d="m 22.4859,8.42252 c 0,1.47059 0,3.07488 0,4.54548 0,0.2674 0.1385,0.6684 -0.2772,0.6684 -0.4157,0 -0.4157,-0.401 -0.4157,-0.6684 0,-3.07489 0,-6.01607 0,-9.09093 0,-0.26738 0,-0.66845 0.2771,-0.66845 0.4158,0 0.2772,0.40107 0.2772,0.66845 0.1386,1.60428 0.1386,3.07486 0.1386,4.54545 z"
     fill="#3f504c"
     id="path62" />
  <path
     d="m 33.0181,18.984 c 0,0.8021 0,1.6043 0,2.4064 0,0.2674 0,0.5348 -0.2772,0.5348 -0.4157,0 -0.4157,-0.2674 -0.4157,-0.5348 0,-1.6043 0,-3.0748 0,-4.6791 0,-0.2674 0,-0.5348 0.2771,-0.5348 0.4158,0 0.4158,0.4011 0.4158,0.6685 0,0.6684 0,1.3369 0,2.139 z"
     fill="#3f504c"
     id="path64" />
  <path
     d="m 4.4712,19.1177 c 0,0.8022 0,1.6043 0,2.2727 0,0.2674 0,0.5348 -0.41573,0.5348 -0.27715,0 -0.27715,-0.2674 -0.27715,-0.5348 0,-1.6042 0,-3.2085 0,-4.8128 0,-0.2674 0,-0.5348 0.27715,-0.5348 0.27716,0 0.41573,0.2674 0.41573,0.5348 0,0.8021 0,1.6043 0,2.5401 z"
     fill="#3f504c"
     id="path66" />
  <path
     d="m 14.8639,19.1177 c 0,0.8021 0,1.6043 0,2.2727 0,0.2674 0,0.5348 -0.2772,0.5348 -0.2771,0 -0.2771,-0.2674 -0.2771,-0.5348 0,-1.6043 0,-3.0748 0,-4.6791 0,-0.2674 0,-0.5348 0.2771,-0.5348 0.4158,0 0.2772,0.4011 0.2772,0.5348 0,0.8021 0,1.6043 0,2.4064 z"
     fill="#3f504c"
     id="path68" />
  <path
     d="m 22.4859,18.984 c 0,0.8021 0,1.6043 0,2.5401 0,0.1337 0,0.4011 -0.2771,0.4011 -0.2772,0 -0.2772,-0.2674 -0.2772,-0.4011 0,-1.6043 0,-3.2085 0,-4.8128 0,-0.2674 0,-0.5348 0.4158,-0.5348 0.2771,0 0.2771,0.2674 0.2771,0.5348 -0.1386,0.6684 -0.1386,1.4706 -0.1386,2.2727 z"
     fill="#3f504c"
     id="path70" />
</svg>
