<svg width="38" height="27" viewBox="0 0 38 27" fill="none" xmlns="http://www.w3.org/2000/svg">
<path d="M18.3286 16.0016C13.3399 16.0016 8.21252 16.0016 3.22375 16.0016C2.80802 16.0016 1.97656 16.2799 1.97656 15.4449C1.97656 14.7491 2.80802 14.8883 3.22375 14.8883C13.2013 14.8883 23.3174 14.8883 33.2949 14.8883C33.8492 14.8883 34.6807 14.7491 34.6807 15.4449C34.6807 16.1408 33.8492 16.0016 33.4335 16.0016C28.4447 16.0016 23.456 16.0016 18.3286 16.0016Z" fill="white"/>
<path d="M29.2764 8.76601C29.2764 7.23545 29.2764 5.70488 29.2764 4.17431C29.2764 3.20032 29.8307 3.20032 30.5236 3.20032C31.2164 3.20032 31.7707 3.20032 31.7707 4.17431C31.7707 7.23545 31.7707 10.2966 31.7707 13.3577C31.7707 14.1926 31.2164 14.3317 30.5236 14.3317C29.8307 14.3317 29.2764 14.1926 29.2764 13.3577C29.2764 11.8271 29.2764 10.2966 29.2764 8.76601Z" fill="white"/>
<path d="M5.16406 8.76601C5.16406 7.23545 5.16406 5.70488 5.16406 4.17431C5.16406 3.20032 5.71837 3.20032 6.41125 3.20032C7.10414 3.20032 7.65844 3.20032 7.65844 4.17431C7.65844 7.23545 7.65844 10.2966 7.65844 13.3577C7.65844 14.3317 7.10414 14.3317 6.41125 14.3317C5.71837 14.3317 5.16406 14.1926 5.16406 13.3577C5.16406 11.8271 5.16406 10.2966 5.16406 8.76601Z" fill="white"/>
<path d="M26.7822 8.76602C26.7822 7.23545 26.7822 5.70488 26.7822 4.17431C26.7822 3.61774 26.9208 3.20032 27.6137 3.20032C28.3066 3.20032 28.5837 3.4786 28.5837 4.17431C28.5837 7.23545 28.5837 10.2966 28.5837 13.3577C28.5837 14.0534 28.3066 14.1926 27.6137 14.1926C26.9208 14.1926 26.7822 13.7751 26.7822 13.2186C26.7822 11.8272 26.7822 10.2966 26.7822 8.76602Z" fill="white"/>
<path d="M9.87581 8.90516C9.87581 10.4357 9.87581 11.9663 9.87581 13.4969C9.87581 14.0534 9.73723 14.4709 9.04435 14.4709C8.35147 14.3317 8.21289 14.0534 8.21289 13.3577C8.21289 10.2966 8.21289 7.23545 8.21289 4.17431C8.21289 3.61774 8.35147 3.20032 9.04435 3.20032C9.73723 3.20032 9.87581 3.61774 9.87581 4.17431C9.87581 5.70488 9.87581 7.37459 9.87581 8.90516Z" fill="white"/>
<path d="M21.1004 8.76601C21.1004 10.2966 21.1004 11.8271 21.1004 13.3577C21.1004 13.9143 20.9618 14.3317 20.269 14.3317C19.5761 14.3317 19.4375 13.9143 19.4375 13.3577C19.4375 10.2966 19.4375 7.23545 19.4375 4.17431C19.4375 3.61774 19.5761 3.20032 20.1304 3.20032C20.8233 3.20032 20.9618 3.4786 20.9618 4.17431C21.1004 5.70488 21.1004 7.23545 21.1004 8.76601Z" fill="white"/>
<path d="M15.6962 8.76601C15.6962 7.23545 15.6962 5.70488 15.6962 4.17431C15.6962 3.61774 15.6962 3.20032 16.3891 3.20032C17.082 3.20032 17.2205 3.4786 17.2205 4.17431C17.2205 7.23545 17.2205 10.2966 17.2205 13.3577C17.2205 13.9143 17.082 14.3317 16.3891 14.3317C15.6962 14.3317 15.5576 13.9143 15.5576 13.3577C15.6962 11.8271 15.6962 10.2966 15.6962 8.76601Z" fill="white"/>
<path d="M3.22438 0.13916C4.05584 0.13916 4.74872 0.13916 5.58018 0.13916C5.99591 0.13916 6.41164 0.278303 6.41164 0.834872C6.27306 1.39144 5.99591 1.53058 5.4416 1.53058C4.74872 1.53058 4.05584 1.53058 3.36295 1.53058C1.14572 1.53058 1.42288 1.2523 1.2843 3.61772C1.2843 4.31343 1.2843 5.00915 1.2843 5.70486C1.2843 6.12228 1.14572 6.53971 0.591416 6.53971C0.0371094 6.53971 0.0371094 6.12228 0.0371094 5.70486C0.0371094 4.17429 0.0371094 2.64372 0.0371094 1.11316C0.0371094 0.417445 0.314263 0.13916 1.00715 0.13916C1.70003 0.13916 2.39291 0.13916 3.22438 0.13916Z" fill="white"/>
<path d="M37.0367 3.33942C37.0367 4.17427 37.0367 5.00913 37.0367 5.70484C37.0367 6.12227 36.8982 6.53969 36.3439 6.40055C35.7895 6.40055 35.651 6.12227 35.651 5.5657C35.651 4.45256 35.651 3.33942 35.651 2.22628C35.651 1.53057 35.3738 1.25228 34.8195 1.39142C33.7109 1.39142 32.7409 1.39142 31.6322 1.39142C31.0779 1.39142 30.8008 1.25228 30.8008 0.695712C30.8008 0 31.2165 0 31.7708 0C33.2952 0 34.6809 0 36.2053 0C36.7596 0 37.1753 0.278285 37.1753 0.973997C36.8982 1.80885 37.0367 2.64371 37.0367 3.33942Z" fill="white"/>
<path d="M0.0366484 22.8194C0.0366484 22.1237 0.0366484 21.5671 0.0366484 20.8714C0.0366484 20.454 -0.240505 19.6191 0.729532 19.7583C1.56099 19.7583 1.28384 20.454 1.42242 21.0105C1.42242 21.8454 1.42242 22.8194 1.42242 23.6542C1.42242 24.4891 1.69957 24.7674 2.53103 24.7674C3.50107 24.7674 4.47111 24.7674 5.57972 24.7674C6.13403 24.7674 6.41118 24.9065 6.41118 25.4631C6.41118 26.0197 5.99545 26.1588 5.57972 26.1588C4.05537 26.1588 2.53103 26.1588 1.00669 26.1588C0.313802 26.1588 0.0366484 25.8805 0.0366484 25.1848C0.0366484 24.35 0.0366484 23.6542 0.0366484 22.8194Z" fill="white"/>
<path d="M37.0367 22.9585C37.0367 23.7934 37.0367 24.6282 37.0367 25.324C37.0367 25.8805 36.7596 26.1588 36.3439 26.1588C34.6809 26.1588 33.1566 26.1588 31.4937 26.1588C31.0779 26.1588 30.8008 25.8805 30.8008 25.4631C30.8008 24.9065 31.0779 24.7674 31.4937 24.7674C32.6023 24.7674 33.5723 24.7674 34.6809 24.7674C35.3738 24.7674 35.7895 24.4891 35.7895 23.7934C35.7895 22.8194 35.7895 21.8454 35.7895 21.0105C35.7895 20.5931 35.651 19.8974 36.4824 19.8974C37.3139 19.8974 37.0367 20.5931 37.0367 21.0105C37.0367 21.5671 37.0367 22.2628 37.0367 22.9585Z" fill="white"/>
<path d="M7.51987 19.8974C7.51987 20.7323 7.51987 21.428 7.51987 22.2628C7.51987 23.2368 6.82698 23.0977 6.27268 23.0977C5.71837 23.0977 5.16406 23.0977 5.16406 22.2628C5.16406 20.7323 5.16406 19.2017 5.16406 17.6711C5.16406 16.6971 5.71837 16.8363 6.41125 16.8363C7.10414 16.8363 7.65844 16.8363 7.51987 17.6711C7.51987 18.2277 7.51987 19.0626 7.51987 19.8974Z" fill="white"/>
<path d="M31.6322 19.8974C31.6322 20.7322 31.6322 21.4279 31.6322 22.2628C31.6322 23.2368 30.9393 22.9585 30.385 22.9585C29.8307 22.9585 29.2764 22.9585 29.2764 22.1237C29.2764 20.5931 29.2764 18.9234 29.2764 17.3928C29.2764 16.4188 29.9693 16.558 30.5236 16.558C31.0779 16.558 31.6322 16.558 31.6322 17.3928C31.6322 18.2277 31.6322 19.0625 31.6322 19.8974Z" fill="white"/>
<path d="M18.883 8.90518C18.883 10.4357 18.883 11.9663 18.883 13.4969C18.883 13.9143 18.883 14.3317 18.3287 14.3317C17.7744 14.3317 17.7744 13.9143 17.7744 13.4969C17.7744 10.4357 17.7744 7.23547 17.7744 4.17433C17.7744 3.75691 17.7744 3.33948 18.3287 3.33948C18.883 3.33948 18.883 3.75691 18.883 4.17433C18.883 5.7049 18.883 7.37461 18.883 8.90518Z" fill="white"/>
<path d="M13.4787 8.90518C13.4787 10.4357 13.4787 11.9663 13.4787 13.4969C13.4787 13.9143 13.4787 14.3317 12.9244 14.3317C12.3701 14.3317 12.3701 13.9143 12.3701 13.4969C12.3701 10.4357 12.3701 7.23547 12.3701 4.17433C12.3701 3.75691 12.3701 3.33948 12.9244 3.33948C13.6173 3.33948 13.4787 3.89605 13.4787 4.17433C13.4787 5.84404 13.4787 7.37461 13.4787 8.90518Z" fill="white"/>
<path d="M24.426 8.90513C24.426 10.4357 24.426 11.9663 24.426 13.4968C24.426 13.9143 24.426 14.4708 23.8717 14.4708C23.3174 14.4708 23.3174 13.9143 23.3174 13.4968C23.3174 10.4357 23.3174 7.37457 23.3174 4.31343C23.3174 3.89601 23.3174 3.33944 23.8717 3.47858C24.426 3.47858 24.426 4.03515 24.426 4.45258C24.426 5.844 24.426 7.37457 24.426 8.90513Z" fill="white"/>
<path d="M11.677 8.90513C11.677 10.4357 11.677 11.9663 11.677 13.4968C11.677 13.9143 11.677 14.4708 11.1227 14.4708C10.5684 14.4708 10.5684 13.9143 10.5684 13.4968C10.5684 10.4357 10.5684 7.51371 10.5684 4.45257C10.5684 4.31343 10.5684 4.31343 10.5684 4.17429C10.5684 3.75686 10.7069 3.47858 11.1227 3.47858C11.5384 3.47858 11.5384 3.896 11.5384 4.17429C11.677 5.70486 11.677 7.23542 11.677 8.90513Z" fill="white"/>
<path d="M26.2278 8.76603C26.2278 10.2966 26.2278 11.8272 26.2278 13.3577C26.2278 13.7752 26.2278 14.3317 25.6734 14.3317C25.1191 14.3317 25.1191 13.7752 25.1191 13.3577C25.1191 10.2966 25.1191 7.37461 25.1191 4.31347C25.1191 4.17433 25.1191 4.17433 25.1191 4.03519C25.1191 3.61776 25.2577 3.33948 25.6734 3.33948C26.0892 3.33948 26.0892 3.7569 26.0892 4.03519C26.2278 5.56576 26.2278 7.23547 26.2278 8.76603Z" fill="white"/>
<path d="M26.7822 19.7583C26.7822 19.0626 26.7822 18.2277 26.7822 17.532C26.7822 16.9754 27.0594 16.6971 27.6137 16.6971C28.168 16.6971 28.5837 16.8363 28.5837 17.532C28.5837 19.0626 28.5837 20.7323 28.5837 22.2628C28.5837 22.8194 28.3066 23.0977 27.6137 23.0977C27.0594 23.0977 26.7822 22.8194 26.7822 22.2628C26.9208 21.2888 26.7822 20.454 26.7822 19.7583Z" fill="white"/>
<path d="M9.87581 19.8974C9.87581 20.7323 9.87581 21.428 9.87581 22.2628C9.87581 22.8194 9.59866 23.0977 9.04435 23.0977C8.49004 23.0977 8.21289 22.9586 8.21289 22.2628C8.21289 20.5931 8.21289 19.0626 8.21289 17.3929C8.21289 16.8363 8.49004 16.6971 9.04435 16.6971C9.59866 16.6971 9.87581 16.8363 9.87581 17.3929C9.87581 18.2277 9.87581 19.0626 9.87581 19.8974Z" fill="white"/>
<path d="M17.2206 19.8974C17.2206 20.7322 17.2206 21.4279 17.2206 22.2628C17.2206 22.8194 16.9435 23.0977 16.3892 23.0977C15.8349 23.0977 15.6963 22.8194 15.6963 22.2628C15.6963 20.7322 15.6963 19.2017 15.6963 17.6711C15.6963 17.1145 15.8349 16.8362 16.3892 16.8362C16.9435 16.8362 17.2206 17.1145 17.2206 17.6711C17.2206 18.2277 17.2206 19.0625 17.2206 19.8974Z" fill="white"/>
<path d="M19.5762 19.7583C19.5762 18.9234 19.5762 18.2277 19.5762 17.3929C19.5762 16.8363 19.8533 16.6971 20.4076 16.6971C20.8234 16.6971 21.2391 16.8363 21.2391 17.3929C21.2391 19.0626 21.2391 20.7323 21.2391 22.402C21.2391 22.9586 20.8234 23.0977 20.4076 23.0977C19.8533 23.0977 19.5762 22.9586 19.5762 22.402C19.5762 21.428 19.5762 20.5931 19.5762 19.7583Z" fill="white"/>
<path d="M33.0181 8.90513C33.0181 10.4357 33.0181 11.9663 33.0181 13.4968C33.0181 13.7751 33.0181 14.1925 32.7409 14.1925C32.3252 14.1925 32.3252 13.7751 32.3252 13.4968C32.3252 10.4357 32.3252 7.23542 32.3252 4.17429C32.3252 3.896 32.3252 3.47858 32.6023 3.47858C33.0181 3.47858 33.0181 3.896 33.0181 4.17429C33.0181 5.70486 33.0181 7.23542 33.0181 8.90513Z" fill="white"/>
<path d="M3.77803 8.76603C3.77803 7.23547 3.77803 5.7049 3.77803 4.17433C3.77803 3.89605 3.63945 3.33948 4.05519 3.33948C4.60949 3.33948 4.47092 3.89605 4.47092 4.17433C4.47092 7.23547 4.47092 10.2966 4.47092 13.3577C4.47092 13.636 4.47092 14.0534 4.19376 14.0534C3.63945 14.0534 3.77803 13.636 3.77803 13.3577C3.77803 11.9663 3.77803 10.2966 3.77803 8.76603Z" fill="white"/>
<path d="M18.883 19.7582C18.883 20.5931 18.883 21.2888 18.883 22.1237C18.883 22.5411 18.883 22.9585 18.3287 22.9585C17.7744 22.9585 17.7744 22.5411 17.7744 22.2628C17.7744 20.7322 17.7744 19.0625 17.7744 17.532C17.7744 17.1145 17.913 16.8362 18.3287 16.8362C18.883 16.8362 18.883 17.2537 18.883 17.532C18.883 18.2277 18.883 19.0625 18.883 19.7582Z" fill="white"/>
<path d="M24.426 19.7583C24.426 20.5931 24.426 21.2888 24.426 22.1237C24.426 22.5411 24.2874 22.8194 23.8717 22.8194C23.3174 22.8194 23.3174 22.402 23.3174 22.1237C23.3174 20.5931 23.3174 18.9234 23.3174 17.3929C23.3174 16.9754 23.456 16.6971 23.8717 16.6971C24.426 16.6971 24.426 17.1146 24.426 17.3929C24.426 18.2277 24.426 19.0626 24.426 19.7583Z" fill="white"/>
<path d="M11.677 19.7583C11.677 20.5931 11.677 21.428 11.677 22.1237C11.677 22.402 11.677 22.8194 11.1227 22.8194C10.5684 22.8194 10.5684 22.5411 10.5684 22.1237C10.5684 20.454 10.5684 18.9234 10.5684 17.2537C10.5684 16.8363 10.7069 16.558 11.1227 16.558C11.5384 16.558 11.5384 16.9754 11.5384 17.2537C11.677 18.2277 11.677 19.0625 11.677 19.7583Z" fill="white"/>
<path d="M13.4787 19.7583C13.4787 20.5931 13.4787 21.2888 13.4787 22.1237C13.4787 22.5411 13.4787 22.8194 12.9244 22.9586C12.3701 22.9586 12.3701 22.5411 12.3701 22.1237C12.3701 20.5931 12.3701 18.9234 12.3701 17.3929C12.3701 16.9754 12.5087 16.6971 12.9244 16.6971C13.4787 16.6971 13.4787 17.1146 13.4787 17.3929C13.4787 18.2277 13.4787 19.0626 13.4787 19.7583Z" fill="white"/>
<path d="M26.2278 19.7583C26.2278 20.5931 26.2278 21.2888 26.2278 22.1237C26.2278 22.402 26.2278 22.8194 25.8121 22.8194C25.2578 22.8194 25.2578 22.5411 25.2578 22.1237C25.2578 20.454 25.2578 18.9234 25.2578 17.2537C25.2578 16.9754 25.3964 16.558 25.8121 16.558C26.3664 16.558 26.3664 16.9754 26.3664 17.2537C26.2278 18.2277 26.2278 19.0625 26.2278 19.7583Z" fill="white"/>
<path d="M14.8646 8.76599C14.8646 10.2966 14.8646 11.9663 14.8646 13.4968C14.8646 13.7751 15.0031 14.0534 14.5874 14.1925C14.1717 14.1925 14.3103 13.7751 14.3103 13.636C14.3103 10.4357 14.3103 7.23542 14.3103 4.17429C14.3103 3.896 14.3103 3.47858 14.5874 3.47858C15.0031 3.47858 14.8646 3.896 14.8646 4.17429C14.8646 5.70486 14.8646 7.23542 14.8646 8.76599Z" fill="white"/>
<path d="M22.4859 8.76603C22.4859 10.2966 22.4859 11.9663 22.4859 13.4969C22.4859 13.7752 22.6244 14.1926 22.2087 14.1926C21.793 14.1926 21.793 13.7752 21.793 13.4969C21.793 10.2966 21.793 7.23547 21.793 4.03519C21.793 3.7569 21.793 3.33948 22.0701 3.33948C22.4859 3.33948 22.3473 3.7569 22.3473 4.03519C22.4859 5.7049 22.4859 7.23547 22.4859 8.76603Z" fill="white"/>
<path d="M33.0181 19.7582C33.0181 20.5931 33.0181 21.4279 33.0181 22.2628C33.0181 22.5411 33.0181 22.8194 32.7409 22.8194C32.3252 22.8194 32.3252 22.5411 32.3252 22.2628C32.3252 20.5931 32.3252 19.0625 32.3252 17.3928C32.3252 17.1145 32.3252 16.8362 32.6023 16.8362C33.0181 16.8362 33.0181 17.2537 33.0181 17.532C33.0181 18.2277 33.0181 18.9234 33.0181 19.7582Z" fill="white"/>
<path d="M4.4712 19.8974C4.4712 20.7323 4.4712 21.5671 4.4712 22.2628C4.4712 22.5411 4.4712 22.8194 4.05547 22.8194C3.77832 22.8194 3.77832 22.5411 3.77832 22.2628C3.77832 20.5931 3.77832 18.9234 3.77832 17.2537C3.77832 16.9754 3.77832 16.6971 4.05547 16.6971C4.33263 16.6971 4.4712 16.9754 4.4712 17.2537C4.4712 18.0886 4.4712 18.9234 4.4712 19.8974Z" fill="white"/>
<path d="M14.8639 19.8974C14.8639 20.7322 14.8639 21.5671 14.8639 22.2628C14.8639 22.5411 14.8639 22.8194 14.5867 22.8194C14.3096 22.8194 14.3096 22.5411 14.3096 22.2628C14.3096 20.5931 14.3096 19.0625 14.3096 17.3928C14.3096 17.1145 14.3096 16.8362 14.5867 16.8362C15.0025 16.8362 14.8639 17.2537 14.8639 17.3928C14.8639 18.2277 14.8639 19.0625 14.8639 19.8974Z" fill="white"/>
<path d="M22.4859 19.7582C22.4859 20.5931 22.4859 21.4279 22.4859 22.4019C22.4859 22.5411 22.4859 22.8194 22.2088 22.8194C21.9316 22.8194 21.9316 22.5411 21.9316 22.4019C21.9316 20.7322 21.9316 19.0625 21.9316 17.3928C21.9316 17.1145 21.9316 16.8362 22.3474 16.8362C22.6245 16.8362 22.6245 17.1145 22.6245 17.3928C22.4859 18.0885 22.4859 18.9234 22.4859 19.7582Z" fill="white"/>
</svg>
