<svg width="25" height="18" viewBox="0 0 25 18" fill="none" xmlns="http://www.w3.org/2000/svg">
<g id="Group">
<path id="Vector" d="M12.2398 10.6856C8.90847 10.6856 5.48454 10.6856 2.15316 10.6856C1.87554 10.6856 1.32031 10.8714 1.32031 10.3138C1.32031 9.84916 1.87554 9.9421 2.15316 9.9421C8.81593 9.9421 15.5712 9.9421 22.234 9.9421C22.6042 9.9421 23.1594 9.84916 23.1594 10.3138C23.1594 10.7785 22.6042 10.6856 22.3265 10.6856C18.9952 10.6856 15.6638 10.6856 12.2398 10.6856Z" fill="#6FA599"/>
<path id="Vector_2" d="M19.5508 5.85367C19.5508 4.83159 19.5508 3.80952 19.5508 2.78744C19.5508 2.13702 19.9209 2.13702 20.3836 2.13702C20.8463 2.13702 21.2165 2.13702 21.2165 2.78744C21.2165 4.83159 21.2165 6.87575 21.2165 8.91991C21.2165 9.4774 20.8463 9.57032 20.3836 9.57032C19.9209 9.57032 19.5508 9.4774 19.5508 8.91991C19.5508 7.89783 19.5508 6.87575 19.5508 5.85367Z" fill="#6FA599"/>
<path id="Vector_3" d="M3.44922 5.85367C3.44922 4.83159 3.44922 3.80952 3.44922 2.78744C3.44922 2.13702 3.81937 2.13702 4.28206 2.13702C4.74476 2.13702 5.11491 2.13702 5.11491 2.78744C5.11491 4.83159 5.11491 6.87575 5.11491 8.91991C5.11491 9.57032 4.74476 9.57032 4.28206 9.57032C3.81937 9.57032 3.44922 9.4774 3.44922 8.91991C3.44922 7.89783 3.44922 6.87575 3.44922 5.85367Z" fill="#6FA599"/>
<path id="Vector_4" d="M17.8828 5.85367C17.8828 4.83159 17.8828 3.80952 17.8828 2.78744C17.8828 2.41577 17.9754 2.13702 18.438 2.13702C18.9007 2.13702 19.0858 2.32286 19.0858 2.78744C19.0858 4.83159 19.0858 6.87575 19.0858 8.91991C19.0858 9.38449 18.9007 9.4774 18.438 9.4774C17.9754 9.4774 17.8828 9.19865 17.8828 8.82699C17.8828 7.89783 17.8828 6.87575 17.8828 5.85367Z" fill="#6FA599"/>
<path id="Vector_5" d="M6.59484 5.94659C6.59484 6.96867 6.59484 7.99074 6.59484 9.01282C6.59484 9.38449 6.5023 9.66324 6.03961 9.66324C5.57691 9.57032 5.48438 9.38449 5.48438 8.91991C5.48438 6.87575 5.48438 4.83159 5.48438 2.78744C5.48438 2.41577 5.57691 2.13702 6.03961 2.13702C6.5023 2.13702 6.59484 2.41577 6.59484 2.78744C6.59484 3.80952 6.59484 4.92451 6.59484 5.94659Z" fill="#6FA599"/>
<path id="Vector_6" d="M14.0909 5.85367C14.0909 6.87575 14.0909 7.89783 14.0909 8.91991C14.0909 9.29157 13.9984 9.57032 13.5357 9.57032C13.073 9.57032 12.9805 9.29157 12.9805 8.91991C12.9805 6.87575 12.9805 4.83159 12.9805 2.78744C12.9805 2.41577 13.073 2.13702 13.4432 2.13702C13.9059 2.13702 13.9984 2.32286 13.9984 2.78744C14.0909 3.80952 14.0909 4.83159 14.0909 5.85367Z" fill="#6FA599"/>
<path id="Vector_7" d="M10.4832 5.85367C10.4832 4.83159 10.4832 3.80952 10.4832 2.78744C10.4832 2.41577 10.4832 2.13702 10.9459 2.13702C11.4085 2.13702 11.5011 2.32286 11.5011 2.78744C11.5011 4.83159 11.5011 6.87575 11.5011 8.91991C11.5011 9.29157 11.4085 9.57032 10.9459 9.57032C10.4832 9.57032 10.3906 9.29157 10.3906 8.91991C10.4832 7.89783 10.4832 6.87575 10.4832 5.85367Z" fill="#6FA599"/>
<path id="Vector_8" d="M2.15182 0.0929565C2.70705 0.0929565 3.16974 0.0929565 3.72498 0.0929565C4.00259 0.0929565 4.28021 0.185873 4.28021 0.557537C4.18767 0.929202 4.00259 1.02212 3.63244 1.02212C3.16974 1.02212 2.70705 1.02212 2.24436 1.02212C0.763745 1.02212 0.948822 0.836286 0.856283 2.41586C0.856283 2.88044 0.856283 3.34502 0.856283 3.8096C0.856283 4.08835 0.763745 4.3671 0.393591 4.3671C0.0234375 4.3671 0.0234375 4.08835 0.0234375 3.8096C0.0234375 2.78753 0.0234375 1.76545 0.0234375 0.74337C0.0234375 0.278789 0.208514 0.0929565 0.671207 0.0929565C1.1339 0.0929565 1.59659 0.0929565 2.15182 0.0929565Z" fill="#6FA599"/>
<path id="Vector_9" d="M24.7306 2.22999C24.7306 2.78749 24.7306 3.34498 24.7306 3.80956C24.7306 4.08831 24.6381 4.36706 24.2679 4.27414C23.8978 4.27414 23.8053 4.08831 23.8053 3.71665C23.8053 2.97332 23.8053 2.22999 23.8053 1.48666C23.8053 1.02208 23.6202 0.836246 23.25 0.929162C22.5097 0.929162 21.8619 0.929162 21.1216 0.929162C20.7515 0.929162 20.5664 0.836246 20.5664 0.464581C20.5664 0 20.844 0 21.2142 0C22.2321 0 23.1575 0 24.1754 0C24.5456 0 24.8232 0.185832 24.8232 0.650413C24.6381 1.20791 24.7306 1.76541 24.7306 2.22999Z" fill="#6FA599"/>
<path id="Vector_10" d="M0.024473 15.2382C0.024473 14.7736 0.024473 14.4019 0.024473 13.9374C0.024473 13.6586 -0.160604 13.1011 0.487165 13.194C1.0424 13.194 0.857319 13.6586 0.949857 14.0303C0.949857 14.5878 0.949857 15.2382 0.949857 15.7957C0.949857 16.3532 1.13493 16.539 1.69016 16.539C2.33793 16.539 2.9857 16.539 3.72601 16.539C4.09616 16.539 4.28124 16.6319 4.28124 17.0036C4.28124 17.3753 4.00363 17.4682 3.72601 17.4682C2.70809 17.4682 1.69017 17.4682 0.672242 17.4682C0.20955 17.4682 0.024473 17.2824 0.024473 16.8178C0.024473 16.2603 0.024473 15.7957 0.024473 15.2382Z" fill="#6FA599"/>
<path id="Vector_11" d="M24.7306 15.3312C24.7306 15.8887 24.7306 16.4462 24.7306 16.9108C24.7306 17.2824 24.5456 17.4683 24.2679 17.4683C23.1575 17.4683 22.1396 17.4683 21.0291 17.4683C20.7515 17.4683 20.5664 17.2824 20.5664 17.0037C20.5664 16.632 20.7515 16.5391 21.0291 16.5391C21.7694 16.5391 22.4172 16.5391 23.1575 16.5391C23.6202 16.5391 23.8978 16.3533 23.8978 15.8887C23.8978 15.2383 23.8978 14.5879 23.8978 14.0304C23.8978 13.7516 23.8053 13.287 24.3605 13.287C24.9157 13.287 24.7306 13.7516 24.7306 14.0304C24.7306 14.402 24.7306 14.8666 24.7306 15.3312Z" fill="#6FA599"/>
<path id="Vector_12" d="M5.02237 13.287C5.02237 13.8445 5.02237 14.3091 5.02237 14.8666C5.02237 15.517 4.55968 15.4241 4.18953 15.4241C3.81937 15.4241 3.44922 15.4241 3.44922 14.8666C3.44922 13.8445 3.44922 12.8224 3.44922 11.8004C3.44922 11.15 3.81937 11.2429 4.28206 11.2429C4.74476 11.2429 5.11491 11.2429 5.02237 11.8004C5.02237 12.172 5.02237 12.7295 5.02237 13.287Z" fill="#6FA599"/>
<path id="Vector_13" d="M21.1239 13.287C21.1239 13.8445 21.1239 14.3091 21.1239 14.8666C21.1239 15.517 20.6612 15.3312 20.2911 15.3312C19.9209 15.3312 19.5508 15.3312 19.5508 14.7737C19.5508 13.7516 19.5508 12.6366 19.5508 11.6145C19.5508 10.9641 20.0135 11.057 20.3836 11.057C20.7538 11.057 21.1239 11.057 21.1239 11.6145C21.1239 12.172 21.1239 12.7295 21.1239 13.287Z" fill="#6FA599"/>
<path id="Vector_14" d="M12.6075 5.94657C12.6075 6.96864 12.6075 7.99072 12.6075 9.0128C12.6075 9.29155 12.6075 9.5703 12.2373 9.5703C11.8672 9.5703 11.8672 9.29155 11.8672 9.0128C11.8672 6.96864 11.8672 4.83157 11.8672 2.78742C11.8672 2.50867 11.8672 2.22992 12.2373 2.22992C12.6075 2.22992 12.6075 2.50867 12.6075 2.78742C12.6075 3.80949 12.6075 4.92449 12.6075 5.94657Z" fill="#6FA599"/>
<path id="Vector_15" d="M9.00203 5.94657C9.00203 6.96864 9.00203 7.99072 9.00203 9.0128C9.00203 9.29155 9.00203 9.5703 8.63187 9.5703C8.26172 9.5703 8.26172 9.29155 8.26172 9.0128C8.26172 6.96864 8.26172 4.83157 8.26172 2.78742C8.26172 2.50867 8.26172 2.22992 8.63187 2.22992C9.09457 2.22992 9.00203 2.60158 9.00203 2.78742C9.00203 3.90241 9.00203 4.92449 9.00203 5.94657Z" fill="#6FA599"/>
<path id="Vector_16" d="M16.3106 5.94663C16.3106 6.96871 16.3106 7.99079 16.3106 9.01287C16.3106 9.29162 16.3106 9.66328 15.9405 9.66328C15.5703 9.66328 15.5703 9.29162 15.5703 9.01287C15.5703 6.96871 15.5703 4.92456 15.5703 2.8804C15.5703 2.60165 15.5703 2.22999 15.9405 2.3229C16.3106 2.3229 16.3106 2.69457 16.3106 2.97331C16.3106 3.90248 16.3106 4.92456 16.3106 5.94663Z" fill="#6FA599"/>
<path id="Vector_17" d="M7.7989 5.94661C7.7989 6.96869 7.7989 7.99076 7.7989 9.01284C7.7989 9.29159 7.7989 9.66326 7.42875 9.66326C7.05859 9.66326 7.05859 9.29159 7.05859 9.01284C7.05859 6.96869 7.05859 5.01745 7.05859 2.97329C7.05859 2.88037 7.05859 2.88037 7.05859 2.78746C7.05859 2.50871 7.15113 2.32288 7.42875 2.32288C7.70636 2.32288 7.70636 2.60162 7.70636 2.78746C7.7989 3.80954 7.7989 4.83161 7.7989 5.94661Z" fill="#6FA599"/>
<path id="Vector_18" d="M17.5137 5.85365C17.5137 6.87573 17.5137 7.89781 17.5137 8.91988C17.5137 9.19863 17.5137 9.5703 17.1436 9.5703C16.7734 9.5703 16.7734 9.19863 16.7734 8.91988C16.7734 6.87573 16.7734 4.92449 16.7734 2.88033C16.7734 2.78742 16.7734 2.78742 16.7734 2.6945C16.7734 2.41575 16.866 2.22992 17.1436 2.22992C17.4212 2.22992 17.4212 2.50867 17.4212 2.6945C17.5137 3.71658 17.5137 4.83157 17.5137 5.85365Z" fill="#6FA599"/>
<path id="Vector_19" d="M17.8828 13.1941C17.8828 12.7295 17.8828 12.172 17.8828 11.7074C17.8828 11.3357 18.0679 11.1499 18.438 11.1499C18.8082 11.1499 19.0858 11.2428 19.0858 11.7074C19.0858 12.7295 19.0858 13.8445 19.0858 14.8665C19.0858 15.2382 18.9007 15.424 18.438 15.424C18.0679 15.424 17.8828 15.2382 17.8828 14.8665C17.9754 14.2161 17.8828 13.6586 17.8828 13.1941Z" fill="#6FA599"/>
<path id="Vector_20" d="M6.59484 13.287C6.59484 13.8445 6.59484 14.3091 6.59484 14.8665C6.59484 15.2382 6.40976 15.424 6.03961 15.424C5.66945 15.424 5.48438 15.3311 5.48438 14.8665C5.48438 13.7516 5.48438 12.7295 5.48438 11.6145C5.48438 11.2428 5.66945 11.1499 6.03961 11.1499C6.40976 11.1499 6.59484 11.2428 6.59484 11.6145C6.59484 12.172 6.59484 12.7295 6.59484 13.287Z" fill="#6FA599"/>
<path id="Vector_21" d="M11.4984 13.287C11.4984 13.8445 11.4984 14.309 11.4984 14.8665C11.4984 15.2382 11.3133 15.424 10.9432 15.424C10.573 15.424 10.4805 15.2382 10.4805 14.8665C10.4805 13.8445 10.4805 12.8224 10.4805 11.8003C10.4805 11.4286 10.573 11.2428 10.9432 11.2428C11.3133 11.2428 11.4984 11.4286 11.4984 11.8003C11.4984 12.172 11.4984 12.7295 11.4984 13.287Z" fill="#6FA599"/>
<path id="Vector_22" d="M13.0703 13.1941C13.0703 12.6366 13.0703 12.172 13.0703 11.6145C13.0703 11.2428 13.2554 11.1499 13.6255 11.1499C13.9032 11.1499 14.1808 11.2428 14.1808 11.6145C14.1808 12.7295 14.1808 13.8445 14.1808 14.9595C14.1808 15.3311 13.9032 15.424 13.6255 15.424C13.2554 15.424 13.0703 15.3311 13.0703 14.9595C13.0703 14.3091 13.0703 13.7516 13.0703 13.1941Z" fill="#6FA599"/>
<path id="Vector_23" d="M22.0486 5.94661C22.0486 6.96869 22.0486 7.99076 22.0486 9.01284C22.0486 9.19867 22.0486 9.47742 21.8636 9.47742C21.5859 9.47742 21.5859 9.19867 21.5859 9.01284C21.5859 6.96869 21.5859 4.83161 21.5859 2.78746C21.5859 2.60162 21.5859 2.32288 21.771 2.32288C22.0486 2.32288 22.0486 2.60162 22.0486 2.78746C22.0486 3.80953 22.0486 4.83161 22.0486 5.94661Z" fill="#6FA599"/>
<path id="Vector_24" d="M2.52262 5.85365C2.52262 4.83157 2.52262 3.80949 2.52262 2.78742C2.52262 2.60158 2.43008 2.22992 2.7077 2.22992C3.07785 2.22992 2.98531 2.60158 2.98531 2.78742C2.98531 4.83157 2.98531 6.87573 2.98531 8.91988C2.98531 9.10572 2.98531 9.38447 2.80023 9.38447C2.43008 9.38447 2.52262 9.10572 2.52262 8.91988C2.52262 7.99072 2.52262 6.87573 2.52262 5.85365Z" fill="#6FA599"/>
<path id="Vector_25" d="M12.6075 13.194C12.6075 13.7515 12.6075 14.2161 12.6075 14.7736C12.6075 15.0524 12.6075 15.3311 12.2373 15.3311C11.8672 15.3311 11.8672 15.0524 11.8672 14.8665C11.8672 13.8445 11.8672 12.7295 11.8672 11.7074C11.8672 11.4286 11.9597 11.2428 12.2373 11.2428C12.6075 11.2428 12.6075 11.5215 12.6075 11.7074C12.6075 12.172 12.6075 12.7295 12.6075 13.194Z" fill="#6FA599"/>
<path id="Vector_26" d="M16.3106 13.1941C16.3106 13.7516 16.3106 14.2161 16.3106 14.7736C16.3106 15.0524 16.2181 15.2382 15.9405 15.2382C15.5703 15.2382 15.5703 14.9595 15.5703 14.7736C15.5703 13.7516 15.5703 12.6366 15.5703 11.6145C15.5703 11.3357 15.6629 11.1499 15.9405 11.1499C16.3106 11.1499 16.3106 11.4287 16.3106 11.6145C16.3106 12.172 16.3106 12.7295 16.3106 13.1941Z" fill="#6FA599"/>
<path id="Vector_27" d="M7.7989 13.194C7.7989 13.7515 7.7989 14.309 7.7989 14.7736C7.7989 14.9594 7.7989 15.2382 7.42875 15.2382C7.05859 15.2382 7.05859 15.0523 7.05859 14.7736C7.05859 13.6586 7.05859 12.6365 7.05859 11.5215C7.05859 11.2428 7.15113 11.0569 7.42875 11.0569C7.70636 11.0569 7.70636 11.3357 7.70636 11.5215C7.7989 12.1719 7.7989 12.7294 7.7989 13.194Z" fill="#6FA599"/>
<path id="Vector_28" d="M9.00203 13.1941C9.00203 13.7516 9.00203 14.2161 9.00203 14.7736C9.00203 15.0524 9.00203 15.2382 8.63187 15.3311C8.26172 15.3311 8.26172 15.0524 8.26172 14.7736C8.26172 13.7516 8.26172 12.6366 8.26172 11.6145C8.26172 11.3357 8.35426 11.1499 8.63187 11.1499C9.00203 11.1499 9.00203 11.4287 9.00203 11.6145C9.00203 12.172 9.00203 12.7295 9.00203 13.1941Z" fill="#6FA599"/>
<path id="Vector_29" d="M17.515 13.194C17.515 13.7515 17.515 14.2161 17.515 14.7736C17.515 14.9594 17.515 15.2382 17.2373 15.2382C16.8672 15.2382 16.8672 15.0523 16.8672 14.7736C16.8672 13.6586 16.8672 12.6365 16.8672 11.5215C16.8672 11.3357 16.9597 11.0569 17.2373 11.0569C17.6075 11.0569 17.6075 11.3357 17.6075 11.5215C17.515 12.1719 17.515 12.7294 17.515 13.194Z" fill="#6FA599"/>
<path id="Vector_30" d="M9.92793 5.85369C9.92793 6.87577 9.92793 7.99076 9.92793 9.01284C9.92793 9.19867 10.0205 9.38451 9.74285 9.47742C9.46524 9.47742 9.55777 9.19867 9.55777 9.10576C9.55777 6.96869 9.55777 4.83161 9.55777 2.78746C9.55777 2.60162 9.55777 2.32288 9.74285 2.32288C10.0205 2.32288 9.92793 2.60162 9.92793 2.78746C9.92793 3.80953 9.92793 4.83161 9.92793 5.85369Z" fill="#6FA599"/>
<path id="Vector_31" d="M15.0174 5.85365C15.0174 6.87573 15.0174 7.99072 15.0174 9.0128C15.0174 9.19863 15.1099 9.47738 14.8323 9.47738C14.5547 9.47738 14.5547 9.19863 14.5547 9.0128C14.5547 6.87573 14.5547 4.83157 14.5547 2.6945C14.5547 2.50867 14.5547 2.22992 14.7398 2.22992C15.0174 2.22992 14.9248 2.50867 14.9248 2.6945C15.0174 3.80949 15.0174 4.83157 15.0174 5.85365Z" fill="#6FA599"/>
<path id="Vector_32" d="M22.0486 13.194C22.0486 13.7515 22.0486 14.309 22.0486 14.8665C22.0486 15.0524 22.0486 15.2382 21.8636 15.2382C21.5859 15.2382 21.5859 15.0524 21.5859 14.8665C21.5859 13.7515 21.5859 12.7295 21.5859 11.6145C21.5859 11.4286 21.5859 11.2428 21.771 11.2428C22.0486 11.2428 22.0486 11.5215 22.0486 11.7074C22.0486 12.172 22.0486 12.6365 22.0486 13.194Z" fill="#6FA599"/>
<path id="Vector_33" d="M2.98613 13.287C2.98613 13.8445 2.98613 14.402 2.98613 14.8665C2.98613 15.0524 2.98613 15.2382 2.70851 15.2382C2.52344 15.2382 2.52344 15.0524 2.52344 14.8665C2.52344 13.7516 2.52344 12.6366 2.52344 11.5216C2.52344 11.3357 2.52344 11.1499 2.70851 11.1499C2.89359 11.1499 2.98613 11.3357 2.98613 11.5216C2.98613 12.0791 2.98613 12.6366 2.98613 13.287Z" fill="#6FA599"/>
<path id="Vector_34" d="M9.92484 13.287C9.92484 13.8445 9.92484 14.4019 9.92484 14.8665C9.92484 15.0524 9.92484 15.2382 9.73976 15.2382C9.55469 15.2382 9.55469 15.0524 9.55469 14.8665C9.55469 13.7515 9.55469 12.7295 9.55469 11.6145C9.55469 11.4286 9.55469 11.2428 9.73976 11.2428C10.0174 11.2428 9.92484 11.5215 9.92484 11.6145C9.92484 12.172 9.92484 12.7295 9.92484 13.287Z" fill="#6FA599"/>
<path id="Vector_35" d="M15.0186 13.194C15.0186 13.7515 15.0186 14.309 15.0186 14.9594C15.0186 15.0524 15.0186 15.2382 14.8335 15.2382C14.6484 15.2382 14.6484 15.0524 14.6484 14.9594C14.6484 13.8445 14.6484 12.7295 14.6484 11.6145C14.6484 11.4286 14.6484 11.2428 14.9261 11.2428C15.1111 11.2428 15.1111 11.4286 15.1111 11.6145C15.0186 12.079 15.0186 12.6365 15.0186 13.194Z" fill="#6FA599"/>
</g>
</svg>
