<svg width="50" height="50" viewBox="0 0 50 50" fill="none" xmlns="http://www.w3.org/2000/svg">
<path d="M24.9996 47.4001C12.5996 47.4001 2.59961 37.4001 2.59961 25.0001C2.59961 12.6001 12.5996 2.6001 24.9996 2.6001C37.3996 2.6001 47.3996 12.6001 47.3996 25.0001C47.3996 37.4001 37.3996 47.4001 24.9996 47.4001Z" fill="#3CDA7E"/>
<path d="M36.9003 18.7998C36.9003 19.2998 36.6003 19.6999 36.3003 19.9999C32.5003 23.7999 28.8003 27.4998 25.0003 31.2998C24.0003 32.2998 23.0003 33.2999 22.1003 34.1999C21.3003 34.9998 20.2003 34.9998 19.5003 33.9998C17.5003 31.2998 15.4003 28.5998 13.4003 25.8998C12.9003 25.1999 12.9003 24.4998 13.3003 23.8998C13.7003 23.3998 14.4003 23.1999 15.1003 23.3998C15.5003 23.4998 15.7003 23.7999 15.9003 24.0999C17.5003 26.1999 19.1003 28.2999 20.6003 30.3998C20.8003 30.6999 21.0003 30.6999 21.2003 30.3998C25.4003 26.0998 29.7003 21.8999 34.0003 17.5999C34.4003 17.1999 34.9003 16.8999 35.6003 16.9999C36.4003 17.3999 36.9003 17.9998 36.9003 18.7998Z" fill="#F3F3F3"/>
</svg>
