<svg width="22" height="22" viewBox="0 0 22 22" fill="none" xmlns="http://www.w3.org/2000/svg">
<g clip-path="url(#clip0_4425_7052)">
<path d="M1.375 21.1406L20.625 21.1406C20.7618 21.1406 20.8929 21.0863 20.9896 20.9896C21.0863 20.8929 21.1406 20.7618 21.1406 20.625L21.1406 15.0253C21.1406 14.8886 21.0863 14.7574 20.9896 14.6607C20.8929 14.564 20.7618 14.5097 20.625 14.5097L17.8991 14.5097L17.8991 2.75C17.8982 2.24885 17.6987 1.7685 17.3443 1.41413C16.9899 1.05977 16.5096 0.860282 16.0084 0.859375L5.99156 0.859374C5.49042 0.860282 5.01006 1.05977 4.65569 1.41413C4.30133 1.76849 4.10185 2.24885 4.10094 2.75L4.10094 14.5097L1.375 14.5097C1.23825 14.5097 1.1071 14.564 1.0104 14.6607C0.913701 14.7574 0.859376 14.8886 0.859376 15.0253L0.859375 20.625C0.859375 20.7618 0.9137 20.8929 1.0104 20.9896C1.1071 21.0863 1.23825 21.1406 1.375 21.1406ZM7.85813 9.82094C7.95525 9.72521 8.08613 9.67154 8.2225 9.67154C8.35887 9.67154 8.48976 9.72521 8.58688 9.82094L10.4844 11.7184L10.4844 4.125C10.4844 3.98825 10.5387 3.85709 10.6354 3.7604C10.7321 3.6637 10.8632 3.60937 11 3.60937C11.1368 3.60937 11.2679 3.6637 11.3646 3.7604C11.4613 3.85709 11.5156 3.98825 11.5156 4.125L11.5156 11.7184L13.4063 9.82094C13.8738 9.34312 14.6163 10.0856 14.135 10.5497L11.3575 13.3272C11.3096 13.3755 11.2525 13.4139 11.1897 13.4401C11.1269 13.4662 11.0595 13.4797 10.9914 13.4797C10.9233 13.4797 10.8559 13.4662 10.7931 13.4401C10.7303 13.4139 10.6732 13.3755 10.6253 13.3272L7.85125 10.5497C7.80347 10.5016 7.76572 10.4445 7.74017 10.3817C7.71463 10.3189 7.70181 10.2517 7.70245 10.1839C7.70308 10.1161 7.71717 10.0491 7.7439 9.9868C7.77062 9.9245 7.80945 9.86812 7.85813 9.82094ZM1.89063 15.5409L4.10094 15.5409L4.10094 17.875C4.10094 18.0118 4.15526 18.1429 4.25196 18.2396C4.34866 18.3363 4.47981 18.3906 4.61656 18.3906L17.3834 18.3906C17.5202 18.3906 17.6513 18.3363 17.748 18.2396C17.8447 18.1429 17.8991 18.0118 17.8991 17.875L17.8991 15.5409L20.1094 15.5409L20.1094 20.1094L1.89063 20.1094L1.89063 15.5409Z" fill="#9D9D9D"/>
</g>
<defs>
<clipPath id="clip0_4425_7052">
<rect width="22" height="22" fill="white" transform="translate(22 22) rotate(-180)"/>
</clipPath>
</defs>
</svg>
