<svg width="41" height="41" viewBox="0 0 41 41" fill="none" xmlns="http://www.w3.org/2000/svg">
<g clip-path="url(#clip0_4017_2718)">
<path d="M2.45996 20.5584C2.45996 25.5812 2.45996 30.604 2.45996 35.6268C2.45996 37.7293 3.3971 38.6638 5.38853 38.6638C9.9571 38.6638 14.4085 38.6638 18.9771 38.6638C19.3285 38.6638 19.68 38.6638 19.9142 38.7806C20.5 39.0142 20.8514 39.3647 20.7342 40.0655C20.6171 40.6496 20.2657 41 19.68 41C19.4457 41 19.3285 41 19.0942 41C14.4085 41 9.72281 41 5.0371 41C2.10853 41 -0.117188 38.8974 -0.117188 35.9772C-0.117188 25.698 -0.117188 15.4188 -0.117188 5.02279C-4.46439e-05 2.10256 2.22567 0 5.15424 0C12.5342 0 20.0314 0 27.4114 0C30.34 0 32.4485 2.10256 32.4485 5.02279C32.4485 8.76068 32.4485 12.4986 32.4485 16.2365C32.4485 16.4701 32.4485 16.7037 32.3314 16.9373C32.2142 17.5214 31.7457 17.8718 31.16 17.755C30.5742 17.6382 30.1057 17.2878 30.1057 16.7037C30.1057 16.0028 30.1057 15.4188 30.1057 14.7179C30.1057 11.5641 30.1057 8.41026 30.1057 5.25641C30.1057 3.27066 29.1685 2.33618 27.1771 2.33618C19.9142 2.33618 12.5342 2.33618 5.27138 2.33618C3.3971 2.33618 2.45996 3.38746 2.45996 5.25641C2.45996 10.396 2.45996 15.4188 2.45996 20.5584Z" fill="#12D1A7"/>
<path d="M33.3861 31.0711C34.2061 30.2535 35.0261 29.5526 35.8461 28.735C36.1975 28.3845 36.6661 28.1509 37.1347 28.2677C38.0718 28.6182 38.3061 29.6694 37.4861 30.3703C36.1975 31.5384 34.909 32.8233 33.7375 33.9914C33.3861 34.3418 33.1518 34.5754 32.8004 34.809C32.0975 35.3931 31.5118 35.3931 30.9261 34.809C29.4033 33.4073 27.8804 32.0056 26.4747 30.6039C25.889 30.0199 25.889 29.319 26.3575 28.8518C26.8261 28.3845 27.529 28.2677 28.1147 28.8518C28.8175 29.4358 29.5204 30.1367 30.2233 30.8375C30.3404 30.9543 30.4575 31.188 30.6918 31.0711C30.9261 30.9543 30.809 30.7207 30.809 30.6039C30.809 27.8005 30.809 24.8803 30.809 22.0768C30.809 21.8432 30.809 21.4928 30.9261 21.2592C31.0433 20.6751 31.5118 20.3247 32.0975 20.3247C32.8004 20.3247 33.1518 20.7919 33.269 21.376C33.269 21.6096 33.269 21.8432 33.269 22.1937C33.269 24.8803 33.269 27.5669 33.269 30.3703C33.269 30.6039 33.269 30.8375 33.269 31.0711C33.269 31.0711 33.269 31.0711 33.3861 31.0711Z" fill="#12D1A7"/>
<path d="M31.9809 41C29.5209 41 27.0609 41 24.4837 41C23.3123 41 22.9609 40.5327 22.8438 39.4814C22.8438 38.4302 22.8438 37.4957 22.8438 36.4444C22.8438 36.3276 22.8438 36.094 22.8438 35.9772C22.9609 35.2763 23.5466 34.8091 24.1323 34.8091C24.718 34.8091 25.1866 35.3931 25.1866 36.094C25.1866 36.678 25.1866 37.3789 25.1866 37.9629C25.1866 38.4302 25.4209 38.547 25.7723 38.547C29.7552 38.547 33.738 38.547 37.6037 38.547C38.0723 38.547 38.3066 38.4302 38.1895 37.9629C38.1895 37.3789 38.1895 36.7948 38.1895 36.2108C38.1895 35.5099 38.658 34.9259 39.3609 34.9259C40.0637 34.9259 40.6495 35.3931 40.6495 36.094C40.6495 37.2621 40.6495 38.547 40.6495 39.8319C40.6495 40.6495 40.0637 41 39.2437 41C37.018 41 34.4409 41 31.9809 41Z" fill="#12D1A7"/>
<path d="M16.0488 9.46143C18.9773 9.46143 22.023 9.46143 24.9516 9.46143C25.8888 9.46143 26.4745 9.81185 26.4745 10.6295C26.4745 11.4472 26.0059 11.7976 24.9516 11.7976C18.9773 11.7976 13.1202 11.7976 7.1459 11.7976C6.20876 11.7976 5.62305 11.3304 5.62305 10.6295C5.62305 9.92866 6.20876 9.46143 7.1459 9.46143C10.1916 9.46143 13.1202 9.46143 16.0488 9.46143Z" fill="#12D1A7"/>
<path d="M12.1831 17.9885C13.8231 17.9885 15.4631 17.9885 17.1031 17.9885C18.0403 17.9885 18.626 18.8062 18.2746 19.6239C18.0403 20.0911 17.6889 20.3247 17.1031 20.3247C13.8231 20.3247 10.426 20.3247 7.14599 20.3247C6.32599 20.3247 5.85742 19.8575 5.85742 19.1566C5.85742 18.4558 6.32599 17.9885 7.14599 17.9885C8.78599 17.9885 10.5431 17.9885 12.1831 17.9885Z" fill="#12D1A7"/>
</g>
<defs>
<clipPath id="clip0_4017_2718">
<rect width="41" height="41" fill="white"/>
</clipPath>
</defs>
</svg>
