<svg width="15" height="13" viewBox="0 0 15 13" fill="none" xmlns="http://www.w3.org/2000/svg">
<path d="M0.00018598 10.9078C0.000185973 11.0811 0.14081 11.2217 0.31408 11.2217L5.47529 11.2217C5.64856 11.2217 5.78918 11.0811 5.78918 10.9078C5.78918 10.7345 5.64856 10.5939 5.47529 10.5939L0.31408 10.5939C0.140811 10.5939 0.000185988 10.7344 0.00018598 10.9078Z" fill="#2D2D2D"/>
<path d="M4.80945 1.55537C4.80945 1.72864 4.95008 1.86926 5.12334 1.86926L13.8115 1.86926C13.9847 1.86926 14.1254 1.72864 14.1254 1.55537C14.1254 1.3821 13.9847 1.24147 13.8115 1.24147L5.12334 1.24147C4.94992 1.24147 4.80945 1.3821 4.80945 1.55537Z" fill="#2D2D2D"/>
<path d="M1.90872e-05 6.23152C1.90796e-05 6.40478 0.140644 6.54541 0.313914 6.54541L9.74299 6.54541C9.91626 6.54541 10.0569 6.40479 10.0569 6.23152C10.0569 6.05825 9.91626 5.91762 9.74299 5.91762L0.313914 5.91762C0.140644 5.91762 1.90948e-05 6.05825 1.90872e-05 6.23152Z" fill="#2D2D2D"/>
<path d="M9.4291 6.23152C9.4291 7.08908 10.1267 7.78687 10.9844 7.78687C11.8422 7.78687 12.5398 7.08923 12.5398 6.23152C12.5398 5.3738 11.8422 4.67617 10.9844 4.67617C10.1267 4.67617 9.4291 5.3738 9.4291 6.23152ZM11.9118 6.23152C11.9118 6.74301 11.4958 7.15908 10.9843 7.15908C10.4728 7.15908 10.0567 6.74301 10.0567 6.23152C10.0567 5.72003 10.4728 5.30396 10.9843 5.30396C11.4958 5.30396 11.9118 5.72003 11.9118 6.23152Z" fill="#2D2D2D"/>
<path d="M5.16128 10.9078C5.16128 11.7653 5.85891 12.4631 6.71662 12.4631C7.57418 12.4631 8.27197 11.7655 8.27197 10.9078C8.27197 10.0501 7.57434 9.35244 6.71663 9.35244C5.85891 9.35244 5.16128 10.0502 5.16128 10.9078ZM7.64418 10.9078C7.64418 11.4193 7.22812 11.8353 6.71663 11.8353C6.20513 11.8353 5.78907 11.4193 5.78907 10.9078C5.78907 10.3963 6.20513 9.98023 6.71663 9.98023C7.22812 9.98023 7.64418 10.3963 7.64418 10.9078Z" fill="#2D2D2D"/>
<path d="M2.32647 1.55541C2.32647 2.41297 3.02411 3.1106 3.88182 3.1106C4.73938 3.1106 5.43701 2.41297 5.43701 1.55541C5.43701 0.697689 4.73938 5.83821e-05 3.88182 5.83446e-05C3.02426 5.83071e-05 2.32647 0.697689 2.32647 1.55541ZM4.80938 1.55541C4.80938 2.0669 4.39347 2.48281 3.88198 2.48281C3.37049 2.48281 2.95442 2.0669 2.95442 1.55541C2.95442 1.04391 3.37049 0.627847 3.88198 0.627847C4.39347 0.627847 4.80938 1.04392 4.80938 1.55541Z" fill="#2D2D2D"/>
<path d="M7.64423 10.9078C7.64423 11.0811 7.78485 11.2217 7.95812 11.2217L13.8115 11.2217C13.9847 11.2217 14.1254 11.0811 14.1254 10.9078C14.1254 10.7345 13.9847 10.5939 13.8115 10.5939L7.95812 10.5939C7.7847 10.5939 7.64423 10.7344 7.64423 10.9078Z" fill="#2D2D2D"/>
<path d="M11.9119 6.23152C11.9119 6.40479 12.0526 6.54541 12.2258 6.54541L13.8115 6.54541C13.9847 6.54541 14.1254 6.40479 14.1254 6.23152C14.1254 6.05825 13.9847 5.91762 13.8115 5.91762L12.2258 5.91762C12.0526 5.91762 11.9119 6.05825 11.9119 6.23152Z" fill="#2D2D2D"/>
<path d="M6.2126e-06 1.55537C6.20503e-06 1.72864 0.140631 1.86926 0.313901 1.86926L2.64033 1.86926C2.8136 1.86926 2.95422 1.72864 2.95422 1.55537C2.95422 1.3821 2.8136 1.24147 2.64033 1.24147L0.313901 1.24147C0.140631 1.24147 6.22018e-06 1.3821 6.2126e-06 1.55537Z" fill="#2D2D2D"/>
</svg>
