<svg width="15" height="13" viewBox="0 0 15 13" fill="none" xmlns="http://www.w3.org/2000/svg">
<path d="M6.39099e-05 10.9078C6.39023e-05 11.0811 0.140688 11.2217 0.313958 11.2217L5.47517 11.2217C5.64844 11.2217 5.78906 11.0811 5.78906 10.9078C5.78906 10.7345 5.64844 10.5939 5.47517 10.5939L0.313958 10.5939C0.140688 10.5939 6.39175e-05 10.7344 6.39099e-05 10.9078Z" fill="#2D2D2D"/>
<path d="M4.80908 1.55525C4.80908 1.72852 4.94971 1.86914 5.12298 1.86914L13.8111 1.86914C13.9844 1.86914 14.125 1.72852 14.125 1.55525C14.125 1.38198 13.9844 1.24135 13.8111 1.24135L5.12298 1.24135C4.94955 1.24135 4.80908 1.38198 4.80908 1.55525Z" fill="#2D2D2D"/>
<path d="M-0.000225053 6.23103C-0.000225061 6.4043 0.1404 6.54492 0.31367 6.54492L9.74275 6.54492C9.91602 6.54492 10.0566 6.4043 10.0566 6.23103C10.0566 6.05776 9.91602 5.91713 9.74275 5.91713L0.31367 5.91713C0.1404 5.91713 -0.000225046 6.05776 -0.000225053 6.23103Z" fill="#2D2D2D"/>
<path d="M9.42837 6.23176C9.42837 7.08932 10.126 7.78711 10.9837 7.78711C11.8414 7.78711 12.5391 7.08948 12.5391 6.23176C12.5391 5.37405 11.8414 4.67642 10.9837 4.67642C10.126 4.67642 9.42837 5.37405 9.42837 6.23176ZM11.9111 6.23176C11.9111 6.74325 11.495 7.15932 10.9836 7.15932C10.4721 7.15932 10.056 6.74325 10.056 6.23176C10.056 5.72027 10.4721 5.3042 10.9836 5.3042C11.495 5.3042 11.9111 5.72027 11.9111 6.23176Z" fill="#2D2D2D"/>
<path d="M5.16079 10.9075C5.16079 11.7651 5.85842 12.4629 6.71614 12.4629C7.5737 12.4629 8.27148 11.7653 8.27148 10.9075C8.27148 10.0498 7.57385 9.3522 6.71614 9.3522C5.85842 9.3522 5.16079 10.05 5.16079 10.9075ZM7.6437 10.9075C7.6437 11.419 7.22763 11.8351 6.71614 11.8351C6.20465 11.8351 5.78858 11.419 5.78858 10.9075C5.78858 10.3961 6.20465 9.97999 6.71614 9.97999C7.22763 9.97999 7.6437 10.3961 7.6437 10.9075Z" fill="#2D2D2D"/>
<path d="M2.32696 1.55516C2.32696 2.41272 3.02459 3.11035 3.88231 3.11035C4.73987 3.11035 5.4375 2.41272 5.4375 1.55516C5.4375 0.697445 4.73987 -0.000185759 3.88231 -0.000185796C3.02475 -0.000185834 2.32696 0.697445 2.32696 1.55516ZM4.80987 1.55516C4.80987 2.06665 4.39396 2.48256 3.88247 2.48256C3.37098 2.48256 2.95491 2.06665 2.95491 1.55516C2.95491 1.04367 3.37098 0.627603 3.88247 0.627603C4.39396 0.627603 4.80987 1.04367 4.80987 1.55516Z" fill="#2D2D2D"/>
<path d="M7.64386 10.9078C7.64386 11.0811 7.78449 11.2217 7.95776 11.2217L13.8111 11.2217C13.9844 11.2217 14.125 11.0811 14.125 10.9078C14.125 10.7345 13.9844 10.5939 13.8111 10.5939L7.95776 10.5939C7.78433 10.5939 7.64386 10.7344 7.64386 10.9078Z" fill="#2D2D2D"/>
<path d="M11.9116 6.23103C11.9116 6.4043 12.0522 6.54492 12.2255 6.54492L13.8111 6.54492C13.9844 6.54492 14.125 6.4043 14.125 6.23103C14.125 6.05776 13.9844 5.91713 13.8111 5.91713L12.2255 5.91713C12.0522 5.91713 11.9116 6.05776 11.9116 6.23103Z" fill="#2D2D2D"/>
<path d="M-0.00109242 1.55525C-0.00109243 1.72852 0.139532 1.86914 0.312802 1.86914L2.63923 1.86914C2.8125 1.86914 2.95313 1.72852 2.95313 1.55525C2.95313 1.38198 2.8125 1.24135 2.63923 1.24135L0.312802 1.24135C0.139532 1.24135 -0.00109241 1.38198 -0.00109242 1.55525Z" fill="#2D2D2D"/>
</svg>
