<svg width="15" height="14" viewBox="0 0 15 14" fill="none" xmlns="http://www.w3.org/2000/svg">
<g id="Group 457">
<g id="Group">
<path id="Vector" d="M6.39099e-05 11.656C6.39023e-05 11.8292 0.140688 11.9698 0.313958 11.9698L5.47517 11.9698C5.64844 11.9698 5.78906 11.8292 5.78906 11.656C5.78906 11.4827 5.64844 11.3421 5.47517 11.3421L0.313958 11.3421C0.140688 11.3421 6.39175e-05 11.4825 6.39099e-05 11.656Z" fill="white"/>
<path id="Vector_2" d="M4.80957 2.30354C4.80957 2.47681 4.9502 2.61743 5.12347 2.61743L13.8116 2.61743C13.9849 2.61743 14.1255 2.47681 14.1255 2.30354C14.1255 2.13027 13.9849 1.98964 13.8116 1.98964L5.12347 1.98964C4.95004 1.98964 4.80957 2.13027 4.80957 2.30354Z" fill="white"/>
<path id="Vector_3" d="M0.000263228 6.97968C0.00026322 7.15295 0.140888 7.29358 0.314158 7.29358L9.74323 7.29358C9.9165 7.29358 10.0571 7.15295 10.0571 6.97968C10.0571 6.80641 9.9165 6.66579 9.74323 6.66579L0.314158 6.66579C0.140888 6.66579 0.000263235 6.80641 0.000263228 6.97968Z" fill="white"/>
<path id="Vector_4" d="M9.42935 6.97969C9.42935 7.83725 10.127 8.53503 10.9847 8.53503C11.8424 8.53503 12.54 7.8374 12.54 6.97969C12.54 6.12197 11.8424 5.42434 10.9847 5.42434C10.127 5.42434 9.42935 6.12197 9.42935 6.97969ZM11.9121 6.97969C11.9121 7.49118 11.496 7.90725 10.9845 7.90725C10.473 7.90725 10.057 7.49118 10.057 6.97969C10.057 6.4682 10.473 6.05213 10.9845 6.05213C11.496 6.05213 11.9121 6.4682 11.9121 6.97969Z" fill="white"/>
<path id="Vector_5" d="M5.16128 11.656C5.16128 12.5135 5.85891 13.2113 6.71662 13.2113C7.57418 13.2113 8.27197 12.5137 8.27197 11.656C8.27197 10.7982 7.57434 10.1006 6.71663 10.1006C5.85891 10.1006 5.16128 10.7984 5.16128 11.656ZM7.64418 11.656C7.64418 12.1674 7.22812 12.5835 6.71663 12.5835C6.20513 12.5835 5.78907 12.1674 5.78907 11.656C5.78907 11.1445 6.20513 10.7284 6.71663 10.7284C7.22812 10.7284 7.64418 11.1445 7.64418 11.656Z" fill="white"/>
<path id="Vector_6" d="M2.32647 2.30357C2.32647 3.16113 3.02411 3.85876 3.88182 3.85876C4.73938 3.85876 5.43701 3.16113 5.43701 2.30358C5.43701 1.44586 4.73938 0.748227 3.88182 0.748227C3.02426 0.748227 2.32647 1.44586 2.32647 2.30357ZM4.80938 2.30358C4.80938 2.81507 4.39347 3.23098 3.88198 3.23098C3.37049 3.23098 2.95442 2.81507 2.95442 2.30357C2.95442 1.79208 3.37049 1.37602 3.88198 1.37602C4.39347 1.37602 4.80938 1.79208 4.80938 2.30358Z" fill="white"/>
<path id="Vector_7" d="M7.64435 11.656C7.64435 11.8292 7.78498 11.9698 7.95825 11.9698L13.8116 11.9698C13.9849 11.9698 14.1255 11.8292 14.1255 11.656C14.1255 11.4827 13.9849 11.3421 13.8116 11.3421L7.95825 11.3421C7.78482 11.3421 7.64435 11.4825 7.64435 11.656Z" fill="white"/>
<path id="Vector_8" d="M11.9121 6.97968C11.9121 7.15295 12.0527 7.29358 12.226 7.29358L13.8116 7.29358C13.9849 7.29358 14.1255 7.15295 14.1255 6.97968C14.1255 6.80641 13.9849 6.66579 13.8116 6.66579L12.226 6.66579C12.0527 6.66579 11.9121 6.80641 11.9121 6.97968Z" fill="white"/>
<path id="Vector_9" d="M0.000372424 2.30354C0.000372416 2.47681 0.140997 2.61743 0.314267 2.61743L2.6407 2.61743C2.81397 2.61743 2.95459 2.47681 2.95459 2.30354C2.95459 2.13027 2.81397 1.98964 2.6407 1.98964L0.314267 1.98964C0.140997 1.98964 0.000372431 2.13027 0.000372424 2.30354Z" fill="white"/>
</g>
</g>
</svg>
