<svg width="23" height="23" viewBox="0 0 23 23" fill="none" xmlns="http://www.w3.org/2000/svg">
<path d="M18.4465 2.02148C18.3027 2.07539 18.1006 2.16523 17.9973 2.23262C17.8939 2.29551 17.1842 2.96934 16.416 3.73301L15.0234 5.12109L16.452 6.54512L17.8805 7.97363L19.2865 6.55859C20.6027 5.2334 20.7016 5.12109 20.8678 4.78867C21.0385 4.43379 21.043 4.42031 21.043 3.93516C21.0385 3.52637 21.0205 3.3916 20.9396 3.18945C20.742 2.69082 20.3018 2.25059 19.8076 2.05742C19.4437 1.91816 18.7924 1.90019 18.4465 2.02148Z" fill="#12D1A7"/>
<path d="M10.968 9.17754C9.06328 11.0822 7.5 12.668 7.5 12.6904C7.5 12.7488 10.2492 15.498 10.3076 15.498C10.366 15.498 17.293 8.57109 17.293 8.5127C17.293 8.4543 14.5437 5.70508 14.4854 5.70508C14.4584 5.70508 12.8771 7.26836 10.968 9.17754Z" fill="#12D1A7"/>
<path d="M3.33672 6.08691C2.77969 6.23965 2.37988 6.57207 2.12383 7.08867L1.95312 7.43008V13.5395V19.6533L2.05645 19.9139C2.20918 20.2822 2.61797 20.7135 3.0043 20.9021L3.30078 21.0459H9.43711H15.5689L15.9104 20.8752C16.4539 20.6102 16.8268 20.125 16.9346 19.5455C16.9615 19.3928 16.9795 17.807 16.9795 15.2645V11.2215L16.8492 11.0912C16.6785 10.925 16.4809 10.916 16.3281 11.0732L16.2158 11.1811V15.242C16.2158 19.6938 16.2248 19.577 15.9463 19.9094C15.8744 19.9992 15.7082 20.125 15.5779 20.1879L15.3443 20.3047H9.48203C5.40312 20.3047 3.56133 20.2912 3.44004 20.2553C3.20195 20.1879 2.82012 19.8061 2.74824 19.559C2.70781 19.4152 2.69434 17.9867 2.69434 13.517V7.65918L2.80215 7.43008C2.86055 7.3043 2.98633 7.13809 3.08066 7.06172C3.43105 6.76973 3.24238 6.7832 7.72559 6.7832H11.8L11.9213 6.66641C12.0785 6.50469 12.074 6.32051 11.9078 6.14981L11.7775 6.01953L7.67168 6.02402C4.28457 6.02402 3.52988 6.0375 3.33672 6.08691Z" fill="#12D1A7"/>
<path d="M6.43287 15.0354C6.10494 15.9697 5.83541 16.7693 5.8399 16.8143C5.8399 16.9266 6.08248 17.1602 6.19478 17.1602C6.26666 17.1602 9.60435 16.0146 9.64478 15.9742C9.64927 15.9697 9.06529 15.3768 8.34205 14.6535L7.03033 13.3418L6.43287 15.0354Z" fill="#12D1A7"/>
</svg>
