<svg width="24" height="24" viewBox="0 0 24 24" fill="none" xmlns="http://www.w3.org/2000/svg">
<g id="calendar_today_24px">
<path id="icon/action/calendar_today_24px" fill-rule="evenodd" clip-rule="evenodd" d="M20 3H19V1H17V3H7V1H5V3H4C2.9 3 2 3.9 2 5V21C2 22.1 2.9 23 4 23H20C21.1 23 22 22.1 22 21V5C22 3.9 21.1 3 20 3ZM20 21H4V10H20V21ZM4 8H20V5H4V8Z" fill="#2D2D2D"/>
<g id="Group 1213">
<path id="Path" d="M17.9352 11H15.8325V13.1027H17.9352V11Z" fill="#2D2D2D"/>
<path id="Path_2" d="M14.9909 11H12.8882V13.1027H14.9909V11Z" fill="#2D2D2D"/>
<path id="Path_3" d="M12.047 11H9.94434V13.1027H12.047V11Z" fill="#2D2D2D"/>
<path id="Path_4" d="M9.10268 11H7V13.1027H9.10268V11Z" fill="#2D2D2D"/>
<path id="Path_5" d="M12.047 13.9453H9.94434V16.048H12.047V13.9453Z" fill="#2D2D2D"/>
<path id="Path_6" d="M17.9352 13.9453H15.8325V16.048H17.9352V13.9453Z" fill="#2D2D2D"/>
<path id="Path_7" d="M17.9352 16.8887H15.8325V18.9914H17.9352V16.8887Z" fill="#2D2D2D"/>
<path id="Path_8" d="M14.9909 13.9453H12.8882V16.048H14.9909V13.9453Z" fill="#2D2D2D"/>
<path id="Path_9" d="M14.9909 16.8887H12.8882V18.9914H14.9909V16.8887Z" fill="#2D2D2D"/>
</g>
</g>
</svg>
