<svg width="64" height="53" viewBox="0 0 64 53" fill="none" xmlns="http://www.w3.org/2000/svg">
<path d="M30.5385 0.89698C29.4836 1.17184 28.4108 1.80241 27.8387 2.49764C27.2844 3.16054 1.01914 44.2765 0.429113 45.3921C0.107278 46.0065 0 46.4754 0 47.3323C0 49.321 1.19794 51.0025 3.20047 51.8433L4.02293 52.1828H32.0047H59.9864L60.8089 51.8433C62.0604 51.3097 63.0081 50.4528 63.5623 49.3372C63.9914 48.4479 64.0451 48.1892 63.9736 47.0898C63.902 46.1035 63.7769 45.667 63.3299 44.9232C61.2558 41.4471 36.4567 2.80484 35.974 2.30362C34.8118 1.05867 32.3801 0.428101 30.5385 0.89698ZM33.7926 16.2892C34.4899 16.6126 35.1694 17.4048 35.4018 18.1162C35.6521 18.957 35.6342 32.0856 35.3839 32.9425C35.0084 34.139 33.4887 35.1253 32.0047 35.1253C30.5206 35.1253 29.0009 34.139 28.6254 32.9425C28.3751 32.0856 28.3572 18.957 28.6075 18.1162C28.8221 17.4533 29.5015 16.6287 30.1094 16.3377C31.0928 15.8526 32.8092 15.8365 33.7926 16.2892ZM33.2205 39.5877C34.6151 40.1051 35.4554 41.1884 35.4554 42.4818C35.4733 43.8076 34.7045 44.8909 33.3814 45.3921C32.2013 45.8448 30.5385 45.6023 29.6267 44.8586C28.6254 44.0501 28.232 42.2231 28.84 41.1884C29.6982 39.6847 31.6292 38.9733 33.2205 39.5877Z" fill="#E42E30"/>
</svg>
