<svg width="14" height="10" viewBox="0 0 14 10" fill="none" xmlns="http://www.w3.org/2000/svg">
<path id="Vector" d="M4.49388 9.04073C4.42821 9.04079 4.36317 9.02998 4.3025 9.00891C4.24183 8.98784 4.18673 8.95694 4.14036 8.91797L0.140356 5.56573C0.0492769 5.4867 -0.00112031 5.38085 1.89013e-05 5.27098C0.00115811 5.16111 0.0537425 5.05601 0.146447 4.97832C0.239151 4.90063 0.364557 4.85656 0.495655 4.85561C0.626754 4.85465 0.753055 4.89689 0.847356 4.97322L4.49388 8.02919L13.1404 0.78291C13.2347 0.70658 13.361 0.664344 13.4921 0.665299C13.6232 0.666254 13.7486 0.710323 13.8413 0.788014C13.934 0.865706 13.9866 0.970804 13.9877 1.08067C13.9888 1.19054 13.9384 1.29639 13.8474 1.37542L4.84736 8.91796C4.80099 8.95693 4.7459 8.98783 4.68523 9.0089C4.62457 9.02997 4.55954 9.04078 4.49388 9.04073Z" fill="#20332F"/>
</svg>
