<svg width="14" height="10" viewBox="0 0 14 10" fill="none" xmlns="http://www.w3.org/2000/svg">
<g id="Group">
<path id="Vector" d="M10.2313 4.31327C11.2078 4.31327 11.9993 3.52173 11.9993 2.54531C11.9993 1.56889 11.2078 0.777344 10.2313 0.777344C9.25492 0.777344 8.46338 1.56889 8.46338 2.54531C8.46338 3.52173 9.25492 4.31327 10.2313 4.31327Z" fill="#2D2D2D"/>
<path id="Vector_2" d="M4.03458 5.65234C1.80634 5.65234 0 7.45868 0 9.68692H8.06916C8.06916 7.45868 6.26282 5.65234 4.03458 5.65234Z" fill="#2D2D2D"/>
<path id="Vector_3" d="M13.4359 8.72006C13.4359 6.95029 12.0013 5.51562 10.2315 5.51562C9.39889 5.51562 8.64088 5.83358 8.07129 6.3543C8.6406 7.04077 9.01948 7.85109 9.18134 8.72006H13.4359Z" fill="#2D2D2D"/>
<path id="Vector_4" d="M4.03459 4.452C5.26398 4.452 6.26059 3.45538 6.26059 2.226C6.26059 0.996614 5.26398 0 4.03459 0C2.80521 0 1.80859 0.996614 1.80859 2.226C1.80859 3.45538 2.80521 4.452 4.03459 4.452Z" fill="#2D2D2D"/>
</g>
</svg>
