<svg width="16" height="14" viewBox="0 0 16 14" fill="none" xmlns="http://www.w3.org/2000/svg">
<path d="M6.66264 0C2.99086 0 0 2.48449 0 5.53463C0 8.58477 2.99086 11.0693 6.66264 11.0693C8.25935 11.0693 9.72572 10.5983 10.8749 9.81641L14.853 13.121C14.9144 13.1741 14.9879 13.2165 15.0693 13.2457C15.1507 13.2749 15.2382 13.2904 15.3269 13.2911C15.4155 13.2919 15.5035 13.2779 15.5855 13.2501C15.6676 13.2222 15.7422 13.1811 15.8048 13.129C15.8675 13.0769 15.9171 13.015 15.9506 12.9468C15.9841 12.8787 16.0009 12.8056 16 12.732C15.9991 12.6584 15.9805 12.5856 15.9453 12.518C15.9101 12.4504 15.8591 12.3893 15.7951 12.3383L11.8171 9.03377C12.7583 8.07912 13.3253 6.86101 13.3253 5.53463C13.3253 2.48449 10.3344 0 6.66264 0ZM6.66264 1.10693C9.61428 1.10693 11.9928 3.08272 11.9928 5.53463C11.9928 7.98654 9.61428 9.96234 6.66264 9.96234C3.71101 9.96234 1.33253 7.98654 1.33253 5.53463C1.33253 3.08272 3.71101 1.10693 6.66264 1.10693Z" fill="#20332F" fill-opacity="0.56"/>
</svg>
