<svg width="32" height="30" viewBox="0 0 32 30" fill="none" xmlns="http://www.w3.org/2000/svg">
<path d="M0.926636 14.5665C0.926636 14.3262 0.926636 14.0859 0.926636 13.8413C1.10794 13.3607 1.46212 13.0191 1.83316 12.6776C6.27301 8.63832 10.7086 4.59902 15.1401 0.555513C15.9538 -0.18657 16.776 -0.186571 17.5982 0.563945C19.0613 1.90054 20.5244 3.2287 21.9875 4.56529C25.0612 7.36919 28.1392 10.1689 31.2129 12.977C31.7948 13.5082 31.955 14.1533 31.6936 14.7985C31.4364 15.4478 30.8672 15.8104 30.0998 15.8188C29.5179 15.823 28.9318 15.8399 28.35 15.8104C28.0464 15.7977 27.9958 15.8989 27.9958 16.1772C28.0042 20.2291 28.0042 24.2769 28 28.3288C28 29.0034 27.6627 29.3576 26.9881 29.3576C24.5257 29.3661 22.0634 29.3661 19.601 29.3576C18.9264 29.3576 18.5933 28.995 18.5933 28.3204C18.5933 25.9086 18.5891 23.4968 18.5975 21.0851C18.5975 20.8447 18.5553 20.7604 18.2897 20.7646C17.0037 20.7815 15.7177 20.7773 14.4317 20.7646C14.1745 20.7604 14.1197 20.8363 14.1239 21.0809C14.1323 23.5053 14.1281 25.9255 14.1281 28.3499C14.1281 28.9781 13.7992 29.3534 13.1837 29.3576C10.6707 29.3703 8.15773 29.3661 5.64477 29.3576C5.18097 29.3576 4.85209 29.0962 4.75089 28.6914C4.71295 28.5396 4.72138 28.371 4.72138 28.215C4.72138 24.2052 4.71716 20.1954 4.72981 16.1814C4.72981 15.8652 4.63705 15.7977 4.34612 15.8104C3.76426 15.8315 3.1824 15.823 2.59632 15.8146C1.79099 15.8062 1.2513 15.4098 0.981449 14.6593C0.977232 14.6298 0.947718 14.6003 0.926636 14.5665Z" fill="white"/>
</svg>
