<svg width="149" height="100" viewBox="0 0 149 100" fill="none" xmlns="http://www.w3.org/2000/svg">
<g id="Group 35">
<g id="Group 35_2">
<path id="Vector" d="M6.46981 91.9363H7.85085L4.61061 99.2624H3.25057L0 91.9363H1.49783L3.97296 97.588L6.46981 91.9363ZM11.0256 99.2624V91.9363H12.4066V99.2624H11.0256ZM19.1139 99.367C17.9558 99.367 16.7979 99.0113 16.1816 98.488L16.6598 97.4308C17.2547 97.9019 18.2 98.2368 19.1139 98.2368C20.2717 98.2368 20.7606 97.8286 20.7606 97.2842C20.7606 95.7041 16.3411 96.7402 16.3411 94.0191C16.3411 92.8363 17.2971 91.8318 19.3368 91.8318C20.2294 91.8318 21.1639 92.0619 21.8123 92.4807L21.3765 93.5375C20.7072 93.1503 19.9744 92.9619 19.3261 92.9619C18.179 92.9619 17.7115 93.4014 17.7115 93.9563C17.7115 95.5157 22.1203 94.5003 22.1203 97.1902C22.1203 98.3624 21.1536 99.367 19.1139 99.367ZM27.2848 99.2624V93.0875H24.82V91.9363H31.1303V93.0875H28.6659V99.2624H27.2848ZM37.9273 99.367C35.622 99.367 33.9224 97.7658 33.9224 95.5992C33.9224 93.433 35.622 91.8318 37.9273 91.8318C40.2327 91.8318 41.9324 93.4224 41.9324 95.5992C41.9324 97.7763 40.2327 99.367 37.9273 99.367ZM37.9273 98.1741C39.4252 98.1741 40.5406 97.0958 40.5406 95.5992C40.5406 94.1029 39.4252 93.0247 37.9273 93.0247C36.4295 93.0247 35.3141 94.1029 35.3141 95.5992C35.3141 97.0958 36.4295 98.1741 37.9273 98.1741ZM52.1394 99.2624H50.6523L49.1331 97.1169C49.0373 97.1274 48.9419 97.1274 48.8461 97.1274H47.1678V99.2624H45.7864V91.9363H48.8461C50.8007 91.9363 52.012 92.9202 52.012 94.5424C52.012 95.6518 51.4384 96.468 50.4291 96.8552L52.1394 99.2624ZM50.6202 94.5424C50.6202 93.6213 49.9936 93.0875 48.7824 93.0875H47.1678V96.0075H48.7824C49.9936 96.0075 50.6202 95.4635 50.6202 94.5424ZM55.9475 99.2624V91.9363H57.3286V99.2624H55.9475ZM67.2968 99.2624L66.553 97.5669H62.835L62.1019 99.2624H60.6785L64.0248 91.9363H65.3845L68.7415 99.2624H67.2968ZM63.3024 96.4996H66.0962L64.6942 93.2969L63.3024 96.4996ZM82.8219 91.9363H84.2029L80.9627 99.2624H79.603L76.3521 91.9363H77.8503L80.3254 97.588L82.8219 91.9363ZM88.7591 98.1218H92.9553V99.2624H87.378V91.9363H92.8064V93.0769H88.7591V94.9819H92.3496V96.1018H88.7591V98.1218ZM96.8851 99.2624V91.9363H98.2662V99.2624H96.8851ZM106.11 99.367C103.837 99.367 102.137 97.7868 102.137 95.5992C102.137 93.4119 103.837 91.8318 106.121 91.8318C107.332 91.8318 108.373 92.2608 109.063 93.0563L108.171 93.883C107.629 93.3074 106.96 93.0247 106.184 93.0247C104.644 93.0247 103.528 94.0924 103.528 95.5992C103.528 97.1064 104.644 98.1741 106.184 98.1741C106.96 98.1741 107.629 97.8914 108.171 97.3052L109.063 98.1425C108.373 98.938 107.332 99.367 106.11 99.367ZM115.923 99.367C113.883 99.367 112.661 98.2053 112.661 96.0702V91.9363H114.042V96.018C114.042 97.5252 114.733 98.1741 115.933 98.1741C117.134 98.1741 117.814 97.5252 117.814 96.018V91.9363H119.173V96.0702C119.173 98.2053 117.952 99.367 115.923 99.367ZM123.498 99.2624V91.9363H124.879V98.1113H128.767V99.2624H123.498ZM137.867 99.2624L137.123 97.5669H133.404L132.671 99.2624H131.248L134.594 91.9363H135.954L139.311 99.2624H137.867ZM133.872 96.4996H136.666L135.264 93.2969L133.872 96.4996ZM149 99.2624H147.513L145.994 97.1169C145.898 97.1274 145.802 97.1274 145.707 97.1274H144.028V99.2624H142.647V91.9363H145.707C147.661 91.9363 148.873 92.9202 148.873 94.5424C148.873 95.6518 148.299 96.468 147.29 96.8552L149 99.2624ZM147.481 94.5424C147.481 93.6213 146.854 93.0875 145.643 93.0875H144.028V96.0075H145.643C146.854 96.0075 147.481 95.4635 147.481 94.5424Z" fill="#F8F8F8"/>
<path id="Vector_2" d="M11.3782 28.3882V71.3944H37.5562V78.5679H4.09668V28.3882H11.3782ZM89.948 71.3944C89.948 72.374 89.7586 73.3074 89.3798 74.1937C89.001 75.0569 88.4801 75.8152 87.8168 76.4683C87.1539 77.1214 86.3724 77.6349 85.4727 78.0081C84.5965 78.3813 83.6612 78.5679 82.6665 78.5679H53.5758C52.5811 78.5679 51.634 78.3813 50.7344 78.0081C49.8582 77.6349 49.0884 77.1214 48.4255 76.4683C47.7625 75.8152 47.2413 75.0569 46.8625 74.1937C46.4837 73.3074 46.2943 72.374 46.2943 71.3944V35.5617C46.2943 34.5817 46.4837 33.6603 46.8625 32.7971C47.2413 31.9108 47.7625 31.1524 48.4255 30.5225C49.0884 29.8694 49.8582 29.3562 50.7344 28.9831C51.634 28.5864 52.5811 28.3882 53.5758 28.3882H82.6665C83.6612 28.3882 84.5965 28.5864 85.4727 28.9831C86.3724 29.3562 87.1539 29.8694 87.8168 30.5225C88.4801 31.1524 89.001 31.9108 89.3798 32.7971C89.7586 33.6603 89.948 34.5817 89.948 35.5617V71.3944ZM53.5758 35.5617V71.3944H82.6665V35.5617H53.5758ZM103.055 35.5617C103.055 34.5817 103.244 33.6603 103.623 32.7971C104.002 31.9108 104.523 31.1524 105.186 30.5225C105.849 29.8694 106.619 29.3562 107.495 28.9831C108.395 28.5864 109.342 28.3882 110.337 28.3882H137.971C138.965 28.3882 139.901 28.5864 140.777 28.9831C141.677 29.3562 142.458 29.8694 143.121 30.5225C143.784 31.1524 144.306 31.9108 144.684 32.7971C145.063 33.6603 145.253 34.5817 145.253 35.5617V42.0352H137.971V35.5617H110.337V71.3944H137.971V59.2167H124.154V52.0431H145.253V71.3944C145.253 72.374 145.063 73.3074 144.684 74.1937C144.306 75.0569 143.784 75.8152 143.121 76.4683C142.458 77.1214 141.677 77.6349 140.777 78.0081C139.901 78.3813 138.965 78.5679 137.971 78.5679H110.337C109.342 78.5679 108.395 78.3813 107.495 78.0081C106.619 77.6349 105.849 77.1214 105.186 76.4683C104.523 75.8152 104.002 75.0569 103.623 74.1937C103.244 73.3074 103.055 72.374 103.055 71.3944V35.5617Z" fill="#F8F8F8"/>
<path id="Vector_3" d="M55.8482 36.0238C52.5766 31.4771 44.9198 35.8323 48.2092 40.4142C53.8501 48.271 58.5889 56.5284 62.1966 65.4655C63.6819 69.1063 69.6764 70.0821 70.7374 65.4655C75.7418 43.5152 85.2553 18.1328 107.307 7.97645C112.452 5.60713 107.978 -1.90139 102.85 0.450396C82.6381 9.77053 71.5862 30.6931 65.3087 51.4067C62.5391 46.0592 59.3772 40.9179 55.8482 36.0238Z" fill="#50D05D"/>
</g>
</g>
</svg>
