<svg width="96" height="58" viewBox="0 0 96 58" fill="none" xmlns="http://www.w3.org/2000/svg">
<path d="M34.6362 41.5904C35.0181 40.5531 36.0857 40.045 37.21 40.045C37.9156 40.0268 38.6396 40.2331 39.1734 40.6289L38.5828 42.834C38.0306 42.4761 37.4585 42.3245 36.8664 42.3442C35.7038 42.3442 34.7114 43.0979 34.7114 44.4932V49.4129H32.0992V43.0039C32.0992 42.2501 32.0225 41.7603 31.1835 41.8922V40.271C32.5179 39.9692 34.4813 39.9692 34.6347 41.5904H34.6362ZM26.519 46.1523V45.6806C25.9852 45.3227 25.2796 45.1529 24.6124 45.1529C23.7734 45.209 23.0877 45.6806 23.1828 46.5663C23.2396 47.226 23.8317 47.546 24.4406 47.546C25.318 47.546 26.4239 47.1123 26.519 46.1508V46.1523ZM27.0911 48.0192C26.5389 49.1506 25.0894 49.5843 23.9068 49.5843C22.1904 49.5843 20.6274 48.4909 20.5707 46.7377C20.4756 44.5129 22.0953 43.4573 24.1354 43.4573C24.956 43.4573 25.8901 43.6075 26.5757 44.0412V43.4194C26.5757 42.3078 25.2029 42.1182 24.2872 42.1182C23.3147 42.1182 22.419 42.2319 21.6367 42.6642L21.2931 40.7791C22.2656 40.3271 23.5049 40.1012 24.7443 40.1012C27.108 40.1012 29.1296 40.8746 29.1296 43.4937V46.7741C29.1296 47.5475 29.1112 47.9995 29.9871 47.9434L30.0055 49.4145C28.6142 49.7163 27.0881 49.6404 27.0881 48.0192H27.0911ZM16.124 37.5184V40.3468H19.1181V42.326H16.124V45.8505C16.124 47.7356 17.7069 47.8296 19.2316 47.2837L19.4801 49.2825C16.3157 50.15 13.5118 49.6404 13.5118 45.9081V42.326L11.777 42.1561V40.3468H13.702L13.9873 37.5184H16.1225H16.124ZM0 45.5123H2.72721C2.78396 46.7195 4.11843 47.2275 5.41608 47.2275C6.59869 47.2275 7.9715 46.9455 7.9715 45.5684C7.9715 44.0609 6.33179 43.929 5.05408 43.8334C2.63211 43.6257 0.191733 42.8158 0.191733 40.0814C0.191733 37.159 2.61371 35.9336 5.26269 35.9336C7.75982 35.9336 10.3536 36.9709 10.3536 39.9298H7.68466C7.53281 38.8545 6.40695 38.4026 5.26269 38.4026C4.11843 38.4026 2.9941 39.0062 2.9941 40.0238C2.9941 41.1931 4.15677 41.457 5.54952 41.6071C8.37183 41.8528 10.7923 42.4746 10.7923 45.5654C10.7923 48.6562 8.06506 49.6374 5.43448 49.6935C2.76556 49.6935 0 48.3923 0 45.5077L0 45.5123Z" fill="white"/>
<path d="M89.7464 43.6636H90.3953C92.512 43.6636 93.0458 42.1743 93.0458 40.3074H95.5629C95.6196 42.2305 95.1809 43.8517 93.371 44.7935L96.0015 49.1294V49.3933H93.3127L91.1208 45.623C90.8922 45.6989 90.6437 45.7368 90.3584 45.7368H89.748V49.3933H87.0975V35.6318H89.748V43.6621L89.7464 43.6636ZM85.2185 43.6075H82.683C82.3593 42.7597 81.5771 42.3442 80.758 42.3639C79.6137 42.3821 78.4311 43.2117 78.4311 44.8329C78.4311 46.4541 79.6137 47.3398 80.758 47.3398C81.597 47.3398 82.3977 46.8879 82.7213 45.9264H85.2568C84.8749 48.359 82.7965 49.5828 80.6813 49.6025C78.2593 49.6207 75.7806 48.0374 75.7806 44.8329C75.7806 41.6284 78.2777 40.0451 80.6997 40.0451C82.7781 40.0451 84.7997 41.2326 85.2185 43.6075ZM70.1222 42.1182C69.1113 42.1182 68.1972 42.6642 67.987 43.7213H72.0288C72.0855 42.5338 71.113 42.1182 70.1222 42.1182ZM70.1222 40.1012C73.4783 40.1012 74.9078 42.326 74.2022 45.4168H67.9671C68.0622 46.8302 69.1298 47.3777 70.4075 47.4718C70.7894 47.49 71.2281 47.5097 71.6284 47.4536C72.449 47.3595 73.2681 47.1518 73.8203 46.9076L74.1256 48.8306C73.038 49.3402 71.7803 49.642 70.5609 49.642C67.4716 49.6981 65.2982 47.8327 65.2982 44.7601C65.3549 41.5935 67.6818 40.1042 70.1222 40.1042V40.1012ZM63.4928 49.4145H60.8039V44.155C60.8607 42.8735 60.0984 42.2138 59.1075 42.2138C58.0399 42.1956 57.1441 42.9493 57.1441 44.2126V49.416H54.4553V35.6546H57.1441V41.3099C57.7347 40.4985 58.7271 40.1224 59.8713 40.1224C62.5019 40.1224 63.4943 41.8195 63.4943 44.1565V49.416L63.4928 49.4145ZM39.5124 42.8341C39.5124 38.4421 42.8301 36.0292 46.3381 36.0853C49.0269 36.0853 51.886 37.5185 52.4965 40.7791H49.7325C49.142 39.2898 47.9409 38.6301 46.3381 38.6301C43.9744 38.6301 42.3914 40.3272 42.3914 42.8341C42.3914 45.0968 43.936 46.9819 46.3197 46.9819C47.9778 46.9819 49.3322 46.2084 49.7893 44.6069H52.5349C51.9627 48.0951 49.122 49.5464 46.3381 49.5464C42.8301 49.5464 39.5124 47.2094 39.5124 42.8356V42.8341Z" fill="white"/>
<path d="M89.7357 54.9105H90.2603C91.0456 54.9105 91.4966 54.5056 91.4966 53.8095C91.4966 53.3894 91.3079 53.033 91.0134 52.8707C90.8094 52.757 90.5394 52.7085 90.1867 52.7085H89.7372V54.909L89.7357 54.9105ZM90.3002 55.2336L92.0841 57.7829H91.65L89.8983 55.2336H89.7342V57.7829H89.3829V52.3854H90.1529C90.7097 52.3854 91.0211 52.4582 91.3064 52.6599C91.6576 52.9026 91.8555 53.3151 91.8555 53.8171C91.8555 54.3752 91.6024 54.8286 91.1683 55.0546C90.9551 55.1592 90.7266 55.2078 90.3002 55.232V55.2336ZM85.855 55.687L84.8319 53.1301L83.792 55.687H85.855ZM85.9869 56.01H83.6631L82.9345 57.7829H82.5419L84.8335 52.2231L87.1082 57.7829H86.7079L85.9869 56.01ZM79.1889 52.3854V57.4599H80.5724V57.7829H78.8376V52.3854H79.1889ZM72.5764 52.3854V55.7598C72.5764 56.4241 72.6178 56.6819 72.7727 56.917C73.0104 57.2809 73.5504 57.5403 74.0826 57.5403C74.6149 57.5403 75.1471 57.2809 75.3833 56.917C75.5382 56.6819 75.5797 56.4225 75.5797 55.7598V52.3854H75.9309V55.8569C75.9309 56.5697 75.8742 56.8275 75.6441 57.1353C75.3174 57.5888 74.7192 57.8724 74.0811 57.8724C73.443 57.8724 72.8371 57.5888 72.5089 57.1353C72.2803 56.8275 72.222 56.5681 72.222 55.8569V52.3854H72.5733H72.5764ZM69.616 53.0087V53.494C69.3629 53.2104 69.231 53.1058 68.9779 52.9678C68.6021 52.757 68.168 52.6448 67.7754 52.6448C66.4501 52.6448 65.3196 53.7852 65.3196 55.1137C65.3196 55.8265 65.6218 56.4574 66.1709 56.9185C66.6464 57.3143 67.2262 57.5418 67.7754 57.5418C68.2094 57.5418 68.7325 57.3886 69.142 57.1293C69.3138 57.0322 69.412 56.9427 69.616 56.7334V57.2036C69.0178 57.6737 68.4625 57.8754 67.7984 57.8754C66.2507 57.8754 64.95 56.6045 64.95 55.1001C64.95 53.5956 66.243 52.3157 67.7815 52.3157C68.4779 52.3157 69.0423 52.534 69.6145 53.0118L69.616 53.0087ZM62.3501 52.3854V57.7829H61.9988V52.3854H62.3501ZM59.3882 52.7085H57.1288V54.6664H59.3391V54.9894H57.1288V57.4584H59.3882V57.7814H56.7775V52.3839H59.3882V52.7069V52.7085ZM50.9596 52.3854L52.5564 56.9412L54.1286 52.3854H54.5044L52.5564 58.0013L50.5669 52.3854H50.9596ZM44.1907 55.687L43.1676 53.1301L42.1276 55.687H44.1907ZM44.321 56.01H41.9972L41.2686 57.7829H40.876L43.1676 52.2231L45.4423 57.7829H45.0419L44.321 56.01ZM38.5951 52.3854V57.7829H38.2439V52.3854H38.5951ZM33.3416 54.9105H33.8662C34.6515 54.9105 35.1025 54.5056 35.1025 53.8095C35.1025 53.3894 34.9138 53.033 34.6193 52.8707C34.4153 52.757 34.1438 52.7085 33.7926 52.7085H33.3432V54.909L33.3416 54.9105ZM33.9061 55.2336L35.69 57.7829H35.2559L33.5042 55.2336H33.3401V57.7829H32.9888V52.3854H33.7588C34.3156 52.3854 34.627 52.4582 34.9123 52.6599C35.2636 52.9026 35.4614 53.3151 35.4614 53.8171C35.4614 54.3752 35.2083 54.8286 34.7743 55.0546C34.561 55.1592 34.3325 55.2078 33.9061 55.232V55.2336ZM27.5482 52.6432C26.223 52.6432 25.0925 53.7519 25.0925 55.0546C25.0925 55.7826 25.3625 56.4059 25.887 56.8836C26.3457 57.2961 26.9515 57.5388 27.5329 57.5388C28.8996 57.5388 30.0131 56.4377 30.0131 55.0864C30.0131 53.7352 28.8996 52.6417 27.5497 52.6417L27.5482 52.6432ZM27.5482 52.3126C29.0959 52.3126 30.3797 53.5744 30.3797 55.088C30.3797 56.6015 29.0944 57.8724 27.5313 57.8724C25.9683 57.8724 24.7244 56.5939 24.7244 55.0485C24.7244 53.5835 26.0343 52.3126 27.5482 52.3126ZM21.6628 52.7085V57.7829H21.3115V52.7085H19.9126V52.3854H23.0877V52.7085H21.6628ZM17.7499 53.0815L17.4876 53.2923C17.1762 52.8222 16.8817 52.6448 16.4154 52.6448C15.8341 52.6448 15.3923 53.0891 15.3923 53.6639C15.3923 54.1007 15.6132 54.3357 16.3587 54.6921C17.0627 55.0243 17.2023 55.0971 17.4477 55.2502C17.8235 55.5005 18.0214 55.8493 18.0214 56.2861C18.0214 57.1596 17.2606 57.8724 16.3188 57.8724C15.5657 57.8724 15.0181 57.4842 14.7067 56.7152L15.0089 56.5697C15.1392 56.8366 15.2052 56.9503 15.311 57.0883C15.5396 57.3719 15.9246 57.5418 16.3173 57.5418C17.0458 57.5418 17.6517 56.9746 17.6517 56.2876C17.6517 55.9403 17.4631 55.6567 17.1195 55.4535C16.94 55.3564 16.9155 55.3397 16.104 54.9439C15.2696 54.539 15.0242 54.2402 15.0242 53.6578C15.0242 52.8813 15.6132 52.3141 16.4231 52.3141C16.9876 52.3141 17.4631 52.5886 17.7484 53.083L17.7499 53.0815ZM12.1053 52.3854V57.7829H11.754V52.3854H12.1053ZM5.93452 52.3854L7.53128 56.9412L9.10349 52.3854H9.47929L7.53128 58.0013L5.54185 52.3854H5.93452Z" fill="white"/>
<path d="M62.1875 6.84887L61.9528 5.47485L60.5432 5.45665C56.2744 5.40357 52.1698 3.82026 48.9932 1.00094L47.8658 0L46.7369 1.00094C43.5587 3.82026 39.4556 5.40205 35.1869 5.45513L33.7742 5.47181L33.541 6.84887C33.3493 7.97872 33.2496 9.1389 33.2496 10.3218C33.2496 19.3985 39.1182 27.1164 47.3013 29.9767L47.8643 30.1738L48.4272 29.9767C56.6103 27.1164 62.4789 19.4001 62.4789 10.3233C62.4789 9.14345 62.3807 7.98023 62.1875 6.84735V6.84887ZM47.8643 28.404C40.3345 25.7712 34.9384 18.6706 34.9384 10.3233C34.9384 9.23444 35.0304 8.16677 35.2068 7.1264C39.8851 7.06877 44.3824 5.33532 47.8643 2.24605C51.3461 5.33532 55.8434 7.07029 60.5217 7.12792C60.6996 8.16677 60.7901 9.23596 60.7901 10.3249C60.7901 18.6721 55.394 25.7727 47.8643 28.404Z" fill="white"/>
<path d="M46.1479 18.6601L43.5725 16.731H42.1414L46.1479 23.1613L56.4478 9.01465H55.0182L46.1479 18.6601Z" fill="white"/>
</svg>
