<svg width="222" height="64" viewBox="0 0 222 64" fill="none" xmlns="http://www.w3.org/2000/svg">
<path d="M28.3067 37.2273L26.2601 49.3124H21.6815L23.728 37.2273H20.3518L20.9647 33.6304H32.3882L31.787 37.2273H28.3067ZM38.6433 49.7018C36.7779 49.7018 35.1593 49.0985 33.7871 47.892C32.4151 46.6777 31.7292 44.9404 31.7292 42.6799C31.7292 40.0605 32.4961 37.8382 34.0299 36.0131C35.5639 34.1803 37.568 33.2639 40.0423 33.2639C42.0233 33.2639 43.6498 33.9054 44.9215 35.1883C46.1934 36.4636 46.8293 38.136 46.8293 40.2056C46.8293 42.848 46.0739 45.0931 44.5631 46.9411C43.0523 48.7816 41.0791 49.7018 38.6433 49.7018ZM38.678 46.0591C39.4951 46.0591 40.1156 45.7193 40.5394 45.0396C40.9634 44.3523 41.2987 43.3481 41.5454 42.027C41.7921 40.7059 41.9154 39.8124 41.9154 39.3466C41.9154 38.5446 41.7266 37.9376 41.3489 37.5251C40.9788 37.1128 40.4856 36.9066 39.8689 36.9066C38.6896 36.9066 37.861 37.7199 37.383 39.3466C36.9051 40.9731 36.6662 42.4127 36.6662 43.665C36.6662 45.2612 37.3367 46.0591 38.678 46.0591ZM58.3223 39.5985L61.34 49.3124H56.6803L54.8998 42.8632L52.4948 45.5093L51.8589 49.3124H47.4653L50.1015 33.6762H54.4951L53.281 40.8586C53.5354 40.2628 53.9131 39.6749 54.4141 39.0944C54.923 38.5065 55.7401 37.5367 56.8654 36.185L59.1085 33.6762H63.6292L58.3223 39.5985ZM78.1398 33.6762L71.6188 42.5424L70.474 49.3124H65.7683L66.9477 42.3133L63.2361 33.6762H68.2311L69.8844 38.0177C70.0077 38.3079 70.1272 38.6516 70.2429 39.0488L71.0291 37.8345L73.8388 33.6762H78.1398ZM83.1811 49.7018C81.3156 49.7018 79.6969 49.0985 78.3249 47.892C76.9529 46.6777 76.2668 44.9404 76.2668 42.6799C76.2668 40.0605 77.0337 37.8382 78.5677 36.0131C80.1015 34.1803 82.1058 33.2639 84.58 33.2639C86.561 33.2639 88.1874 33.9054 89.4593 35.1883C90.7311 36.4636 91.3671 38.136 91.3671 40.2056C91.3671 42.848 90.6117 45.0931 89.1009 46.9411C87.5901 48.7816 85.6167 49.7018 83.1811 49.7018ZM83.2156 46.0591C84.0327 46.0591 84.6532 45.7193 85.0772 45.0396C85.5011 44.3523 85.8365 43.3481 86.083 42.027C86.3298 40.7059 86.4531 39.8124 86.4531 39.3466C86.4531 38.5446 86.2642 37.9376 85.8865 37.5251C85.5166 37.1128 85.0233 36.9066 84.4065 36.9066C83.2272 36.9066 82.3986 37.7199 81.9207 39.3466C81.4429 40.9731 81.2038 42.4127 81.2038 43.665C81.2038 45.2612 81.8745 46.0591 83.2156 46.0591Z" fill="#FEFFFF"/>
<path d="M107.999 33.6762L100.912 49.3124H96.3328L93.2688 33.6762H98.0903L99.825 43.7681C99.9328 43.4703 100.433 42.279 101.328 40.1942L104.148 33.6762H107.999ZM113.861 33.6762L111.225 49.3124H106.738L109.375 33.6762H113.861ZM128.349 37.3075L124.291 38.3271C124.174 37.8612 123.885 37.4946 123.423 37.2273C122.96 36.96 122.453 36.8264 121.897 36.8264C120.857 36.8264 120.336 37.1701 120.336 37.8573C120.336 38.0788 120.409 38.2698 120.556 38.4301C120.702 38.5905 121.114 38.7891 121.792 39.0258L124.301 39.9078C124.957 40.1369 125.566 40.4767 126.129 40.9273C126.691 41.3702 127.096 41.859 127.343 42.3935C127.589 42.9205 127.713 43.4856 127.713 44.0889C127.713 45.6696 127.084 46.9755 125.828 48.0065C124.58 49.0374 122.911 49.5529 120.822 49.5529C119.033 49.5529 117.472 49.194 116.14 48.4762C114.813 47.7583 113.888 46.6624 113.364 45.1885L117.92 44.3065C118.313 45.4138 119.283 45.9674 120.833 45.9674C121.481 45.9674 121.947 45.8529 122.232 45.6238C122.524 45.3871 122.671 45.1198 122.671 44.822C122.671 44.6311 122.614 44.4631 122.497 44.318C122.39 44.1728 122.271 44.0698 122.14 44.0087C122.017 43.94 121.42 43.7109 120.348 43.3214C118.899 42.7944 117.881 42.3782 117.295 42.0729C116.717 41.7596 116.231 41.2976 115.839 40.6867C115.452 40.0758 115.261 39.358 115.261 38.5332C115.261 37.1051 115.788 35.8986 116.845 34.9135C117.908 33.9207 119.53 33.4242 121.711 33.4242C123.376 33.4242 124.803 33.7717 125.99 34.4667C127.177 35.1616 127.963 36.1086 128.349 37.3075ZM137.483 37.2273L135.436 49.3124H130.858L132.905 37.2273H129.527L130.141 33.6304H141.563L140.963 37.2273H137.483ZM147.82 49.7018C145.954 49.7018 144.336 49.0985 142.963 47.892C141.59 46.6777 140.905 44.9404 140.905 42.6799C140.905 40.0605 141.673 37.8382 143.206 36.0131C144.74 34.1803 146.745 33.2639 149.218 33.2639C151.2 33.2639 152.826 33.9054 154.098 35.1883C155.369 36.4636 156.005 38.136 156.005 40.2056C156.005 42.848 155.251 45.0931 153.739 46.9411C152.228 48.7816 150.255 49.7018 147.82 49.7018ZM147.854 46.0591C148.671 46.0591 149.291 45.7193 149.716 45.0396C150.14 44.3523 150.475 43.3481 150.721 42.027C150.968 40.7059 151.092 39.8124 151.092 39.3466C151.092 38.5446 150.902 37.9376 150.525 37.5251C150.155 37.1128 149.661 36.9066 149.046 36.9066C147.866 36.9066 147.037 37.7199 146.559 39.3466C146.081 40.9731 145.842 42.4127 145.842 43.665C145.842 45.2612 146.513 46.0591 147.854 46.0591ZM168.366 42.7602L170.077 49.3124H165.405L164.017 43.3672H162.145L161.139 49.3124H156.641L159.278 33.6762H166.169C168.041 33.6762 169.429 34.0848 170.33 34.902C171.233 35.7114 171.684 36.815 171.684 38.2124C171.684 40.45 170.577 41.9659 168.366 42.7602ZM162.688 40.1139H164.469C166.181 40.1139 167.035 39.5413 167.035 38.3957C167.035 37.4335 166.318 36.9525 164.886 36.9525H163.231L162.688 40.1139ZM179.489 33.6762L176.853 49.3124H172.366L175.002 33.6762H179.489ZM188.045 46.1163H183.812L182.344 49.3124H178.437L185.732 33.6762H190.681L193.143 49.3124H188.483L188.045 46.1163ZM187.768 42.8861L187.131 38.3613L185.049 42.8861H187.768Z" fill="#E42E30"/>
<path d="M95.7126 25.0771C76.2513 22.6826 61.5038 19.0256 44.6137 15.4084C36.0715 13.5515 30.3348 12.793 21.2212 16.6877C7.06804 22.0202 0 38.7197 0 38.7197C13.416 25.2978 27.9124 16.6877 46.1509 16.6877C73.7625 22.3756 52.3116 34.5403 80.7372 22.8686C32.1003 32.8269 115.931 27.4907 89.1677 24.2017L95.7126 25.0771Z" fill="#FEFFFF"/>
<path d="M156.968 17.8361C156.968 17.8361 121.138 -1.92612 99.2188 0.180378C67.6829 3.20954 53.3735 14.6155 26.8042 14.9984C26.8042 14.9984 49.4712 16.5029 78.1434 11.9592C115.872 5.97619 112.428 1.90661 156.968 17.842V17.8361Z" fill="#FEFFFF"/>
<path d="M119.327 33.8725C127.394 33.8725 134.098 32.1592 143.37 29.7983C147.83 28.6612 152.888 27.3663 158.912 26.0713C160.357 25.7634 161.761 25.4318 163.146 25.108C168.33 23.8922 173.222 22.7472 179.354 22.7472C189.425 22.7472 201.26 25.9371 217.281 33.0198C210.112 29.1113 196.127 21.9893 185.977 19.9758C183.261 19.4389 180.332 19.1783 177.017 19.1783C166.7 19.1783 154.219 21.7839 139.768 24.8001C135.848 25.6214 131.794 26.4661 127.568 27.3032C124.346 27.9428 121.065 28.2665 117.81 28.2665C102.993 28.2665 91.8965 21.5392 88.1624 18.9336C91.3175 22.613 101.042 32.5776 114.614 33.6672C116.205 33.7936 117.797 33.8568 119.327 33.8568V33.8725Z" fill="#E42E30"/>
<path d="M177.017 19.4153C166.713 19.4153 154.246 22.021 139.801 25.0372C135.881 25.8584 131.828 26.7033 127.595 27.5403C124.36 28.1798 121.065 28.5114 117.803 28.5114C104.497 28.5114 94.1864 23.1027 89.4738 20.0945C93.4675 24.3898 102.506 32.4751 114.621 33.4463C116.211 33.5726 117.789 33.6358 119.321 33.6358C127.369 33.6358 134.057 31.9303 143.322 29.5695C147.79 28.4325 152.848 27.1376 158.872 25.8426C160.317 25.5346 161.734 25.203 163.1 24.8794C168.291 23.6633 173.197 22.5105 179.347 22.5105C188.347 22.5105 198.75 25.053 212.269 30.6276C204.694 26.7348 194.077 21.8236 185.931 20.2128C183.227 19.6759 180.305 19.4153 177.004 19.4153M86.8977 17.7415C86.8977 17.7415 99.3713 28.0377 117.797 28.0377C120.885 28.0377 124.134 27.7455 127.521 27.0744C147.51 23.0948 163.897 18.9416 177.004 18.9416C180.193 18.9416 183.188 19.1863 185.997 19.7391C200.334 22.5737 222 35.4203 222 35.4203C201.253 25.7636 188.839 22.9843 179.341 22.9843C171.586 22.9843 165.769 24.8398 158.932 26.3085C140.587 30.2563 131.348 34.1095 119.313 34.1095C117.789 34.1095 116.225 34.0465 114.589 33.9201C97.701 32.5699 86.8977 17.7493 86.8977 17.7493V17.7415Z" fill="#E42E30"/>
<path d="M154.918 62.6945C154.382 62.6031 153.846 62.5812 153.304 62.5355C152.77 62.4952 152.233 62.4316 151.701 62.3498C150.519 62.1597 149.331 61.9694 148.149 61.7887C145.866 61.4372 143.581 61.1318 141.286 60.8951C139.182 60.6758 137.074 60.4932 134.958 60.3518C134.411 60.3152 133.867 60.2788 133.318 60.2513C131.225 60.1344 129.126 60.0219 127.032 59.9373C122.127 59.7435 117.225 59.5498 112.32 59.4482C107.527 59.3496 102.734 59.2696 97.9399 59.2402C95.5832 59.226 93.2269 59.2026 90.8692 59.2021C88.3199 59.2027 85.7722 59.1802 83.226 59.2042C77.9703 59.2503 72.7096 59.3007 67.4535 59.3516C62.8888 59.3977 58.3308 59.62 53.7823 59.977C50.8435 60.2105 47.9095 60.5135 44.9861 60.8636C48.2902 61.2973 51.6058 61.6299 54.9317 61.8802C57.1057 62.044 59.2835 62.148 61.4647 62.206C62.8721 62.2447 64.2811 62.2603 65.6866 62.2571C66.5505 62.2548 67.4167 62.2202 68.2818 62.1995C70.5971 62.1371 72.9129 62.0699 75.228 62.0121C77.8752 61.944 80.524 61.853 83.1741 61.813C85.9037 61.769 88.6337 61.7203 91.368 61.6766C93.8219 61.6373 96.278 61.6351 98.7305 61.6141C101.127 61.594 103.521 61.62 105.915 61.6275C108.328 61.6364 110.74 61.682 113.156 61.7141C115.609 61.7487 118.068 61.8438 120.518 61.9153C125.002 62.044 129.481 62.288 133.954 62.5594C136.442 62.7118 138.939 62.7864 141.432 62.8698C143.887 62.9508 146.348 63.0044 148.807 63.0209C149.806 63.0276 150.812 63.0534 151.809 63.0182C152.295 63.0046 152.779 62.9767 153.26 62.9118C153.683 62.8523 154.105 62.7603 154.534 62.7103C154.661 62.7002 154.791 62.6998 154.918 62.6945Z" fill="white"/>
</svg>
