<svg width="95" height="23" viewBox="0 0 95 23" fill="none" xmlns="http://www.w3.org/2000/svg">
<path d="M0.414125 23V0.439999H4.79813L12.6381 18.04H11.6141L19.4541 0.439999H23.8061V23H19.2621V7.672H20.5421L13.5341 23H10.6541L3.61413 7.672H4.95813V23H0.414125ZM25.7886 23L36.1566 0.439999H40.2846L50.7806 23H45.7246L43.0046 16.728L44.9566 18.104H31.5486L33.5326 16.728L30.8126 23H25.7886ZM38.2046 5.688L34.0766 15.48L33.2126 14.264H43.2926L42.5566 15.48L38.3326 5.688H38.2046ZM52.7259 23V0.439999H63.2539C65.7925 0.439999 67.7125 1.05867 69.0139 2.296C70.3365 3.512 70.9979 5.18667 70.9979 7.32C70.9979 9.432 70.3365 11.1173 69.0139 12.376C67.7125 13.6133 65.7925 14.232 63.2539 14.232H57.7179V23H52.7259ZM57.7179 10.36H62.6139C63.8085 10.36 64.6939 10.0933 65.2699 9.56C65.8672 9.02667 66.1659 8.28 66.1659 7.32C66.1659 6.36 65.8672 5.624 65.2699 5.112C64.6939 4.57867 63.8085 4.312 62.6139 4.312H57.7179V10.36ZM69.2886 23L79.6566 0.439999H83.7846L94.2806 23H89.2246L86.5046 16.728L88.4566 18.104H75.0486L77.0326 16.728L74.3126 23H69.2886ZM81.7046 5.688L77.5766 15.48L76.7126 14.264H86.7926L86.0566 15.48L81.8326 5.688H81.7046Z" fill="#20332F" fill-opacity="0.18"/>
</svg>
