<svg width="221" height="63" viewBox="0 0 221 63" fill="none" xmlns="http://www.w3.org/2000/svg">
<path d="M118.948 34.1059C126.922 34.1059 133.548 32.4097 142.714 30.0725C147.122 28.9468 152.122 27.6649 158.077 26.3829C159.505 26.0781 160.893 25.7498 162.262 25.4292C167.386 24.2256 172.222 23.092 178.283 23.092C188.238 23.092 199.937 26.25 215.773 33.2618C208.686 29.3924 194.863 22.3417 184.83 20.3484C182.145 19.8169 179.25 19.5589 175.973 19.5589C165.775 19.5589 153.438 22.1384 139.154 25.1244C135.278 25.9374 131.271 26.7737 127.094 27.6024C123.909 28.2356 120.666 28.5561 117.449 28.5561C102.802 28.5561 91.8337 21.8961 88.1426 19.3167C91.2613 22.9592 100.874 32.8239 114.289 33.9027C115.862 34.0278 117.435 34.0903 118.948 34.0903V34.1059Z" fill="#E42E30"/>
<path d="M118.7 33.83C126.725 33.83 133.394 32.1175 142.618 29.7578C147.055 28.6212 152.087 27.3269 158.08 26.0326C159.517 25.7248 160.914 25.3933 162.291 25.0697C167.449 23.8544 172.317 22.71 178.415 22.71C188.434 22.71 200.208 25.8984 216.146 32.9778C209.014 29.0711 195.101 21.9525 185.004 19.9399C182.302 19.4033 179.388 19.1428 176.091 19.1428C165.827 19.1428 153.411 21.7471 139.035 24.762C135.135 25.5828 131.102 26.4272 126.898 27.2639C123.693 27.9031 120.429 28.2267 117.191 28.2267C102.45 28.2267 91.412 21.5025 87.6973 18.8982C90.8359 22.5758 100.51 32.5357 114.011 33.6248C115.594 33.7511 117.178 33.8143 118.7 33.8143V33.83Z" fill="#FEFFFF"/>
<path d="M28.1519 37.1827L26.1159 49.262H21.561L23.597 37.1827H20.2383L20.848 33.5875H32.2121L31.6141 37.1827H28.1519ZM38.4348 49.6513C36.5791 49.6513 34.9689 49.0483 33.6038 47.8423C32.239 46.6286 31.5566 44.8921 31.5566 42.6327C31.5566 40.0146 32.3195 37.7933 33.8454 35.969C35.3714 34.1372 37.3651 33.2212 39.8265 33.2212C41.7973 33.2212 43.4153 33.8623 44.6806 35.1446C45.9457 36.4194 46.5783 38.091 46.5783 40.1596C46.5783 42.8007 45.8269 45.0448 44.3239 46.8919C42.821 48.7315 40.858 49.6513 38.4348 49.6513ZM38.4694 46.0103C39.2822 46.0103 39.8995 45.6707 40.3213 44.9913C40.7429 44.3043 41.0765 43.3006 41.3219 41.9802C41.5673 40.6596 41.6899 39.7666 41.6899 39.301C41.6899 38.4994 41.5021 37.8926 41.1263 37.4804C40.7582 37.0683 40.2675 36.8622 39.6541 36.8622C38.4808 36.8622 37.6565 37.675 37.181 39.301C36.7057 40.9267 36.468 42.3656 36.468 43.6174C36.468 45.2128 37.135 46.0103 38.4694 46.0103ZM58.0116 39.5528L61.0136 49.262H56.3782L54.6069 42.816L52.2144 45.4608L51.5818 49.262H47.211L49.8335 33.6333H54.2043L52.9966 40.8123C53.2496 40.2168 53.6253 39.6292 54.1238 39.0489C54.63 38.4613 55.4428 37.4919 56.5623 36.1408L58.7938 33.6333H63.291L58.0116 39.5528ZM77.7263 33.6333L71.2391 42.4953L70.1003 49.262H65.419L66.5922 42.2663L62.8999 33.6333H67.8689L69.5138 37.9727C69.6364 38.2628 69.7552 38.6063 69.8703 39.0033L70.6525 37.7896L73.4475 33.6333H77.7263ZM82.7413 49.6513C80.8856 49.6513 79.2753 49.0483 77.9104 47.8423C76.5455 46.6286 75.8629 44.8921 75.8629 42.6327C75.8629 40.0146 76.6259 37.7933 78.1519 35.969C79.6778 34.1372 81.6716 33.2212 84.133 33.2212C86.1038 33.2212 87.7217 33.8623 88.987 35.1446C90.2522 36.4194 90.8848 38.091 90.8848 40.1596C90.8848 42.8007 90.1334 45.0448 88.6304 46.8919C87.1275 48.7315 85.1643 49.6513 82.7413 49.6513ZM82.7757 46.0103C83.5886 46.0103 84.2059 45.6707 84.6276 44.9913C85.0494 44.3043 85.383 43.3006 85.6284 41.9802C85.8737 40.6596 85.9964 39.7666 85.9964 39.301C85.9964 38.4994 85.8086 37.8926 85.4329 37.4804C85.0647 37.0683 84.574 36.8622 83.9604 36.8622C82.7874 36.8622 81.9629 37.675 81.4875 39.301C81.0122 40.9267 80.7743 42.3656 80.7743 43.6174C80.7743 45.2128 81.4415 46.0103 82.7757 46.0103Z" fill="#353535"/>
<path d="M107.431 33.6333L100.381 49.262H95.8254L92.7773 33.6333H97.5738L99.2995 43.7204C99.4067 43.4227 99.9042 42.232 100.795 40.1482L103.6 33.6333H107.431ZM113.263 33.6333L110.64 49.262H106.177L108.799 33.6333H113.263ZM127.676 37.2629L123.638 38.2819C123.522 37.8163 123.235 37.4498 122.775 37.1827C122.314 36.9156 121.81 36.782 121.257 36.782C120.222 36.782 119.704 37.1255 119.704 37.8124C119.704 38.0338 119.777 38.2247 119.923 38.385C120.069 38.5452 120.478 38.7437 121.153 38.9803L123.649 39.8619C124.301 40.0909 124.907 40.4306 125.467 40.8809C126.027 41.3236 126.429 41.8122 126.675 42.3465C126.919 42.8732 127.043 43.438 127.043 44.041C127.043 45.621 126.417 46.9263 125.168 47.9567C123.926 48.9872 122.265 49.5025 120.188 49.5025C118.408 49.5025 116.855 49.1437 115.529 48.4262C114.21 47.7087 113.29 46.6134 112.768 45.1401L117.3 44.2585C117.692 45.3653 118.657 45.9187 120.198 45.9187C120.843 45.9187 121.306 45.8042 121.591 45.5752C121.881 45.3386 122.027 45.0715 122.027 44.7738C122.027 44.583 121.97 44.4151 121.854 44.2701C121.747 44.1249 121.629 44.0219 121.498 43.9608C121.376 43.8922 120.782 43.6632 119.716 43.2739C118.274 42.7472 117.261 42.3312 116.679 42.026C116.104 41.7129 115.62 41.2511 115.23 40.6405C114.846 40.0299 114.655 39.3124 114.655 38.488C114.655 37.0606 115.179 35.8546 116.231 34.87C117.288 33.8776 118.903 33.3814 121.072 33.3814C122.728 33.3814 124.148 33.7288 125.329 34.4234C126.51 35.118 127.291 36.0645 127.676 37.2629ZM136.762 37.1827L134.726 49.262H130.172L132.207 37.1827H128.848L129.458 33.5875H140.821L140.224 37.1827H136.762ZM147.045 49.6513C145.189 49.6513 143.579 49.0483 142.214 47.8423C140.848 46.6286 140.166 44.8921 140.166 42.6327C140.166 40.0146 140.93 37.7933 142.455 35.969C143.981 34.1372 145.976 33.2212 148.436 33.2212C150.408 33.2212 152.025 33.8623 153.291 35.1446C154.555 36.4194 155.188 38.091 155.188 40.1596C155.188 42.8007 154.437 45.0448 152.933 46.8919C151.431 48.7315 149.468 49.6513 147.045 49.6513ZM147.079 46.0103C147.892 46.0103 148.509 45.6707 148.932 44.9913C149.353 44.3043 149.687 43.3006 149.931 41.9802C150.177 40.6596 150.3 39.7666 150.3 39.301C150.3 38.4994 150.111 37.8926 149.736 37.4804C149.368 37.0683 148.877 36.8622 148.265 36.8622C147.091 36.8622 146.266 37.675 145.791 39.301C145.316 40.9267 145.078 42.3656 145.078 43.6174C145.078 45.2128 145.745 46.0103 147.079 46.0103ZM167.485 42.7129L169.187 49.262H164.539L163.159 43.3197H161.295L160.295 49.262H155.821L158.444 33.6333H165.299C167.162 33.6333 168.542 34.0417 169.44 34.8585C170.337 35.6675 170.785 36.7706 170.785 38.1673C170.785 40.4039 169.684 41.9191 167.485 42.7129ZM161.836 40.068H163.608C165.311 40.068 166.161 39.4956 166.161 38.3506C166.161 37.3888 165.448 36.908 164.022 36.908H162.377L161.836 40.068ZM178.55 33.6333L175.927 49.262H171.464L174.087 33.6333H178.55ZM187.061 46.0675H182.851L181.39 49.262H177.503L184.76 33.6333H189.684L192.133 49.262H187.497L187.061 46.0675ZM186.785 42.8388L186.153 38.3162L184.082 42.8388H186.785Z" fill="#FEFFFF"/>
<path d="M95.2078 25.0381C75.8475 22.6447 61.1766 18.9895 44.3742 15.3739C35.8764 13.5179 30.1694 12.7598 21.1032 16.6527C7.02353 21.9826 -0.0078125 38.6743 -0.0078125 38.6743C13.3385 25.2587 27.7597 16.6527 45.9037 16.6527C73.3717 22.3378 52.0324 34.4968 80.3104 22.8306C31.9259 32.7843 115.322 27.4506 88.6969 24.1632L95.2078 25.0381Z" fill="#353535"/>
<path d="M156.144 17.8008C156.144 17.8008 120.5 -1.95205 98.6948 0.153448C67.3227 3.18117 53.0876 14.5817 26.6562 14.9645C26.6562 14.9645 49.2056 16.4682 77.7289 11.9267C115.261 5.94651 111.836 1.87886 156.144 17.8067V17.8008Z" fill="#353535"/>
<path d="M176.091 19.3791C165.841 19.3791 153.438 21.9836 139.068 24.9983C135.168 25.8191 131.137 26.6637 126.925 27.5002C123.707 28.1394 120.429 28.4709 117.184 28.4709C103.948 28.4709 93.6903 23.0648 89.0022 20.0579C92.9752 24.3512 101.967 32.4327 114.019 33.4034C115.601 33.5297 117.171 33.5929 118.694 33.5929C126.7 33.5929 133.354 31.8882 142.571 29.5285C147.015 28.392 152.047 27.0977 158.04 25.8034C159.477 25.4955 160.887 25.164 162.246 24.8406C167.41 23.6251 172.291 22.4728 178.409 22.4728C187.362 22.4728 197.711 25.0142 211.16 30.586C203.624 26.6951 193.063 21.7863 184.958 20.1762C182.269 19.6396 179.362 19.3791 176.078 19.3791M86.4395 17.7061C86.4395 17.7061 98.8483 27.9974 117.178 27.9974C120.25 27.9974 123.482 27.7054 126.852 27.0346C146.737 23.0569 163.039 18.9056 176.078 18.9056C179.25 18.9056 182.23 19.1502 185.024 19.7027C199.286 22.536 220.84 35.3765 220.84 35.3765C200.201 25.7244 187.852 22.9465 178.403 22.9465C170.688 22.9465 164.901 24.801 158.1 26.269C139.85 30.215 130.659 34.0664 118.687 34.0664C117.171 34.0664 115.614 34.0033 113.987 33.877C97.1866 32.5274 86.4395 17.7139 86.4395 17.7139V17.7061Z" fill="#FEFFFF"/>
<path d="M154.106 62.6406C153.572 62.5493 153.039 62.5273 152.5 62.4816C151.968 62.4413 151.434 62.3777 150.905 62.2958C149.729 62.1058 148.548 61.9154 147.371 61.7346C145.1 61.383 142.827 61.0776 140.544 60.8408C138.451 60.6215 136.354 60.4388 134.249 60.2974C133.704 60.2607 133.164 60.2244 132.617 60.1968C130.535 60.08 128.447 59.9674 126.364 59.8828C121.485 59.689 116.608 59.4952 111.729 59.3936C106.96 59.295 102.192 59.2149 97.4231 59.1856C95.0785 59.1713 92.7345 59.1479 90.389 59.1475C87.853 59.148 85.3184 59.1255 82.7854 59.1495C77.5571 59.1956 72.3237 59.2461 67.0949 59.2969C62.5539 59.343 58.0195 59.5654 53.4945 59.9225C50.5711 60.156 47.6523 60.4591 44.7441 60.8094C48.0311 61.2431 51.3294 61.5758 54.6381 61.8261C56.8008 61.99 58.9674 62.094 61.1372 62.152C62.5372 62.1907 63.9389 62.2063 65.3372 62.2032C66.1966 62.2008 67.0582 62.1663 67.9189 62.1455C70.2222 62.0831 72.5259 62.0159 74.8291 61.9581C77.4625 61.89 80.0976 61.799 82.7339 61.7589C85.4493 61.7149 88.1651 61.6663 90.8853 61.6225C93.3264 61.5832 95.7697 61.581 98.2095 61.5599C100.594 61.5399 102.975 61.5659 105.356 61.5734C107.757 61.5823 110.156 61.6279 112.56 61.66C115.001 61.6946 117.446 61.7898 119.884 61.8612C124.344 61.99 128.8 62.234 133.25 62.5055C135.725 62.6579 138.209 62.7325 140.689 62.816C143.131 62.897 145.58 62.9506 148.026 62.9671C149.02 62.9738 150.021 62.9996 151.012 62.9644C151.496 62.9508 151.977 62.9229 152.455 62.858C152.877 62.7985 153.297 62.7064 153.723 62.6565C153.849 62.6464 153.979 62.6459 154.106 62.6406Z" fill="#353535"/>
</svg>
