<?xml version="1.0" encoding="utf-8"?>
<!-- Generator: Adobe Illustrator 28.3.0, SVG Export Plug-In . SVG Version: 6.00 Build 0)  -->
<svg version="1.1" id="Camada_2_00000049192827600099770410000009307430904945649289_"
	 xmlns="http://www.w3.org/2000/svg" xmlns:xlink="http://www.w3.org/1999/xlink" x="0px" y="0px" viewBox="0 0 418.5 283.3"
	 style="enable-background:new 0 0 418.5 283.3;" xml:space="preserve">
<style type="text/css">
	.st0{display:none;fill:#50D05D;}
	.st1{fill:#FFFFFF;}
	.st2{fill:#3D3D3D;}
</style>
<g>
	<rect class="st0" width="418.5" height="283"/>
	<path class="st1" d="M414.2,269.5c0-2.6-1.8-4.1-5.2-4.1h-4.5v8.3h4.5C412.5,273.7,414.2,272.2,414.2,269.5L414.2,269.5z
		 M418.5,283h-4.2l-4.3-6.1c-0.3,0-0.5,0-0.8,0h-4.7v6.1h-3.9v-20.9h8.6c5.5,0,8.9,2.8,8.9,7.4c0,3.2-1.6,5.5-4.5,6.6L418.5,283
		L418.5,283z M376,275.1h7.9L380,266L376,275.1z M387.2,283l-2.1-4.8h-10.4l-2.1,4.8h-4l9.4-20.9h3.8l9.4,20.9H387.2z M346.9,283
		v-20.9h3.9v17.6h10.9v3.3H346.9L346.9,283z M325.6,283.3c-5.7,0-9.2-3.3-9.2-9.4v-11.8h3.9v11.6c0,4.3,1.9,6.1,5.3,6.1
		s5.3-1.9,5.3-6.1v-11.6h3.8v11.8C334.7,280,331.3,283.3,325.6,283.3z M298,283.3c-6.4,0-11.2-4.5-11.2-10.7s4.8-10.7,11.2-10.7
		c3.4,0,6.3,1.2,8.3,3.5l-2.5,2.4c-1.5-1.6-3.4-2.5-5.6-2.5c-4.3,0-7.5,3-7.5,7.3s3.1,7.3,7.5,7.3c2.2,0,4.1-0.8,5.6-2.5l2.5,2.4
		C304.4,282.1,301.5,283.3,298,283.3L298,283.3z M272.1,283v-20.9h3.9V283H272.1z M249.3,279.8h11.8v3.2h-15.7v-20.9h15.2v3.2h-11.4
		v5.4h10.1v3.2h-10.1L249.3,279.8L249.3,279.8z M232.6,262.1h3.9l-9.1,20.9h-3.8l-9.1-20.9h4.2l6.9,16.1L232.6,262.1L232.6,262.1z
		 M177.8,275.1h7.9l-3.9-9.1L177.8,275.1z M189,283l-2.1-4.8h-10.4l-2.1,4.8h-4l9.4-20.9h3.8L193,283H189L189,283z M157.1,283v-20.9
		h3.9V283H157.1z M142.2,269.5c0-2.6-1.8-4.1-5.2-4.1h-4.5v8.3h4.5C140.4,273.7,142.2,272.2,142.2,269.5L142.2,269.5z M146.4,283
		h-4.2l-4.3-6.1c-0.3,0-0.5,0-0.8,0h-4.7v6.1h-3.9v-20.9h8.6c5.5,0,8.9,2.8,8.9,7.4c0,3.2-1.6,5.5-4.4,6.6L146.4,283L146.4,283z
		 M106.5,279.9c4.2,0,7.3-3.1,7.3-7.3s-3.1-7.3-7.3-7.3s-7.3,3.1-7.3,7.3S102.3,279.9,106.5,279.9z M106.5,283.3
		c-6.5,0-11.2-4.6-11.2-10.7s4.8-10.7,11.2-10.7s11.2,4.5,11.2,10.7S113,283.3,106.5,283.3z M76.6,283v-17.6h-6.9v-3.3h17.7v3.3
		h-6.9V283C80.5,283,76.6,283,76.6,283z M53.7,283.3c-3.2,0-6.5-1-8.2-2.5l1.3-3c1.7,1.3,4.3,2.3,6.9,2.3c3.2,0,4.6-1.2,4.6-2.7
		c0-4.5-12.4-1.5-12.4-9.3c0-3.4,2.7-6.2,8.4-6.2c2.5,0,5.1,0.7,7,1.9l-1.2,3c-1.9-1.1-3.9-1.6-5.8-1.6c-3.2,0-4.5,1.2-4.5,2.8
		c0,4.5,12.4,1.5,12.4,9.2C62.1,280.4,59.4,283.3,53.7,283.3L53.7,283.3z M31,283v-20.9h3.9V283C34.8,283,31,283,31,283z
		 M18.2,262.1H22L12.9,283H9.1L0,262.1h4.2l6.9,16.1C11.2,278.2,18.2,262.1,18.2,262.1z"/>
	<path class="st1" d="M289.5,101.4c0-2.8,0.5-5.4,1.6-7.9s2.5-4.7,4.4-6.5c1.9-1.9,4-3.3,6.5-4.4s5.2-1.7,8-1.7h77.6
		c2.8,0,5.4,0.6,7.9,1.7s4.7,2.5,6.6,4.4c1.9,1.8,3.3,4,4.4,6.5s1.6,5.1,1.6,7.9v18.5h-20.5v-18.5H310v102.2h77.6v-34.7h-38.8v-20.4
		H408v55.2c0,2.8-0.5,5.4-1.6,8c-1.1,2.5-2.5,4.6-4.4,6.5s-4.1,3.3-6.6,4.4c-2.5,1.1-5.1,1.6-7.9,1.6h-77.6c-2.8,0-5.5-0.5-8-1.6
		s-4.6-2.5-6.5-4.4s-3.3-4-4.4-6.5s-1.6-5.2-1.6-8V101.4H289.5z M150.5,101.4v102.2h81.7V101.4H150.5L150.5,101.4z M252.6,203.6
		c0,2.8-0.5,5.4-1.6,8c-1.1,2.5-2.5,4.6-4.4,6.5s-4.1,3.3-6.6,4.4c-2.5,1.1-5.1,1.6-7.9,1.6h-81.7c-2.8,0-5.4-0.5-8-1.6
		c-2.5-1.1-4.6-2.5-6.5-4.4s-3.3-4-4.4-6.5c-1.1-2.5-1.6-5.2-1.6-8V101.4c0-2.8,0.5-5.4,1.6-7.9s2.5-4.7,4.4-6.5
		c1.9-1.9,4-3.3,6.5-4.4s5.2-1.7,8-1.7h81.7c2.8,0,5.4,0.6,7.9,1.7s4.7,2.5,6.6,4.4c1.9,1.8,3.3,4,4.4,6.5c1.1,2.5,1.6,5.1,1.6,7.9
		V203.6L252.6,203.6z M32,80.9v122.6h73.5V224h-94V80.9H32z"/>
	<path class="st2" d="M156.9,102.7c-9.2-13-30.7-0.6-21.5,12.5c15.8,22.4,29.1,45.9,39.3,71.4c4.2,10.4,21,13.2,24,0
		C212.8,124,239.5,51.7,301.4,22.7c14.5-6.8,1.9-28.2-12.5-21.5c-56.8,26.6-87.8,86.2-105.4,145.3
		C175.7,131.3,166.8,116.7,156.9,102.7L156.9,102.7z"/>
</g>
</svg>
