<svg width="299" height="88" viewBox="0 0 299 88" fill="none" xmlns="http://www.w3.org/2000/svg">
<g clip-path="url(#clip0_1731_11291)">
<path d="M59.7944 49.8186H43.2095L39.8613 66.1015H56.4505L59.7944 49.8186Z" fill="#EFEFEF"/>
<path d="M19.933 0.815186H3.3482L0 17.2701H16.5848L13.3104 33.5357H29.8952L33.2434 17.2701H16.5848L19.933 0.815186Z" fill="#EFEFEF"/>
<path d="M204.11 63.5424V61.4393V57.5385V55.4354H201.989H137.224V2.91828V0.815186H135.108H131.17H129.049V2.91828V61.4393V63.5424H131.17H201.989H204.11Z" fill="#EFEFEF"/>
<path d="M53.3809 86.0099L45.8302 73.9849H44.7676L53.3809 87.6915L61.99 73.9849H60.9274L53.3809 86.0099Z" fill="#EFEFEF"/>
<path d="M79.9396 73.9849H79.0332V87.4679H79.9396V73.9849Z" fill="#EFEFEF"/>
<path d="M102.745 74.8837H111.809C113.622 74.8837 114.529 75.7826 114.529 77.5803H115.435C115.435 75.1848 114.225 73.9849 111.809 73.9849H102.745C100.329 73.9849 99.1191 75.1848 99.1191 77.5803C99.1191 79.9759 100.329 81.1758 102.745 81.1758H111.809C113.622 81.1758 114.529 82.0747 114.529 83.8724C114.529 85.6701 113.622 86.569 111.809 86.569H102.745C100.932 86.569 100.026 85.6701 100.026 83.8724H99.1191C99.1191 86.268 100.329 87.4679 102.745 87.4679H111.809C114.225 87.4679 115.435 86.268 115.435 83.8724C115.435 81.4769 114.225 80.2769 111.809 80.2769H102.745C100.932 80.2769 100.026 79.3781 100.026 77.5803C100.026 75.7826 100.932 74.8837 102.745 74.8837Z" fill="#EFEFEF"/>
<path d="M132.258 74.8837H139.965V87.4679H140.871V74.8837H148.574V73.9849H132.258V74.8837Z" fill="#EFEFEF"/>
<path d="M174.749 73.9849H165.684C163.269 73.9849 162.059 75.1848 162.059 77.5803V83.8724C162.059 86.268 163.269 87.4679 165.684 87.4679H174.749C177.165 87.4679 178.375 86.268 178.375 83.8724V77.5803C178.375 75.1848 177.165 73.9849 174.749 73.9849ZM177.468 83.8724C177.468 85.6701 176.562 86.569 174.749 86.569H165.684C163.871 86.569 162.965 85.6701 162.965 83.8724V77.5803C162.965 75.7826 163.871 74.8837 165.684 74.8837H174.749C176.562 74.8837 177.468 75.7826 177.468 77.5803V83.8724Z" fill="#EFEFEF"/>
<path d="M211.513 77.5803C211.513 75.1848 210.303 73.9849 207.887 73.9849H195.197V87.4679H196.104V81.1758H207.887C209.7 81.1758 210.607 82.0747 210.607 83.8724V87.4679H211.513V83.8724C211.513 82.3198 211.01 81.2704 210 80.7285C211.01 80.1823 211.513 79.1329 211.513 77.5846V77.5803ZM207.887 80.2769H196.104V74.8837H207.887C209.7 74.8837 210.607 75.7826 210.607 77.5803C210.607 79.3781 209.7 80.2769 207.887 80.2769Z" fill="#EFEFEF"/>
<path d="M229.694 73.9849H228.787V87.4679H229.694V73.9849Z" fill="#EFEFEF"/>
<path d="M248.418 87.4679H249.481L251.736 83.8724H262.323L264.578 87.4679H265.64L257.031 73.7612L248.422 87.4679H248.418ZM252.3 82.9736L257.031 75.4428L261.763 82.9736H252.3Z" fill="#EFEFEF"/>
<path d="M295.374 80.2769H286.309C284.496 80.2769 283.59 79.3781 283.59 77.5803C283.59 75.7826 284.496 74.8837 286.309 74.8837H295.374C297.187 74.8837 298.093 75.7826 298.093 77.5803H299C299 75.1848 297.79 73.9849 295.374 73.9849H286.309C283.894 73.9849 282.684 75.1848 282.684 77.5803C282.684 79.9759 283.894 81.1758 286.309 81.1758H295.374C297.187 81.1758 298.093 82.0747 298.093 83.8724C298.093 85.6701 297.187 86.569 295.374 86.569H286.309C284.496 86.569 283.59 85.6701 283.59 83.8724H282.684C282.684 86.268 283.894 87.4679 286.309 87.4679H295.374C297.79 87.4679 299 86.268 299 83.8724C299 81.4769 297.79 80.2769 295.374 80.2769Z" fill="#EFEFEF"/>
<path d="M116.433 0.815186H115.253L83.6579 51.1432L52.0626 0.815186H45.2794H42.4647H36.575L33.2441 17.2701H49.8463L46.5589 33.5357H63.0179L63.1133 33.6862L59.7955 49.8186H73.2447L83.6579 66.3939L85.4578 63.5252L122.834 4.02789L124.855 0.815186H121.035H116.433Z" fill="#EFEFEF"/>
<path d="M284.627 63.5424H285.39H291.566H297.465L292.919 59.8179L259.173 32.181L292.919 4.53968L297.465 0.815186H291.566H285.39H284.627L252.737 26.9168L220.842 0.815186H220.079H213.903H208L212.554 4.53968L246.335 32.181L212.554 59.8179L208 63.5424H213.903H220.079H220.842L221.432 63.0607L252.737 37.4408L284.627 63.5424Z" fill="#EFEFEF"/>
</g>
<defs>
<clipPath id="clip0_1731_11291">
<rect width="299" height="86.8763" fill="white" transform="translate(0 0.815186)"/>
</clipPath>
</defs>
</svg>
