<svg width="26" height="14" viewBox="0 0 26 14" fill="none" xmlns="http://www.w3.org/2000/svg">
<path d="M0 1C0 0.447715 0.447715 0 1 0H25C25.5523 0 26 0.447715 26 1C26 1.55228 25.5523 2 25 2H1C0.447716 2 0 1.55228 0 1Z" fill="white"/>
<path d="M0 7C0 6.44772 0.447715 6 1 6H25C25.5523 6 26 6.44772 26 7C26 7.55228 25.5523 8 25 8H1C0.447716 8 0 7.55228 0 7Z" fill="white"/>
<path d="M0 13C0 12.4477 0.447715 12 1 12H25C25.5523 12 26 12.4477 26 13C26 13.5523 25.5523 14 25 14H1C0.447716 14 0 13.5523 0 13Z" fill="white"/>
</svg>
