<svg width="101" height="26" viewBox="0 0 101 26" fill="none" xmlns="http://www.w3.org/2000/svg">
<g clip-path="url(#clip0_3278_10401)">
<path d="M26.5849 20.2207C26.4715 20.2207 26.3599 20.1047 26.3878 19.9602L26.6704 18.9488C25.5977 19.9317 24.2702 20.5096 22.7161 20.5096C18.8176 20.5096 16.4453 16.8993 17.6594 11.6408C18.4216 8.26058 20.5688 5.05518 24.6365 5.05518C26.7262 5.05518 28.3938 5.95062 29.2415 7.65589L29.6095 5.60457C29.6374 5.46009 29.7787 5.34414 29.92 5.34414H33.7051C33.8464 5.34414 33.9319 5.46009 33.9023 5.60457L32.2068 12.7967L30.6526 19.9602C30.6247 20.1047 30.4834 20.2207 30.3421 20.2207H26.5849ZM24.354 17.6199C26.1611 17.6485 27.3768 16.234 28.0257 13.5173C28.788 9.99261 27.771 8.08577 25.8227 7.94307H25.3133C23.6475 8.05902 22.4893 9.47354 21.9242 12.1313C21.0764 15.7131 22.2067 17.6485 24.354 17.6199Z" fill="#0F2356" fill-opacity="0.18"/>
<path d="M38.4773 25.9983C34.8893 26.0554 31.8682 24.4678 32.0653 21.2036C32.0653 21.0591 32.2066 20.9431 32.3479 20.9431H35.9917C36.1609 20.9431 36.2743 21.0591 36.3022 21.2036C36.4714 22.4165 37.5459 23.139 38.9849 23.139C40.8217 23.139 42.0357 22.099 42.5729 19.7587L42.8834 18.4298C41.7531 19.4983 40.3699 20.1333 38.7023 20.1333C34.748 20.1333 32.4316 16.6675 33.5898 11.5535C34.3521 8.20179 36.5272 5.05347 40.6228 5.05347C42.6846 5.05347 44.2945 5.92037 45.1702 7.56678L45.5086 5.60286C45.5365 5.45838 45.6778 5.34244 45.8191 5.34244H49.5484C49.6897 5.34244 49.7751 5.45838 49.7455 5.60286L48.0221 12.9983L46.5255 19.8158C45.7057 23.5706 43.2776 25.9983 38.4756 25.9983H38.4773ZM40.342 17.2454C41.9799 17.274 43.166 16.1484 43.8166 13.9812C43.9021 13.5762 43.9858 13.2017 44.0713 12.7967C44.5806 9.82144 43.6474 8.1465 41.952 7.97347C41.8665 7.94493 41.4426 7.94493 41.3031 7.94493C39.6076 8.06088 38.4215 9.41831 37.8563 12.0476C37.0644 15.4563 38.1389 17.2758 40.342 17.2472V17.2454Z" fill="#0F2356" fill-opacity="0.18"/>
<path d="M64.8599 5.34407C65.0012 5.34407 65.0849 5.46001 65.057 5.6045L63.4191 12.4791L61.7812 19.9601C61.7533 20.1046 61.612 20.2206 61.4707 20.2206H57.8827C57.7693 20.2206 57.6559 20.1046 57.6856 19.9601L58.1373 18.3423C56.9233 19.5838 55.3133 20.5666 53.5045 20.5666C50.227 20.5666 48.4757 18.4868 49.2397 14.789L49.8903 11.6693L51.2456 5.60271C51.2735 5.45823 51.4148 5.34229 51.5561 5.34229H55.2558C55.3971 5.34229 55.4808 5.45823 55.4529 5.60271L53.9842 11.6693L53.3056 14.732C52.9376 16.3784 53.7574 17.3898 55.254 17.3898C56.6669 17.3898 58.4461 15.9449 59.1804 12.7681L59.4072 11.671L60.7904 5.6045C60.8183 5.46001 60.9596 5.34407 61.1009 5.34407H64.8581H64.8599Z" fill="#0F2356" fill-opacity="0.18"/>
<path d="M78.4739 15.194C78.6152 15.194 78.7007 15.31 78.671 15.4545C77.9367 18.1693 75.5348 20.597 71.0153 20.597C66.4958 20.597 64.4341 17.9107 64.4341 14.2701C64.4341 9.96585 66.9476 4.96777 73.1905 4.96777C77.9646 4.96777 80.5636 8.2035 79.3478 13.4031C79.3199 13.5476 79.1786 13.6636 79.0373 13.6636H68.6134V14.2415C68.6134 16.5229 69.4036 17.7073 71.2124 17.7073C72.8782 17.7073 74.094 17.0438 74.6016 15.4545C74.6295 15.2814 74.7708 15.194 74.9121 15.194H78.4704H78.4739ZM72.798 7.82891C70.9909 7.82891 69.7472 9.04187 69.0983 10.9202H75.3412C75.6517 9.35938 74.7202 7.82891 72.7997 7.82891H72.798Z" fill="#0F2356" fill-opacity="0.18"/>
<path d="M6.83389 0H4.77911C4.63783 0 4.49654 0.115944 4.46863 0.260428L3.83545 3.20719H6.07164L6.83389 0Z" fill="#0F2356" fill-opacity="0.18"/>
<path d="M11.6707 0H9.15543L8.47167 3.20719H11.3864C13.2789 3.20719 14.1825 4.10263 14.1825 5.98093C14.1825 8.81175 12.3458 9.99616 10.5387 9.99616H2.37361L2.34919 10.1121L0.00485533 19.9602C-0.0230534 20.1047 0.0606728 20.2206 0.201961 20.2206H4.07255C4.21384 20.2206 4.35513 20.1047 4.38304 19.9602L5.82383 13.2016H9.77815C15.0878 13.2016 18.4211 10.3422 18.4211 5.48861C18.4229 1.87829 15.8797 0 11.6707 0Z" fill="#0F2356" fill-opacity="0.18"/>
<path d="M85.205 2.77556H89.9634L89.5954 1.81055H84.8003L85.205 2.77556Z" fill="#0F2356" fill-opacity="0.18"/>
<path d="M84.6154 1.37527H89.4279L88.9918 0.231888C88.936 0.115944 88.7947 0 88.6534 0H84.2752C84.1619 0 84.0781 0.115944 84.134 0.231888L84.6154 1.37527Z" fill="#0F2356" fill-opacity="0.18"/>
<path d="M100.886 0H96.2256C96.0843 0 95.9151 0.087404 95.8296 0.201564L91.2823 6.23957L90.4049 3.93675H85.6935L88.0344 9.50384L79.1367 20.0191C79.0809 20.1065 79.1088 20.2206 79.2222 20.2206H83.883C84.0242 20.2206 84.1934 20.1332 84.3068 20.0191L89.6182 13L92.1596 19.9905C92.2155 20.1065 92.3567 20.2224 92.498 20.2224H96.8483C96.9617 20.2224 97.0454 20.1065 96.9896 19.9905L92.8085 9.85167L100.97 0.201564C101.026 0.11416 100.998 0 100.885 0H100.886Z" fill="#0F2356" fill-opacity="0.18"/>
</g>
<defs>
<clipPath id="clip0_3278_10401">
<rect width="101" height="26" fill="white"/>
</clipPath>
</defs>
</svg>
