<svg width="26" height="26" viewBox="0 0 26 26" fill="none" xmlns="http://www.w3.org/2000/svg">
<g clip-path="url(#clip0_2755_10820)">
<path d="M13.0002 0.953003C12.1119 0.953003 11.2235 1.29094 10.5475 1.96694L6.23106 6.28334H6.3614C7.46206 6.28334 8.49285 6.70855 9.27285 7.48855L12.2977 10.5134C12.6877 10.8948 13.3127 10.8948 13.7027 10.5134L16.7275 7.48855C17.5075 6.70855 18.5383 6.28334 19.639 6.28334H19.7693L15.4529 1.96694C14.7769 1.29094 13.8885 0.953003 13.0002 0.953003ZM4.93106 7.58334L1.96712 10.5473C0.615125 11.8993 0.615125 14.1007 1.96712 15.4527L4.93106 18.4167H6.3614C7.1154 18.4167 7.82674 18.1227 8.35541 17.594L11.3803 14.5691C12.2729 13.6765 13.7275 13.6765 14.6201 14.5691L17.645 17.594C18.1737 18.1227 18.885 18.4167 19.639 18.4167H21.0693L24.0333 15.4527C25.3853 14.1007 25.3853 11.8993 24.0333 10.5473L21.0693 7.58334H19.639C18.885 7.58334 18.1737 7.87733 17.645 8.406L14.6201 11.4309C14.1781 11.8729 13.5895 12.0995 13.0002 12.0995C12.4109 12.0995 11.8223 11.8729 11.3803 11.4309L8.35541 8.406C7.82674 7.87733 7.1154 7.58334 6.3614 7.58334H4.93106ZM13.0002 15.2005C12.7467 15.2005 12.4927 15.2959 12.2977 15.4866L9.27285 18.5115C8.49285 19.2915 7.46206 19.7167 6.3614 19.7167H6.23106L10.5475 24.0331C11.8995 25.3851 14.1009 25.3851 15.4529 24.0331L19.7693 19.7167H19.639C18.5383 19.7167 17.5075 19.2915 16.7275 18.5115L13.7027 15.4866C13.5077 15.2959 13.2537 15.2005 13.0002 15.2005Z" fill="#3F504C"/>
</g>
<defs>
<clipPath id="clip0_2755_10820">
<rect width="26" height="26" fill="white"/>
</clipPath>
</defs>
</svg>
