<svg width="22" height="22" viewBox="0 0 22 22" fill="none" xmlns="http://www.w3.org/2000/svg">
<g id="Pix" clip-path="url(#clip0_2883_1208)">
<path id="Vector" d="M10.9984 0.806396C10.2467 0.806396 9.49498 1.09234 8.92297 1.66434L5.27063 5.31668H5.38092C6.31225 5.31668 7.18446 5.67647 7.84446 6.33647L10.404 8.89598C10.734 9.21865 11.2628 9.21865 11.5928 8.89598L14.1523 6.33647C14.8123 5.67647 15.6845 5.31668 16.6158 5.31668H16.7261L13.0738 1.66434C12.5018 1.09234 11.75 0.806396 10.9984 0.806396ZM4.17063 6.41668L1.66269 8.92463C0.518687 10.0686 0.518687 11.9314 1.66269 13.0754L4.17063 15.5834H5.38092C6.01892 15.5834 6.62082 15.3346 7.06816 14.8873L9.62766 12.3278C10.383 11.5724 11.6137 11.5724 12.3691 12.3278L14.9286 14.8873C15.3759 15.3346 15.9778 15.5834 16.6158 15.5834H17.8261L20.334 13.0754C21.478 11.9314 21.478 10.0686 20.334 8.92463L17.8261 6.41668H16.6158C15.9778 6.41668 15.3759 6.66544 14.9286 7.11278L12.3691 9.67228C11.9951 10.0463 11.497 10.238 10.9984 10.238C10.4997 10.238 10.0017 10.0463 9.62766 9.67228L7.06816 7.11278C6.62082 6.66544 6.01892 6.41668 5.38092 6.41668H4.17063ZM10.9984 12.862C10.7839 12.862 10.569 12.9427 10.404 13.1041L7.84446 15.6636C7.18446 16.3236 6.31225 16.6833 5.38092 16.6833H5.27063L8.92297 20.3357C10.067 21.4797 11.9298 21.4797 13.0738 20.3357L16.7261 16.6833H16.6158C15.6845 16.6833 14.8123 16.3236 14.1523 15.6636L11.5928 13.1041C11.4278 12.9427 11.2129 12.862 10.9984 12.862Z" fill="#6FA599"/>
</g>
<defs>
<clipPath id="clip0_2883_1208">
<rect width="22" height="22" fill="white"/>
</clipPath>
</defs>
</svg>
