<svg width="19" height="19" viewBox="0 0 19 19" fill="none" xmlns="http://www.w3.org/2000/svg">
<g clip-path="url(#clip0_2891_1550)">
<path fill-rule="evenodd" clip-rule="evenodd" d="M16.2177 16.2173C19.9275 12.5073 19.9275 6.49213 16.2177 2.78209C12.5076 -0.927792 6.49245 -0.927792 2.78241 2.78209C-0.927471 6.49213 -0.927471 12.5073 2.78241 16.2173C6.49245 19.9272 12.5076 19.9272 16.2177 16.2173ZM14.4738 10.0395C14.7719 10.0395 15.0135 9.79783 15.0135 9.49987C15.0135 9.20176 14.7718 8.96024 14.4738 8.96024H10.0397V4.52594C10.0397 4.22783 9.798 3.9863 9.50004 3.9863C9.20208 3.9863 8.96056 4.22798 8.96056 4.52594V8.96008H4.5261C4.22799 8.96008 3.98631 9.20176 3.98631 9.49972C3.98631 9.79768 4.22799 10.0394 4.5261 10.0394H8.9604V14.4738C8.9604 14.7718 9.20208 15.0134 9.49988 15.0134C9.798 15.0134 10.0395 14.7718 10.0395 14.4738V10.0395H14.4738Z" fill="#12D1A7"/>
</g>
<defs>
<clipPath id="clip0_2891_1550">
<rect width="19" height="19" fill="white" transform="matrix(1 0 0 -1 0 19)"/>
</clipPath>
</defs>
</svg>
